<?xml version="1.0" encoding="utf-8" standalone="no"?>
<!DOCTYPE svg PUBLIC "-//W3C//DTD SVG 1.1//EN"
  "http://www.w3.org/Graphics/SVG/1.1/DTD/svg11.dtd">
<svg xmlns:xlink="http://www.w3.org/1999/xlink" width="719.901149pt" height="329.760938pt" viewBox="0 0 719.901149 329.760938" xmlns="http://www.w3.org/2000/svg" version="1.1">
 <metadata>
  <rdf:RDF xmlns:dc="http://purl.org/dc/elements/1.1/" xmlns:cc="http://creativecommons.org/ns#" xmlns:rdf="http://www.w3.org/1999/02/22-rdf-syntax-ns#">
   <cc:Work>
    <dc:type rdf:resource="http://purl.org/dc/dcmitype/StillImage"/>
    <dc:date>2026-07-03T11:30:45.233817</dc:date>
    <dc:format>image/svg+xml</dc:format>
    <dc:creator>
     <cc:Agent>
      <dc:title>Matplotlib v3.11.0, https://matplotlib.org/</dc:title>
     </cc:Agent>
    </dc:creator>
   </cc:Work>
  </rdf:RDF>
 </metadata>
 <defs>
  <style type="text/css">*{stroke-linejoin: round; stroke-linecap: butt}</style>
 </defs>
 <g id="figure_1">
  <g id="patch_1">
   <path d="M 0 329.760938 
L 719.901149 329.760938 
L 719.901149 0 
L 0 0 
z
" style="fill: #ffffff"/>
  </g>
  <g id="axes_1">
   <g id="patch_2">
    <path d="M 55.192188 288.06 
L 357.672188 288.06 
L 357.672188 65.359531 
L 55.192188 65.359531 
z
" style="fill: #ffffff"/>
   </g>
   <g id="patch_3">
    <path d="M 68.941278 288.06 
L 78.42341 288.06 
L 78.42341 207.261644 
L 68.941278 207.261644 
z
" clip-path="url(#p21d0da39f5)" style="fill: #e69f00; opacity: 0.75"/>
   </g>
   <g id="patch_4">
    <path d="M 78.42341 288.06 
L 87.905542 288.06 
L 87.905542 207.261644 
L 78.42341 207.261644 
z
" clip-path="url(#p21d0da39f5)" style="fill: #e69f00; opacity: 0.75"/>
   </g>
   <g id="patch_5">
    <path d="M 87.905542 288.06 
L 97.387673 288.06 
L 97.387673 288.06 
L 87.905542 288.06 
z
" clip-path="url(#p21d0da39f5)" style="fill: #e69f00; opacity: 0.75"/>
   </g>
   <g id="patch_6">
    <path d="M 97.387673 288.06 
L 106.869805 288.06 
L 106.869805 207.261644 
L 97.387673 207.261644 
z
" clip-path="url(#p21d0da39f5)" style="fill: #e69f00; opacity: 0.75"/>
   </g>
   <g id="patch_7">
    <path d="M 106.869805 288.06 
L 116.351937 288.06 
L 116.351937 288.06 
L 106.869805 288.06 
z
" clip-path="url(#p21d0da39f5)" style="fill: #e69f00; opacity: 0.75"/>
   </g>
   <g id="patch_8">
    <path d="M 116.351937 288.06 
L 125.834068 288.06 
L 125.834068 288.06 
L 116.351937 288.06 
z
" clip-path="url(#p21d0da39f5)" style="fill: #e69f00; opacity: 0.75"/>
   </g>
   <g id="patch_9">
    <path d="M 125.834068 288.06 
L 135.3162 288.06 
L 135.3162 207.261644 
L 125.834068 207.261644 
z
" clip-path="url(#p21d0da39f5)" style="fill: #e69f00; opacity: 0.75"/>
   </g>
   <g id="patch_10">
    <path d="M 135.3162 288.06 
L 144.798332 288.06 
L 144.798332 288.06 
L 135.3162 288.06 
z
" clip-path="url(#p21d0da39f5)" style="fill: #e69f00; opacity: 0.75"/>
   </g>
   <g id="patch_11">
    <path d="M 144.798332 288.06 
L 154.280463 288.06 
L 154.280463 207.261644 
L 144.798332 207.261644 
z
" clip-path="url(#p21d0da39f5)" style="fill: #e69f00; opacity: 0.75"/>
   </g>
   <g id="patch_12">
    <path d="M 154.280463 288.06 
L 163.762595 288.06 
L 163.762595 288.06 
L 154.280463 288.06 
z
" clip-path="url(#p21d0da39f5)" style="fill: #e69f00; opacity: 0.75"/>
   </g>
   <g id="patch_13">
    <path d="M 163.762595 288.06 
L 173.244727 288.06 
L 173.244727 207.261644 
L 163.762595 207.261644 
z
" clip-path="url(#p21d0da39f5)" style="fill: #e69f00; opacity: 0.75"/>
   </g>
   <g id="patch_14">
    <path d="M 173.244727 288.06 
L 182.726858 288.06 
L 182.726858 288.06 
L 173.244727 288.06 
z
" clip-path="url(#p21d0da39f5)" style="fill: #e69f00; opacity: 0.75"/>
   </g>
   <g id="patch_15">
    <path d="M 182.726858 288.06 
L 192.20899 288.06 
L 192.20899 207.261644 
L 182.726858 207.261644 
z
" clip-path="url(#p21d0da39f5)" style="fill: #e69f00; opacity: 0.75"/>
   </g>
   <g id="patch_16">
    <path d="M 192.20899 288.06 
L 201.691122 288.06 
L 201.691122 288.06 
L 192.20899 288.06 
z
" clip-path="url(#p21d0da39f5)" style="fill: #e69f00; opacity: 0.75"/>
   </g>
   <g id="patch_17">
    <path d="M 201.691122 288.06 
L 211.173253 288.06 
L 211.173253 207.261644 
L 201.691122 207.261644 
z
" clip-path="url(#p21d0da39f5)" style="fill: #e69f00; opacity: 0.75"/>
   </g>
   <g id="patch_18">
    <path d="M 211.173253 288.06 
L 220.655385 288.06 
L 220.655385 288.06 
L 211.173253 288.06 
z
" clip-path="url(#p21d0da39f5)" style="fill: #e69f00; opacity: 0.75"/>
   </g>
   <g id="patch_19">
    <path d="M 220.655385 288.06 
L 230.137517 288.06 
L 230.137517 126.463288 
L 220.655385 126.463288 
z
" clip-path="url(#p21d0da39f5)" style="fill: #e69f00; opacity: 0.75"/>
   </g>
   <g id="patch_20">
    <path d="M 230.137517 288.06 
L 239.619648 288.06 
L 239.619648 288.06 
L 230.137517 288.06 
z
" clip-path="url(#p21d0da39f5)" style="fill: #e69f00; opacity: 0.75"/>
   </g>
   <g id="patch_21">
    <path d="M 239.619648 288.06 
L 249.10178 288.06 
L 249.10178 207.261644 
L 239.619648 207.261644 
z
" clip-path="url(#p21d0da39f5)" style="fill: #e69f00; opacity: 0.75"/>
   </g>
   <g id="patch_22">
    <path d="M 249.10178 288.06 
L 258.583912 288.06 
L 258.583912 288.06 
L 249.10178 288.06 
z
" clip-path="url(#p21d0da39f5)" style="fill: #e69f00; opacity: 0.75"/>
   </g>
   <g id="patch_23">
    <path d="M 258.583912 288.06 
L 268.066043 288.06 
L 268.066043 288.06 
L 258.583912 288.06 
z
" clip-path="url(#p21d0da39f5)" style="fill: #e69f00; opacity: 0.75"/>
   </g>
   <g id="patch_24">
    <path d="M 268.066043 288.06 
L 277.548175 288.06 
L 277.548175 207.261644 
L 268.066043 207.261644 
z
" clip-path="url(#p21d0da39f5)" style="fill: #e69f00; opacity: 0.75"/>
   </g>
   <g id="patch_25">
    <path d="M 277.548175 288.06 
L 287.030307 288.06 
L 287.030307 288.06 
L 277.548175 288.06 
z
" clip-path="url(#p21d0da39f5)" style="fill: #e69f00; opacity: 0.75"/>
   </g>
   <g id="patch_26">
    <path d="M 287.030307 288.06 
L 296.512438 288.06 
L 296.512438 207.261644 
L 287.030307 207.261644 
z
" clip-path="url(#p21d0da39f5)" style="fill: #e69f00; opacity: 0.75"/>
   </g>
   <g id="patch_27">
    <path d="M 296.512438 288.06 
L 305.99457 288.06 
L 305.99457 288.06 
L 296.512438 288.06 
z
" clip-path="url(#p21d0da39f5)" style="fill: #e69f00; opacity: 0.75"/>
   </g>
   <g id="patch_28">
    <path d="M 305.99457 288.06 
L 315.476702 288.06 
L 315.476702 207.261644 
L 305.99457 207.261644 
z
" clip-path="url(#p21d0da39f5)" style="fill: #e69f00; opacity: 0.75"/>
   </g>
   <g id="patch_29">
    <path d="M 315.476702 288.06 
L 324.958833 288.06 
L 324.958833 288.06 
L 315.476702 288.06 
z
" clip-path="url(#p21d0da39f5)" style="fill: #e69f00; opacity: 0.75"/>
   </g>
   <g id="patch_30">
    <path d="M 324.958833 288.06 
L 334.440965 288.06 
L 334.440965 207.261644 
L 324.958833 207.261644 
z
" clip-path="url(#p21d0da39f5)" style="fill: #e69f00; opacity: 0.75"/>
   </g>
   <g id="patch_31">
    <path d="M 334.440965 288.06 
L 343.923097 288.06 
L 343.923097 288.06 
L 334.440965 288.06 
z
" clip-path="url(#p21d0da39f5)" style="fill: #e69f00; opacity: 0.75"/>
   </g>
   <g id="patch_32">
    <path d="M 68.941278 288.06 
L 78.42341 288.06 
L 78.42341 75.964315 
L 68.941278 75.964315 
z
" clip-path="url(#p21d0da39f5)" style="fill: #009e73; opacity: 0.75"/>
   </g>
   <g id="patch_33">
    <path d="M 78.42341 288.06 
L 87.905542 288.06 
L 87.905542 176.96226 
L 78.42341 176.96226 
z
" clip-path="url(#p21d0da39f5)" style="fill: #009e73; opacity: 0.75"/>
   </g>
   <g id="patch_34">
    <path d="M 87.905542 288.06 
L 97.387673 288.06 
L 97.387673 217.361438 
L 87.905542 217.361438 
z
" clip-path="url(#p21d0da39f5)" style="fill: #009e73; opacity: 0.75"/>
   </g>
   <g id="patch_35">
    <path d="M 97.387673 288.06 
L 106.869805 288.06 
L 106.869805 136.563082 
L 97.387673 136.563082 
z
" clip-path="url(#p21d0da39f5)" style="fill: #009e73; opacity: 0.75"/>
   </g>
   <g id="patch_36">
    <path d="M 106.869805 288.06 
L 116.351937 288.06 
L 116.351937 156.762671 
L 106.869805 156.762671 
z
" clip-path="url(#p21d0da39f5)" style="fill: #009e73; opacity: 0.75"/>
   </g>
   <g id="patch_37">
    <path d="M 116.351937 288.06 
L 125.834068 288.06 
L 125.834068 106.263699 
L 116.351937 106.263699 
z
" clip-path="url(#p21d0da39f5)" style="fill: #009e73; opacity: 0.75"/>
   </g>
   <g id="patch_38">
    <path d="M 125.834068 288.06 
L 135.3162 288.06 
L 135.3162 237.561027 
L 125.834068 237.561027 
z
" clip-path="url(#p21d0da39f5)" style="fill: #009e73; opacity: 0.75"/>
   </g>
   <g id="patch_39">
    <path d="M 135.3162 288.06 
L 144.798332 288.06 
L 144.798332 176.96226 
L 135.3162 176.96226 
z
" clip-path="url(#p21d0da39f5)" style="fill: #009e73; opacity: 0.75"/>
   </g>
   <g id="patch_40">
    <path d="M 144.798332 288.06 
L 154.280463 288.06 
L 154.280463 207.261644 
L 144.798332 207.261644 
z
" clip-path="url(#p21d0da39f5)" style="fill: #009e73; opacity: 0.75"/>
   </g>
   <g id="patch_41">
    <path d="M 154.280463 288.06 
L 163.762595 288.06 
L 163.762595 187.062055 
L 154.280463 187.062055 
z
" clip-path="url(#p21d0da39f5)" style="fill: #009e73; opacity: 0.75"/>
   </g>
   <g id="patch_42">
    <path d="M 163.762595 288.06 
L 173.244727 288.06 
L 173.244727 277.960205 
L 163.762595 277.960205 
z
" clip-path="url(#p21d0da39f5)" style="fill: #009e73; opacity: 0.75"/>
   </g>
   <g id="patch_43">
    <path d="M 173.244727 288.06 
L 182.726858 288.06 
L 182.726858 288.06 
L 173.244727 288.06 
z
" clip-path="url(#p21d0da39f5)" style="fill: #009e73; opacity: 0.75"/>
   </g>
   <g id="patch_44">
    <path d="M 182.726858 288.06 
L 192.20899 288.06 
L 192.20899 288.06 
L 182.726858 288.06 
z
" clip-path="url(#p21d0da39f5)" style="fill: #009e73; opacity: 0.75"/>
   </g>
   <g id="patch_45">
    <path d="M 192.20899 288.06 
L 201.691122 288.06 
L 201.691122 288.06 
L 192.20899 288.06 
z
" clip-path="url(#p21d0da39f5)" style="fill: #009e73; opacity: 0.75"/>
   </g>
   <g id="patch_46">
    <path d="M 201.691122 288.06 
L 211.173253 288.06 
L 211.173253 288.06 
L 201.691122 288.06 
z
" clip-path="url(#p21d0da39f5)" style="fill: #009e73; opacity: 0.75"/>
   </g>
   <g id="patch_47">
    <path d="M 211.173253 288.06 
L 220.655385 288.06 
L 220.655385 288.06 
L 211.173253 288.06 
z
" clip-path="url(#p21d0da39f5)" style="fill: #009e73; opacity: 0.75"/>
   </g>
   <g id="patch_48">
    <path d="M 220.655385 288.06 
L 230.137517 288.06 
L 230.137517 288.06 
L 220.655385 288.06 
z
" clip-path="url(#p21d0da39f5)" style="fill: #009e73; opacity: 0.75"/>
   </g>
   <g id="patch_49">
    <path d="M 230.137517 288.06 
L 239.619648 288.06 
L 239.619648 288.06 
L 230.137517 288.06 
z
" clip-path="url(#p21d0da39f5)" style="fill: #009e73; opacity: 0.75"/>
   </g>
   <g id="patch_50">
    <path d="M 239.619648 288.06 
L 249.10178 288.06 
L 249.10178 288.06 
L 239.619648 288.06 
z
" clip-path="url(#p21d0da39f5)" style="fill: #009e73; opacity: 0.75"/>
   </g>
   <g id="patch_51">
    <path d="M 249.10178 288.06 
L 258.583912 288.06 
L 258.583912 288.06 
L 249.10178 288.06 
z
" clip-path="url(#p21d0da39f5)" style="fill: #009e73; opacity: 0.75"/>
   </g>
   <g id="patch_52">
    <path d="M 258.583912 288.06 
L 268.066043 288.06 
L 268.066043 288.06 
L 258.583912 288.06 
z
" clip-path="url(#p21d0da39f5)" style="fill: #009e73; opacity: 0.75"/>
   </g>
   <g id="patch_53">
    <path d="M 268.066043 288.06 
L 277.548175 288.06 
L 277.548175 288.06 
L 268.066043 288.06 
z
" clip-path="url(#p21d0da39f5)" style="fill: #009e73; opacity: 0.75"/>
   </g>
   <g id="patch_54">
    <path d="M 277.548175 288.06 
L 287.030307 288.06 
L 287.030307 288.06 
L 277.548175 288.06 
z
" clip-path="url(#p21d0da39f5)" style="fill: #009e73; opacity: 0.75"/>
   </g>
   <g id="patch_55">
    <path d="M 287.030307 288.06 
L 296.512438 288.06 
L 296.512438 288.06 
L 287.030307 288.06 
z
" clip-path="url(#p21d0da39f5)" style="fill: #009e73; opacity: 0.75"/>
   </g>
   <g id="patch_56">
    <path d="M 296.512438 288.06 
L 305.99457 288.06 
L 305.99457 288.06 
L 296.512438 288.06 
z
" clip-path="url(#p21d0da39f5)" style="fill: #009e73; opacity: 0.75"/>
   </g>
   <g id="patch_57">
    <path d="M 305.99457 288.06 
L 315.476702 288.06 
L 315.476702 288.06 
L 305.99457 288.06 
z
" clip-path="url(#p21d0da39f5)" style="fill: #009e73; opacity: 0.75"/>
   </g>
   <g id="patch_58">
    <path d="M 315.476702 288.06 
L 324.958833 288.06 
L 324.958833 288.06 
L 315.476702 288.06 
z
" clip-path="url(#p21d0da39f5)" style="fill: #009e73; opacity: 0.75"/>
   </g>
   <g id="patch_59">
    <path d="M 324.958833 288.06 
L 334.440965 288.06 
L 334.440965 288.06 
L 324.958833 288.06 
z
" clip-path="url(#p21d0da39f5)" style="fill: #009e73; opacity: 0.75"/>
   </g>
   <g id="patch_60">
    <path d="M 334.440965 288.06 
L 343.923097 288.06 
L 343.923097 288.06 
L 334.440965 288.06 
z
" clip-path="url(#p21d0da39f5)" style="fill: #009e73; opacity: 0.75"/>
   </g>
   <g id="matplotlib.axis_1">
    <g id="xtick_1">
     <g id="line2d_1">
      <path d="M 68.941278 288.06 
L 68.941278 65.359531 
" clip-path="url(#p21d0da39f5)" style="fill: none; stroke-dasharray: 2.22,0.96; stroke-dashoffset: 0; stroke: #b0b0b0; stroke-opacity: 0.4; stroke-width: 0.6"/>
     </g>
     <g id="line2d_2">
      <defs>
       <path id="m6f4fe0b942" d="M 0 0 
L 0 4 
" style="stroke: #000000; stroke-width: 0.8"/>
      </defs>
      <g>
       <use xlink:href="#m6f4fe0b942" x="68.941278" y="288.06" style="stroke: #000000; stroke-width: 0.8"/>
      </g>
     </g>
     <g id="text_1">
      <!-- 0 -->
      <g transform="translate(65.441903 303.917422) scale(0.11 -0.11)">
       <defs>
        <path id="DejaVuSans-13" d="M 2034 4250 
Q 1547 4250 1301 3770 
Q 1056 3291 1056 2328 
Q 1056 1369 1301 889 
Q 1547 409 2034 409 
Q 2525 409 2770 889 
Q 3016 1369 3016 2328 
Q 3016 3291 2770 3770 
Q 2525 4250 2034 4250 
z
M 2034 4750 
Q 2819 4750 3233 4129 
Q 3647 3509 3647 2328 
Q 3647 1150 3233 529 
Q 2819 -91 2034 -91 
Q 1250 -91 836 529 
Q 422 1150 422 2328 
Q 422 3509 836 4129 
Q 1250 4750 2034 4750 
z
" transform="scale(0.015625)"/>
       </defs>
       <use xlink:href="#DejaVuSans-13"/>
      </g>
     </g>
    </g>
    <g id="xtick_2">
     <g id="line2d_3">
      <path d="M 134.199745 288.06 
L 134.199745 65.359531 
" clip-path="url(#p21d0da39f5)" style="fill: none; stroke-dasharray: 2.22,0.96; stroke-dashoffset: 0; stroke: #b0b0b0; stroke-opacity: 0.4; stroke-width: 0.6"/>
     </g>
     <g id="line2d_4">
      <g>
       <use xlink:href="#m6f4fe0b942" x="134.199745" y="288.06" style="stroke: #000000; stroke-width: 0.8"/>
      </g>
     </g>
     <g id="text_2">
      <!-- 20000 -->
      <g transform="translate(116.70287 303.917422) scale(0.11 -0.11)">
       <defs>
        <path id="DejaVuSans-15" d="M 1228 531 
L 3431 531 
L 3431 0 
L 469 0 
L 469 531 
Q 828 903 1448 1529 
Q 2069 2156 2228 2338 
Q 2531 2678 2651 2914 
Q 2772 3150 2772 3378 
Q 2772 3750 2511 3984 
Q 2250 4219 1831 4219 
Q 1534 4219 1204 4116 
Q 875 4013 500 3803 
L 500 4441 
Q 881 4594 1212 4672 
Q 1544 4750 1819 4750 
Q 2544 4750 2975 4387 
Q 3406 4025 3406 3419 
Q 3406 3131 3298 2873 
Q 3191 2616 2906 2266 
Q 2828 2175 2409 1742 
Q 1991 1309 1228 531 
z
" transform="scale(0.015625)"/>
       </defs>
       <use xlink:href="#DejaVuSans-15"/>
       <use xlink:href="#DejaVuSans-13" transform="translate(63.625 0)"/>
       <use xlink:href="#DejaVuSans-13" transform="translate(127.25 0)"/>
       <use xlink:href="#DejaVuSans-13" transform="translate(190.875 0)"/>
       <use xlink:href="#DejaVuSans-13" transform="translate(254.5 0)"/>
      </g>
     </g>
    </g>
    <g id="xtick_3">
     <g id="line2d_5">
      <path d="M 199.458211 288.06 
L 199.458211 65.359531 
" clip-path="url(#p21d0da39f5)" style="fill: none; stroke-dasharray: 2.22,0.96; stroke-dashoffset: 0; stroke: #b0b0b0; stroke-opacity: 0.4; stroke-width: 0.6"/>
     </g>
     <g id="line2d_6">
      <g>
       <use xlink:href="#m6f4fe0b942" x="199.458211" y="288.06" style="stroke: #000000; stroke-width: 0.8"/>
      </g>
     </g>
     <g id="text_3">
      <!-- 40000 -->
      <g transform="translate(181.961336 303.917422) scale(0.11 -0.11)">
       <defs>
        <path id="DejaVuSans-17" d="M 2419 4116 
L 825 1625 
L 2419 1625 
L 2419 4116 
z
M 2253 4666 
L 3047 4666 
L 3047 1625 
L 3713 1625 
L 3713 1100 
L 3047 1100 
L 3047 0 
L 2419 0 
L 2419 1100 
L 313 1100 
L 313 1709 
L 2253 4666 
z
" transform="scale(0.015625)"/>
       </defs>
       <use xlink:href="#DejaVuSans-17"/>
       <use xlink:href="#DejaVuSans-13" transform="translate(63.625 0)"/>
       <use xlink:href="#DejaVuSans-13" transform="translate(127.25 0)"/>
       <use xlink:href="#DejaVuSans-13" transform="translate(190.875 0)"/>
       <use xlink:href="#DejaVuSans-13" transform="translate(254.5 0)"/>
      </g>
     </g>
    </g>
    <g id="xtick_4">
     <g id="line2d_7">
      <path d="M 264.716677 288.06 
L 264.716677 65.359531 
" clip-path="url(#p21d0da39f5)" style="fill: none; stroke-dasharray: 2.22,0.96; stroke-dashoffset: 0; stroke: #b0b0b0; stroke-opacity: 0.4; stroke-width: 0.6"/>
     </g>
     <g id="line2d_8">
      <g>
       <use xlink:href="#m6f4fe0b942" x="264.716677" y="288.06" style="stroke: #000000; stroke-width: 0.8"/>
      </g>
     </g>
     <g id="text_4">
      <!-- 60000 -->
      <g transform="translate(247.219802 303.917422) scale(0.11 -0.11)">
       <defs>
        <path id="DejaVuSans-19" d="M 2113 2584 
Q 1688 2584 1439 2293 
Q 1191 2003 1191 1497 
Q 1191 994 1439 701 
Q 1688 409 2113 409 
Q 2538 409 2786 701 
Q 3034 994 3034 1497 
Q 3034 2003 2786 2293 
Q 2538 2584 2113 2584 
z
M 3366 4563 
L 3366 3988 
Q 3128 4100 2886 4159 
Q 2644 4219 2406 4219 
Q 1781 4219 1451 3797 
Q 1122 3375 1075 2522 
Q 1259 2794 1537 2939 
Q 1816 3084 2150 3084 
Q 2853 3084 3261 2657 
Q 3669 2231 3669 1497 
Q 3669 778 3244 343 
Q 2819 -91 2113 -91 
Q 1303 -91 875 529 
Q 447 1150 447 2328 
Q 447 3434 972 4092 
Q 1497 4750 2381 4750 
Q 2619 4750 2861 4703 
Q 3103 4656 3366 4563 
z
" transform="scale(0.015625)"/>
       </defs>
       <use xlink:href="#DejaVuSans-19"/>
       <use xlink:href="#DejaVuSans-13" transform="translate(63.625 0)"/>
       <use xlink:href="#DejaVuSans-13" transform="translate(127.25 0)"/>
       <use xlink:href="#DejaVuSans-13" transform="translate(190.875 0)"/>
       <use xlink:href="#DejaVuSans-13" transform="translate(254.5 0)"/>
      </g>
     </g>
    </g>
    <g id="xtick_5">
     <g id="line2d_9">
      <path d="M 329.975144 288.06 
L 329.975144 65.359531 
" clip-path="url(#p21d0da39f5)" style="fill: none; stroke-dasharray: 2.22,0.96; stroke-dashoffset: 0; stroke: #b0b0b0; stroke-opacity: 0.4; stroke-width: 0.6"/>
     </g>
     <g id="line2d_10">
      <g>
       <use xlink:href="#m6f4fe0b942" x="329.975144" y="288.06" style="stroke: #000000; stroke-width: 0.8"/>
      </g>
     </g>
     <g id="text_5">
      <!-- 80000 -->
      <g transform="translate(312.478269 303.917422) scale(0.11 -0.11)">
       <defs>
        <path id="DejaVuSans-1b" d="M 2034 2216 
Q 1584 2216 1326 1975 
Q 1069 1734 1069 1313 
Q 1069 891 1326 650 
Q 1584 409 2034 409 
Q 2484 409 2743 651 
Q 3003 894 3003 1313 
Q 3003 1734 2745 1975 
Q 2488 2216 2034 2216 
z
M 1403 2484 
Q 997 2584 770 2862 
Q 544 3141 544 3541 
Q 544 4100 942 4425 
Q 1341 4750 2034 4750 
Q 2731 4750 3128 4425 
Q 3525 4100 3525 3541 
Q 3525 3141 3298 2862 
Q 3072 2584 2669 2484 
Q 3125 2378 3379 2068 
Q 3634 1759 3634 1313 
Q 3634 634 3220 271 
Q 2806 -91 2034 -91 
Q 1263 -91 848 271 
Q 434 634 434 1313 
Q 434 1759 690 2068 
Q 947 2378 1403 2484 
z
M 1172 3481 
Q 1172 3119 1398 2916 
Q 1625 2713 2034 2713 
Q 2441 2713 2670 2916 
Q 2900 3119 2900 3481 
Q 2900 3844 2670 4047 
Q 2441 4250 2034 4250 
Q 1625 4250 1398 4047 
Q 1172 3844 1172 3481 
z
" transform="scale(0.015625)"/>
       </defs>
       <use xlink:href="#DejaVuSans-1b"/>
       <use xlink:href="#DejaVuSans-13" transform="translate(63.625 0)"/>
       <use xlink:href="#DejaVuSans-13" transform="translate(127.25 0)"/>
       <use xlink:href="#DejaVuSans-13" transform="translate(190.875 0)"/>
       <use xlink:href="#DejaVuSans-13" transform="translate(254.5 0)"/>
      </g>
     </g>
    </g>
    <g id="text_6">
     <!-- Time to First Token (ms) -->
     <g transform="translate(134.749063 319.678125) scale(0.12 -0.12)">
      <defs>
       <path id="DejaVuSans-37" d="M -19 4666 
L 3928 4666 
L 3928 4134 
L 2272 4134 
L 2272 0 
L 1638 0 
L 1638 4134 
L -19 4134 
L -19 4666 
z
" transform="scale(0.015625)"/>
       <path id="DejaVuSans-4c" d="M 603 3500 
L 1178 3500 
L 1178 0 
L 603 0 
L 603 3500 
z
M 603 4863 
L 1178 4863 
L 1178 4134 
L 603 4134 
L 603 4863 
z
" transform="scale(0.015625)"/>
       <path id="DejaVuSans-50" d="M 3328 2828 
Q 3544 3216 3844 3400 
Q 4144 3584 4550 3584 
Q 5097 3584 5394 3201 
Q 5691 2819 5691 2113 
L 5691 0 
L 5113 0 
L 5113 2094 
Q 5113 2597 4934 2840 
Q 4756 3084 4391 3084 
Q 3944 3084 3684 2787 
Q 3425 2491 3425 1978 
L 3425 0 
L 2847 0 
L 2847 2094 
Q 2847 2600 2669 2842 
Q 2491 3084 2119 3084 
Q 1678 3084 1418 2786 
Q 1159 2488 1159 1978 
L 1159 0 
L 581 0 
L 581 3500 
L 1159 3500 
L 1159 2956 
Q 1356 3278 1631 3431 
Q 1906 3584 2284 3584 
Q 2666 3584 2933 3390 
Q 3200 3197 3328 2828 
z
" transform="scale(0.015625)"/>
       <path id="DejaVuSans-48" d="M 3597 1894 
L 3597 1613 
L 953 1613 
Q 991 1019 1311 708 
Q 1631 397 2203 397 
Q 2534 397 2845 478 
Q 3156 559 3463 722 
L 3463 178 
Q 3153 47 2828 -22 
Q 2503 -91 2169 -91 
Q 1331 -91 842 396 
Q 353 884 353 1716 
Q 353 2575 817 3079 
Q 1281 3584 2069 3584 
Q 2775 3584 3186 3129 
Q 3597 2675 3597 1894 
z
M 3022 2063 
Q 3016 2534 2758 2815 
Q 2500 3097 2075 3097 
Q 1594 3097 1305 2825 
Q 1016 2553 972 2059 
L 3022 2063 
z
" transform="scale(0.015625)"/>
       <path id="DejaVuSans-3" transform="scale(0.015625)"/>
       <path id="DejaVuSans-57" d="M 1172 4494 
L 1172 3500 
L 2356 3500 
L 2356 3053 
L 1172 3053 
L 1172 1153 
Q 1172 725 1289 603 
Q 1406 481 1766 481 
L 2356 481 
L 2356 0 
L 1766 0 
Q 1100 0 847 248 
Q 594 497 594 1153 
L 594 3053 
L 172 3053 
L 172 3500 
L 594 3500 
L 594 4494 
L 1172 4494 
z
" transform="scale(0.015625)"/>
       <path id="DejaVuSans-52" d="M 1959 3097 
Q 1497 3097 1228 2736 
Q 959 2375 959 1747 
Q 959 1119 1226 758 
Q 1494 397 1959 397 
Q 2419 397 2687 759 
Q 2956 1122 2956 1747 
Q 2956 2369 2687 2733 
Q 2419 3097 1959 3097 
z
M 1959 3584 
Q 2709 3584 3137 3096 
Q 3566 2609 3566 1747 
Q 3566 888 3137 398 
Q 2709 -91 1959 -91 
Q 1206 -91 779 398 
Q 353 888 353 1747 
Q 353 2609 779 3096 
Q 1206 3584 1959 3584 
z
" transform="scale(0.015625)"/>
       <path id="DejaVuSans-29" d="M 628 4666 
L 3309 4666 
L 3309 4134 
L 1259 4134 
L 1259 2759 
L 3109 2759 
L 3109 2228 
L 1259 2228 
L 1259 0 
L 628 0 
L 628 4666 
z
" transform="scale(0.015625)"/>
       <path id="DejaVuSans-55" d="M 2631 2963 
Q 2534 3019 2420 3045 
Q 2306 3072 2169 3072 
Q 1681 3072 1420 2755 
Q 1159 2438 1159 1844 
L 1159 0 
L 581 0 
L 581 3500 
L 1159 3500 
L 1159 2956 
Q 1341 3275 1631 3429 
Q 1922 3584 2338 3584 
Q 2397 3584 2469 3576 
Q 2541 3569 2628 3553 
L 2631 2963 
z
" transform="scale(0.015625)"/>
       <path id="DejaVuSans-56" d="M 2834 3397 
L 2834 2853 
Q 2591 2978 2328 3040 
Q 2066 3103 1784 3103 
Q 1356 3103 1142 2972 
Q 928 2841 928 2578 
Q 928 2378 1081 2264 
Q 1234 2150 1697 2047 
L 1894 2003 
Q 2506 1872 2764 1633 
Q 3022 1394 3022 966 
Q 3022 478 2636 193 
Q 2250 -91 1575 -91 
Q 1294 -91 989 -36 
Q 684 19 347 128 
L 347 722 
Q 666 556 975 473 
Q 1284 391 1588 391 
Q 1994 391 2212 530 
Q 2431 669 2431 922 
Q 2431 1156 2273 1281 
Q 2116 1406 1581 1522 
L 1381 1569 
Q 847 1681 609 1914 
Q 372 2147 372 2553 
Q 372 3047 722 3315 
Q 1072 3584 1716 3584 
Q 2034 3584 2315 3537 
Q 2597 3491 2834 3397 
z
" transform="scale(0.015625)"/>
       <path id="DejaVuSans-4e" d="M 581 4863 
L 1159 4863 
L 1159 1991 
L 2875 3500 
L 3609 3500 
L 1753 1863 
L 3688 0 
L 2938 0 
L 1159 1709 
L 1159 0 
L 581 0 
L 581 4863 
z
" transform="scale(0.015625)"/>
       <path id="DejaVuSans-51" d="M 3513 2113 
L 3513 0 
L 2938 0 
L 2938 2094 
Q 2938 2591 2744 2837 
Q 2550 3084 2163 3084 
Q 1697 3084 1428 2787 
Q 1159 2491 1159 1978 
L 1159 0 
L 581 0 
L 581 3500 
L 1159 3500 
L 1159 2956 
Q 1366 3272 1645 3428 
Q 1925 3584 2291 3584 
Q 2894 3584 3203 3211 
Q 3513 2838 3513 2113 
z
" transform="scale(0.015625)"/>
       <path id="DejaVuSans-b" d="M 1984 4856 
Q 1566 4138 1362 3434 
Q 1159 2731 1159 2009 
Q 1159 1288 1364 580 
Q 1569 -128 1984 -844 
L 1484 -844 
Q 1016 -109 783 600 
Q 550 1309 550 2009 
Q 550 2706 781 3412 
Q 1013 4119 1484 4856 
L 1984 4856 
z
" transform="scale(0.015625)"/>
       <path id="DejaVuSans-c" d="M 513 4856 
L 1013 4856 
Q 1481 4119 1714 3412 
Q 1947 2706 1947 2009 
Q 1947 1309 1714 600 
Q 1481 -109 1013 -844 
L 513 -844 
Q 928 -128 1133 580 
Q 1338 1288 1338 2009 
Q 1338 2731 1133 3434 
Q 928 4138 513 4856 
z
" transform="scale(0.015625)"/>
      </defs>
      <use xlink:href="#DejaVuSans-37"/>
      <use xlink:href="#DejaVuSans-4c" transform="translate(58 0)"/>
      <use xlink:href="#DejaVuSans-50" transform="translate(85.78125 0)"/>
      <use xlink:href="#DejaVuSans-48" transform="translate(183.1875 0)"/>
      <use xlink:href="#DejaVuSans-3" transform="translate(244.71875 0)"/>
      <use xlink:href="#DejaVuSans-57" transform="translate(276.5 0)"/>
      <use xlink:href="#DejaVuSans-52" transform="translate(315.703125 0)"/>
      <use xlink:href="#DejaVuSans-3" transform="translate(376.890625 0)"/>
      <use xlink:href="#DejaVuSans-29" transform="translate(408.671875 0)"/>
      <use xlink:href="#DejaVuSans-4c" transform="translate(458.90625 0)"/>
      <use xlink:href="#DejaVuSans-55" transform="translate(486.6875 0)"/>
      <use xlink:href="#DejaVuSans-56" transform="translate(527.796875 0)"/>
      <use xlink:href="#DejaVuSans-57" transform="translate(579.890625 0)"/>
      <use xlink:href="#DejaVuSans-3" transform="translate(619.09375 0)"/>
      <use xlink:href="#DejaVuSans-37" transform="translate(650.875 0)"/>
      <use xlink:href="#DejaVuSans-52" transform="translate(694.96875 0)"/>
      <use xlink:href="#DejaVuSans-4e" transform="translate(756.15625 0)"/>
      <use xlink:href="#DejaVuSans-48" transform="translate(810.5 0)"/>
      <use xlink:href="#DejaVuSans-51" transform="translate(872.03125 0)"/>
      <use xlink:href="#DejaVuSans-3" transform="translate(935.40625 0)"/>
      <use xlink:href="#DejaVuSans-b" transform="translate(967.1875 0)"/>
      <use xlink:href="#DejaVuSans-50" transform="translate(1006.203125 0)"/>
      <use xlink:href="#DejaVuSans-56" transform="translate(1103.609375 0)"/>
      <use xlink:href="#DejaVuSans-c" transform="translate(1155.703125 0)"/>
     </g>
    </g>
   </g>
   <g id="matplotlib.axis_2">
    <g id="ytick_1">
     <g id="line2d_11">
      <path d="M 55.192188 288.06 
L 357.672188 288.06 
" clip-path="url(#p21d0da39f5)" style="fill: none; stroke-dasharray: 2.22,0.96; stroke-dashoffset: 0; stroke: #b0b0b0; stroke-opacity: 0.4; stroke-width: 0.6"/>
     </g>
     <g id="line2d_12">
      <defs>
       <path id="m0ab62b1ed0" d="M 0 0 
L -4 0 
" style="stroke: #000000; stroke-width: 0.8"/>
      </defs>
      <g>
       <use xlink:href="#m0ab62b1ed0" x="55.192188" y="288.06" style="stroke: #000000; stroke-width: 0.8"/>
      </g>
     </g>
     <g id="text_7">
      <!-- 0.0 -->
      <g transform="translate(30.19875 292.238711) scale(0.11 -0.11)">
       <defs>
        <path id="DejaVuSans-11" d="M 684 794 
L 1344 794 
L 1344 0 
L 684 0 
L 684 794 
z
" transform="scale(0.015625)"/>
       </defs>
       <use xlink:href="#DejaVuSans-13"/>
       <use xlink:href="#DejaVuSans-11" transform="translate(63.625 0)"/>
       <use xlink:href="#DejaVuSans-13" transform="translate(95.40625 0)"/>
      </g>
     </g>
    </g>
    <g id="ytick_2">
     <g id="line2d_13">
      <path d="M 55.192188 262.810514 
L 357.672188 262.810514 
" clip-path="url(#p21d0da39f5)" style="fill: none; stroke-dasharray: 2.22,0.96; stroke-dashoffset: 0; stroke: #b0b0b0; stroke-opacity: 0.4; stroke-width: 0.6"/>
     </g>
     <g id="line2d_14">
      <g>
       <use xlink:href="#m0ab62b1ed0" x="55.192188" y="262.810514" style="stroke: #000000; stroke-width: 0.8"/>
      </g>
     </g>
     <g id="text_8">
      <!-- 2.5 -->
      <g transform="translate(30.19875 266.989225) scale(0.11 -0.11)">
       <defs>
        <path id="DejaVuSans-18" d="M 691 4666 
L 3169 4666 
L 3169 4134 
L 1269 4134 
L 1269 2991 
Q 1406 3038 1543 3061 
Q 1681 3084 1819 3084 
Q 2600 3084 3056 2656 
Q 3513 2228 3513 1497 
Q 3513 744 3044 326 
Q 2575 -91 1722 -91 
Q 1428 -91 1123 -41 
Q 819 9 494 109 
L 494 744 
Q 775 591 1075 516 
Q 1375 441 1709 441 
Q 2250 441 2565 725 
Q 2881 1009 2881 1497 
Q 2881 1984 2565 2268 
Q 2250 2553 1709 2553 
Q 1456 2553 1204 2497 
Q 953 2441 691 2322 
L 691 4666 
z
" transform="scale(0.015625)"/>
       </defs>
       <use xlink:href="#DejaVuSans-15"/>
       <use xlink:href="#DejaVuSans-11" transform="translate(63.625 0)"/>
       <use xlink:href="#DejaVuSans-18" transform="translate(95.40625 0)"/>
      </g>
     </g>
    </g>
    <g id="ytick_3">
     <g id="line2d_15">
      <path d="M 55.192188 237.561027 
L 357.672188 237.561027 
" clip-path="url(#p21d0da39f5)" style="fill: none; stroke-dasharray: 2.22,0.96; stroke-dashoffset: 0; stroke: #b0b0b0; stroke-opacity: 0.4; stroke-width: 0.6"/>
     </g>
     <g id="line2d_16">
      <g>
       <use xlink:href="#m0ab62b1ed0" x="55.192188" y="237.561027" style="stroke: #000000; stroke-width: 0.8"/>
      </g>
     </g>
     <g id="text_9">
      <!-- 5.0 -->
      <g transform="translate(30.19875 241.739738) scale(0.11 -0.11)">
       <use xlink:href="#DejaVuSans-18"/>
       <use xlink:href="#DejaVuSans-11" transform="translate(63.625 0)"/>
       <use xlink:href="#DejaVuSans-13" transform="translate(95.40625 0)"/>
      </g>
     </g>
    </g>
    <g id="ytick_4">
     <g id="line2d_17">
      <path d="M 55.192188 212.311541 
L 357.672188 212.311541 
" clip-path="url(#p21d0da39f5)" style="fill: none; stroke-dasharray: 2.22,0.96; stroke-dashoffset: 0; stroke: #b0b0b0; stroke-opacity: 0.4; stroke-width: 0.6"/>
     </g>
     <g id="line2d_18">
      <g>
       <use xlink:href="#m0ab62b1ed0" x="55.192188" y="212.311541" style="stroke: #000000; stroke-width: 0.8"/>
      </g>
     </g>
     <g id="text_10">
      <!-- 7.5 -->
      <g transform="translate(30.19875 216.490252) scale(0.11 -0.11)">
       <defs>
        <path id="DejaVuSans-1a" d="M 525 4666 
L 3525 4666 
L 3525 4397 
L 1831 0 
L 1172 0 
L 2766 4134 
L 525 4134 
L 525 4666 
z
" transform="scale(0.015625)"/>
       </defs>
       <use xlink:href="#DejaVuSans-1a"/>
       <use xlink:href="#DejaVuSans-11" transform="translate(63.625 0)"/>
       <use xlink:href="#DejaVuSans-18" transform="translate(95.40625 0)"/>
      </g>
     </g>
    </g>
    <g id="ytick_5">
     <g id="line2d_19">
      <path d="M 55.192188 187.062055 
L 357.672188 187.062055 
" clip-path="url(#p21d0da39f5)" style="fill: none; stroke-dasharray: 2.22,0.96; stroke-dashoffset: 0; stroke: #b0b0b0; stroke-opacity: 0.4; stroke-width: 0.6"/>
     </g>
     <g id="line2d_20">
      <g>
       <use xlink:href="#m0ab62b1ed0" x="55.192188" y="187.062055" style="stroke: #000000; stroke-width: 0.8"/>
      </g>
     </g>
     <g id="text_11">
      <!-- 10.0 -->
      <g transform="translate(23.2 191.240766) scale(0.11 -0.11)">
       <defs>
        <path id="DejaVuSans-14" d="M 794 531 
L 1825 531 
L 1825 4091 
L 703 3866 
L 703 4441 
L 1819 4666 
L 2450 4666 
L 2450 531 
L 3481 531 
L 3481 0 
L 794 0 
L 794 531 
z
" transform="scale(0.015625)"/>
       </defs>
       <use xlink:href="#DejaVuSans-14"/>
       <use xlink:href="#DejaVuSans-13" transform="translate(63.625 0)"/>
       <use xlink:href="#DejaVuSans-11" transform="translate(127.25 0)"/>
       <use xlink:href="#DejaVuSans-13" transform="translate(159.03125 0)"/>
      </g>
     </g>
    </g>
    <g id="ytick_6">
     <g id="line2d_21">
      <path d="M 55.192188 161.812569 
L 357.672188 161.812569 
" clip-path="url(#p21d0da39f5)" style="fill: none; stroke-dasharray: 2.22,0.96; stroke-dashoffset: 0; stroke: #b0b0b0; stroke-opacity: 0.4; stroke-width: 0.6"/>
     </g>
     <g id="line2d_22">
      <g>
       <use xlink:href="#m0ab62b1ed0" x="55.192188" y="161.812569" style="stroke: #000000; stroke-width: 0.8"/>
      </g>
     </g>
     <g id="text_12">
      <!-- 12.5 -->
      <g transform="translate(23.2 165.99128) scale(0.11 -0.11)">
       <use xlink:href="#DejaVuSans-14"/>
       <use xlink:href="#DejaVuSans-15" transform="translate(63.625 0)"/>
       <use xlink:href="#DejaVuSans-11" transform="translate(127.25 0)"/>
       <use xlink:href="#DejaVuSans-18" transform="translate(159.03125 0)"/>
      </g>
     </g>
    </g>
    <g id="ytick_7">
     <g id="line2d_23">
      <path d="M 55.192188 136.563082 
L 357.672188 136.563082 
" clip-path="url(#p21d0da39f5)" style="fill: none; stroke-dasharray: 2.22,0.96; stroke-dashoffset: 0; stroke: #b0b0b0; stroke-opacity: 0.4; stroke-width: 0.6"/>
     </g>
     <g id="line2d_24">
      <g>
       <use xlink:href="#m0ab62b1ed0" x="55.192188" y="136.563082" style="stroke: #000000; stroke-width: 0.8"/>
      </g>
     </g>
     <g id="text_13">
      <!-- 15.0 -->
      <g transform="translate(23.2 140.741793) scale(0.11 -0.11)">
       <use xlink:href="#DejaVuSans-14"/>
       <use xlink:href="#DejaVuSans-18" transform="translate(63.625 0)"/>
       <use xlink:href="#DejaVuSans-11" transform="translate(127.25 0)"/>
       <use xlink:href="#DejaVuSans-13" transform="translate(159.03125 0)"/>
      </g>
     </g>
    </g>
    <g id="ytick_8">
     <g id="line2d_25">
      <path d="M 55.192188 111.313596 
L 357.672188 111.313596 
" clip-path="url(#p21d0da39f5)" style="fill: none; stroke-dasharray: 2.22,0.96; stroke-dashoffset: 0; stroke: #b0b0b0; stroke-opacity: 0.4; stroke-width: 0.6"/>
     </g>
     <g id="line2d_26">
      <g>
       <use xlink:href="#m0ab62b1ed0" x="55.192188" y="111.313596" style="stroke: #000000; stroke-width: 0.8"/>
      </g>
     </g>
     <g id="text_14">
      <!-- 17.5 -->
      <g transform="translate(23.2 115.492307) scale(0.11 -0.11)">
       <use xlink:href="#DejaVuSans-14"/>
       <use xlink:href="#DejaVuSans-1a" transform="translate(63.625 0)"/>
       <use xlink:href="#DejaVuSans-11" transform="translate(127.25 0)"/>
       <use xlink:href="#DejaVuSans-18" transform="translate(159.03125 0)"/>
      </g>
     </g>
    </g>
    <g id="ytick_9">
     <g id="line2d_27">
      <path d="M 55.192188 86.06411 
L 357.672188 86.06411 
" clip-path="url(#p21d0da39f5)" style="fill: none; stroke-dasharray: 2.22,0.96; stroke-dashoffset: 0; stroke: #b0b0b0; stroke-opacity: 0.4; stroke-width: 0.6"/>
     </g>
     <g id="line2d_28">
      <g>
       <use xlink:href="#m0ab62b1ed0" x="55.192188" y="86.06411" style="stroke: #000000; stroke-width: 0.8"/>
      </g>
     </g>
     <g id="text_15">
      <!-- 20.0 -->
      <g transform="translate(23.2 90.242821) scale(0.11 -0.11)">
       <use xlink:href="#DejaVuSans-15"/>
       <use xlink:href="#DejaVuSans-13" transform="translate(63.625 0)"/>
       <use xlink:href="#DejaVuSans-11" transform="translate(127.25 0)"/>
       <use xlink:href="#DejaVuSans-13" transform="translate(159.03125 0)"/>
      </g>
     </g>
    </g>
    <g id="text_16">
     <!-- Request count -->
     <g transform="translate(16.317188 219.917266) rotate(-90) scale(0.12 -0.12)">
      <defs>
       <path id="DejaVuSans-35" d="M 2841 2188 
Q 3044 2119 3236 1894 
Q 3428 1669 3622 1275 
L 4263 0 
L 3584 0 
L 2988 1197 
Q 2756 1666 2539 1819 
Q 2322 1972 1947 1972 
L 1259 1972 
L 1259 0 
L 628 0 
L 628 4666 
L 2053 4666 
Q 2853 4666 3247 4331 
Q 3641 3997 3641 3322 
Q 3641 2881 3436 2590 
Q 3231 2300 2841 2188 
z
M 1259 4147 
L 1259 2491 
L 2053 2491 
Q 2509 2491 2742 2702 
Q 2975 2913 2975 3322 
Q 2975 3731 2742 3939 
Q 2509 4147 2053 4147 
L 1259 4147 
z
" transform="scale(0.015625)"/>
       <path id="DejaVuSans-54" d="M 947 1747 
Q 947 1113 1208 752 
Q 1469 391 1925 391 
Q 2381 391 2643 752 
Q 2906 1113 2906 1747 
Q 2906 2381 2643 2742 
Q 2381 3103 1925 3103 
Q 1469 3103 1208 2742 
Q 947 2381 947 1747 
z
M 2906 525 
Q 2725 213 2448 61 
Q 2172 -91 1784 -91 
Q 1150 -91 751 415 
Q 353 922 353 1747 
Q 353 2572 751 3078 
Q 1150 3584 1784 3584 
Q 2172 3584 2448 3432 
Q 2725 3281 2906 2969 
L 2906 3500 
L 3481 3500 
L 3481 -1331 
L 2906 -1331 
L 2906 525 
z
" transform="scale(0.015625)"/>
       <path id="DejaVuSans-58" d="M 544 1381 
L 544 3500 
L 1119 3500 
L 1119 1403 
Q 1119 906 1312 657 
Q 1506 409 1894 409 
Q 2359 409 2629 706 
Q 2900 1003 2900 1516 
L 2900 3500 
L 3475 3500 
L 3475 0 
L 2900 0 
L 2900 538 
Q 2691 219 2414 64 
Q 2138 -91 1772 -91 
Q 1169 -91 856 284 
Q 544 659 544 1381 
z
M 1991 3584 
L 1991 3584 
z
" transform="scale(0.015625)"/>
       <path id="DejaVuSans-46" d="M 3122 3366 
L 3122 2828 
Q 2878 2963 2633 3030 
Q 2388 3097 2138 3097 
Q 1578 3097 1268 2742 
Q 959 2388 959 1747 
Q 959 1106 1268 751 
Q 1578 397 2138 397 
Q 2388 397 2633 464 
Q 2878 531 3122 666 
L 3122 134 
Q 2881 22 2623 -34 
Q 2366 -91 2075 -91 
Q 1284 -91 818 406 
Q 353 903 353 1747 
Q 353 2603 823 3093 
Q 1294 3584 2113 3584 
Q 2378 3584 2631 3529 
Q 2884 3475 3122 3366 
z
" transform="scale(0.015625)"/>
      </defs>
      <use xlink:href="#DejaVuSans-35"/>
      <use xlink:href="#DejaVuSans-48" transform="translate(65 0)"/>
      <use xlink:href="#DejaVuSans-54" transform="translate(126.53125 0)"/>
      <use xlink:href="#DejaVuSans-58" transform="translate(190.015625 0)"/>
      <use xlink:href="#DejaVuSans-48" transform="translate(253.390625 0)"/>
      <use xlink:href="#DejaVuSans-56" transform="translate(314.921875 0)"/>
      <use xlink:href="#DejaVuSans-57" transform="translate(367.015625 0)"/>
      <use xlink:href="#DejaVuSans-3" transform="translate(406.21875 0)"/>
      <use xlink:href="#DejaVuSans-46" transform="translate(438 0)"/>
      <use xlink:href="#DejaVuSans-52" transform="translate(492.984375 0)"/>
      <use xlink:href="#DejaVuSans-58" transform="translate(554.171875 0)"/>
      <use xlink:href="#DejaVuSans-51" transform="translate(617.546875 0)"/>
      <use xlink:href="#DejaVuSans-57" transform="translate(680.921875 0)"/>
     </g>
    </g>
   </g>
   <g id="patch_61">
    <path d="M 55.192188 288.06 
L 55.192188 65.359531 
" style="fill: none; stroke: #000000; stroke-width: 0.8; stroke-linejoin: miter; stroke-linecap: square"/>
   </g>
   <g id="patch_62">
    <path d="M 55.192188 288.06 
L 357.672188 288.06 
" style="fill: none; stroke: #000000; stroke-width: 0.8; stroke-linejoin: miter; stroke-linecap: square"/>
   </g>
   <g id="text_17">
    <!-- TTFT Distribution -->
    <g transform="translate(151.025781 55.359531) scale(0.13 -0.13)">
     <defs>
      <path id="DejaVuSans-27" d="M 1259 4147 
L 1259 519 
L 2022 519 
Q 2988 519 3436 956 
Q 3884 1394 3884 2338 
Q 3884 3275 3436 3711 
Q 2988 4147 2022 4147 
L 1259 4147 
z
M 628 4666 
L 1925 4666 
Q 3281 4666 3915 4102 
Q 4550 3538 4550 2338 
Q 4550 1131 3912 565 
Q 3275 0 1925 0 
L 628 0 
L 628 4666 
z
" transform="scale(0.015625)"/>
      <path id="DejaVuSans-45" d="M 3116 1747 
Q 3116 2381 2855 2742 
Q 2594 3103 2138 3103 
Q 1681 3103 1420 2742 
Q 1159 2381 1159 1747 
Q 1159 1113 1420 752 
Q 1681 391 2138 391 
Q 2594 391 2855 752 
Q 3116 1113 3116 1747 
z
M 1159 2969 
Q 1341 3281 1617 3432 
Q 1894 3584 2278 3584 
Q 2916 3584 3314 3078 
Q 3713 2572 3713 1747 
Q 3713 922 3314 415 
Q 2916 -91 2278 -91 
Q 1894 -91 1617 61 
Q 1341 213 1159 525 
L 1159 0 
L 581 0 
L 581 4863 
L 1159 4863 
L 1159 2969 
z
" transform="scale(0.015625)"/>
     </defs>
     <use xlink:href="#DejaVuSans-37"/>
     <use xlink:href="#DejaVuSans-37" transform="translate(59.328125 0)"/>
     <use xlink:href="#DejaVuSans-29" transform="translate(120.40625 0)"/>
     <use xlink:href="#DejaVuSans-37" transform="translate(176.171875 0)"/>
     <use xlink:href="#DejaVuSans-3" transform="translate(237.25 0)"/>
     <use xlink:href="#DejaVuSans-27" transform="translate(269.03125 0)"/>
     <use xlink:href="#DejaVuSans-4c" transform="translate(346.03125 0)"/>
     <use xlink:href="#DejaVuSans-56" transform="translate(373.8125 0)"/>
     <use xlink:href="#DejaVuSans-57" transform="translate(425.90625 0)"/>
     <use xlink:href="#DejaVuSans-55" transform="translate(465.109375 0)"/>
     <use xlink:href="#DejaVuSans-4c" transform="translate(506.21875 0)"/>
     <use xlink:href="#DejaVuSans-45" transform="translate(534 0)"/>
     <use xlink:href="#DejaVuSans-58" transform="translate(597.484375 0)"/>
     <use xlink:href="#DejaVuSans-57" transform="translate(660.859375 0)"/>
     <use xlink:href="#DejaVuSans-4c" transform="translate(700.0625 0)"/>
     <use xlink:href="#DejaVuSans-52" transform="translate(727.84375 0)"/>
     <use xlink:href="#DejaVuSans-51" transform="translate(789.03125 0)"/>
    </g>
   </g>
   <g id="legend_1">
    <g id="patch_63">
     <path d="M 155.406563 103.361094 
L 350.672188 103.361094 
Q 352.672188 103.361094 352.672188 101.361094 
L 352.672188 72.359531 
Q 352.672188 70.359531 350.672188 70.359531 
L 155.406563 70.359531 
Q 153.406563 70.359531 153.406563 72.359531 
L 153.406563 101.361094 
Q 153.406563 103.361094 155.406563 103.361094 
z
" style="fill: #ffffff; opacity: 0.85; stroke: #cccccc; stroke-linejoin: miter"/>
    </g>
    <g id="patch_64">
     <path d="M 157.406563 81.957969 
L 177.406563 81.957969 
L 177.406563 74.957969 
L 157.406563 74.957969 
z
" style="fill: #e69f00; opacity: 0.75"/>
    </g>
    <g id="text_18">
     <!-- Static (median=42837 ms) -->
     <g transform="translate(185.406563 81.957969) scale(0.1 -0.1)">
      <defs>
       <path id="DejaVuSans-36" d="M 3425 4513 
L 3425 3897 
Q 3066 4069 2747 4153 
Q 2428 4238 2131 4238 
Q 1616 4238 1336 4038 
Q 1056 3838 1056 3469 
Q 1056 3159 1242 3001 
Q 1428 2844 1947 2747 
L 2328 2669 
Q 3034 2534 3370 2195 
Q 3706 1856 3706 1288 
Q 3706 609 3251 259 
Q 2797 -91 1919 -91 
Q 1588 -91 1214 -16 
Q 841 59 441 206 
L 441 856 
Q 825 641 1194 531 
Q 1563 422 1919 422 
Q 2459 422 2753 634 
Q 3047 847 3047 1241 
Q 3047 1584 2836 1778 
Q 2625 1972 2144 2069 
L 1759 2144 
Q 1053 2284 737 2584 
Q 422 2884 422 3419 
Q 422 4038 858 4394 
Q 1294 4750 2059 4750 
Q 2388 4750 2728 4690 
Q 3069 4631 3425 4513 
z
" transform="scale(0.015625)"/>
       <path id="DejaVuSans-44" d="M 2194 1759 
Q 1497 1759 1228 1600 
Q 959 1441 959 1056 
Q 959 750 1161 570 
Q 1363 391 1709 391 
Q 2188 391 2477 730 
Q 2766 1069 2766 1631 
L 2766 1759 
L 2194 1759 
z
M 3341 1997 
L 3341 0 
L 2766 0 
L 2766 531 
Q 2569 213 2275 61 
Q 1981 -91 1556 -91 
Q 1019 -91 701 211 
Q 384 513 384 1019 
Q 384 1609 779 1909 
Q 1175 2209 1959 2209 
L 2766 2209 
L 2766 2266 
Q 2766 2663 2505 2880 
Q 2244 3097 1772 3097 
Q 1472 3097 1187 3025 
Q 903 2953 641 2809 
L 641 3341 
Q 956 3463 1253 3523 
Q 1550 3584 1831 3584 
Q 2591 3584 2966 3190 
Q 3341 2797 3341 1997 
z
" transform="scale(0.015625)"/>
       <path id="DejaVuSans-47" d="M 2906 2969 
L 2906 4863 
L 3481 4863 
L 3481 0 
L 2906 0 
L 2906 525 
Q 2725 213 2448 61 
Q 2172 -91 1784 -91 
Q 1150 -91 751 415 
Q 353 922 353 1747 
Q 353 2572 751 3078 
Q 1150 3584 1784 3584 
Q 2172 3584 2448 3432 
Q 2725 3281 2906 2969 
z
M 947 1747 
Q 947 1113 1208 752 
Q 1469 391 1925 391 
Q 2381 391 2643 752 
Q 2906 1113 2906 1747 
Q 2906 2381 2643 2742 
Q 2381 3103 1925 3103 
Q 1469 3103 1208 2742 
Q 947 2381 947 1747 
z
" transform="scale(0.015625)"/>
       <path id="DejaVuSans-20" d="M 678 2906 
L 4684 2906 
L 4684 2381 
L 678 2381 
L 678 2906 
z
M 678 1631 
L 4684 1631 
L 4684 1100 
L 678 1100 
L 678 1631 
z
" transform="scale(0.015625)"/>
       <path id="DejaVuSans-16" d="M 2597 2516 
Q 3050 2419 3304 2112 
Q 3559 1806 3559 1356 
Q 3559 666 3084 287 
Q 2609 -91 1734 -91 
Q 1441 -91 1130 -33 
Q 819 25 488 141 
L 488 750 
Q 750 597 1062 519 
Q 1375 441 1716 441 
Q 2309 441 2620 675 
Q 2931 909 2931 1356 
Q 2931 1769 2642 2001 
Q 2353 2234 1838 2234 
L 1294 2234 
L 1294 2753 
L 1863 2753 
Q 2328 2753 2575 2939 
Q 2822 3125 2822 3475 
Q 2822 3834 2567 4026 
Q 2313 4219 1838 4219 
Q 1578 4219 1281 4162 
Q 984 4106 628 3988 
L 628 4550 
Q 988 4650 1302 4700 
Q 1616 4750 1894 4750 
Q 2613 4750 3031 4423 
Q 3450 4097 3450 3541 
Q 3450 3153 3228 2886 
Q 3006 2619 2597 2516 
z
" transform="scale(0.015625)"/>
      </defs>
      <use xlink:href="#DejaVuSans-36"/>
      <use xlink:href="#DejaVuSans-57" transform="translate(63.484375 0)"/>
      <use xlink:href="#DejaVuSans-44" transform="translate(102.6875 0)"/>
      <use xlink:href="#DejaVuSans-57" transform="translate(163.96875 0)"/>
      <use xlink:href="#DejaVuSans-4c" transform="translate(203.171875 0)"/>
      <use xlink:href="#DejaVuSans-46" transform="translate(230.953125 0)"/>
      <use xlink:href="#DejaVuSans-3" transform="translate(285.9375 0)"/>
      <use xlink:href="#DejaVuSans-b" transform="translate(317.71875 0)"/>
      <use xlink:href="#DejaVuSans-50" transform="translate(356.734375 0)"/>
      <use xlink:href="#DejaVuSans-48" transform="translate(454.140625 0)"/>
      <use xlink:href="#DejaVuSans-47" transform="translate(515.671875 0)"/>
      <use xlink:href="#DejaVuSans-4c" transform="translate(579.15625 0)"/>
      <use xlink:href="#DejaVuSans-44" transform="translate(606.9375 0)"/>
      <use xlink:href="#DejaVuSans-51" transform="translate(668.21875 0)"/>
      <use xlink:href="#DejaVuSans-20" transform="translate(731.59375 0)"/>
      <use xlink:href="#DejaVuSans-17" transform="translate(815.390625 0)"/>
      <use xlink:href="#DejaVuSans-15" transform="translate(879.015625 0)"/>
      <use xlink:href="#DejaVuSans-1b" transform="translate(942.640625 0)"/>
      <use xlink:href="#DejaVuSans-16" transform="translate(1006.265625 0)"/>
      <use xlink:href="#DejaVuSans-1a" transform="translate(1069.890625 0)"/>
      <use xlink:href="#DejaVuSans-3" transform="translate(1133.515625 0)"/>
      <use xlink:href="#DejaVuSans-50" transform="translate(1165.296875 0)"/>
      <use xlink:href="#DejaVuSans-56" transform="translate(1262.703125 0)"/>
      <use xlink:href="#DejaVuSans-c" transform="translate(1314.796875 0)"/>
     </g>
    </g>
    <g id="patch_65">
     <path d="M 157.406563 96.95875 
L 177.406563 96.95875 
L 177.406563 89.95875 
L 157.406563 89.95875 
z
" style="fill: #009e73; opacity: 0.75"/>
    </g>
    <g id="text_19">
     <!-- Continuous (median=12744 ms) -->
     <g transform="translate(185.406563 96.95875) scale(0.1 -0.1)">
      <defs>
       <path id="DejaVuSans-26" d="M 4122 4306 
L 4122 3641 
Q 3803 3938 3442 4084 
Q 3081 4231 2675 4231 
Q 1875 4231 1450 3742 
Q 1025 3253 1025 2328 
Q 1025 1406 1450 917 
Q 1875 428 2675 428 
Q 3081 428 3442 575 
Q 3803 722 4122 1019 
L 4122 359 
Q 3791 134 3420 21 
Q 3050 -91 2638 -91 
Q 1578 -91 968 557 
Q 359 1206 359 2328 
Q 359 3453 968 4101 
Q 1578 4750 2638 4750 
Q 3056 4750 3426 4639 
Q 3797 4528 4122 4306 
z
" transform="scale(0.015625)"/>
      </defs>
      <use xlink:href="#DejaVuSans-26"/>
      <use xlink:href="#DejaVuSans-52" transform="translate(69.828125 0)"/>
      <use xlink:href="#DejaVuSans-51" transform="translate(131.015625 0)"/>
      <use xlink:href="#DejaVuSans-57" transform="translate(194.390625 0)"/>
      <use xlink:href="#DejaVuSans-4c" transform="translate(233.59375 0)"/>
      <use xlink:href="#DejaVuSans-51" transform="translate(261.375 0)"/>
      <use xlink:href="#DejaVuSans-58" transform="translate(324.75 0)"/>
      <use xlink:href="#DejaVuSans-52" transform="translate(388.125 0)"/>
      <use xlink:href="#DejaVuSans-58" transform="translate(449.3125 0)"/>
      <use xlink:href="#DejaVuSans-56" transform="translate(512.6875 0)"/>
      <use xlink:href="#DejaVuSans-3" transform="translate(564.78125 0)"/>
      <use xlink:href="#DejaVuSans-b" transform="translate(596.5625 0)"/>
      <use xlink:href="#DejaVuSans-50" transform="translate(635.578125 0)"/>
      <use xlink:href="#DejaVuSans-48" transform="translate(732.984375 0)"/>
      <use xlink:href="#DejaVuSans-47" transform="translate(794.515625 0)"/>
      <use xlink:href="#DejaVuSans-4c" transform="translate(858 0)"/>
      <use xlink:href="#DejaVuSans-44" transform="translate(885.78125 0)"/>
      <use xlink:href="#DejaVuSans-51" transform="translate(947.0625 0)"/>
      <use xlink:href="#DejaVuSans-20" transform="translate(1010.4375 0)"/>
      <use xlink:href="#DejaVuSans-14" transform="translate(1094.234375 0)"/>
      <use xlink:href="#DejaVuSans-15" transform="translate(1157.859375 0)"/>
      <use xlink:href="#DejaVuSans-1a" transform="translate(1221.484375 0)"/>
      <use xlink:href="#DejaVuSans-17" transform="translate(1285.109375 0)"/>
      <use xlink:href="#DejaVuSans-17" transform="translate(1348.734375 0)"/>
      <use xlink:href="#DejaVuSans-3" transform="translate(1412.359375 0)"/>
      <use xlink:href="#DejaVuSans-50" transform="translate(1444.140625 0)"/>
      <use xlink:href="#DejaVuSans-56" transform="translate(1541.546875 0)"/>
      <use xlink:href="#DejaVuSans-c" transform="translate(1593.640625 0)"/>
     </g>
    </g>
   </g>
  </g>
  <g id="axes_2">
   <g id="patch_66">
    <path d="M 400.252187 288.06 
L 702.732188 288.06 
L 702.732188 65.359531 
L 400.252187 65.359531 
z
" style="fill: #ffffff"/>
   </g>
   <g id="matplotlib.axis_3">
    <g id="xtick_6">
     <g id="line2d_29">
      <path d="M 414.001278 288.06 
L 414.001278 65.359531 
" clip-path="url(#pafe62ee87f)" style="fill: none; stroke-dasharray: 2.22,0.96; stroke-dashoffset: 0; stroke: #b0b0b0; stroke-opacity: 0.4; stroke-width: 0.6"/>
     </g>
     <g id="line2d_30">
      <g>
       <use xlink:href="#m6f4fe0b942" x="414.001278" y="288.06" style="stroke: #000000; stroke-width: 0.8"/>
      </g>
     </g>
     <g id="text_20">
      <!-- 0 -->
      <g transform="translate(410.501903 303.917422) scale(0.11 -0.11)">
       <use xlink:href="#DejaVuSans-13"/>
      </g>
     </g>
    </g>
    <g id="xtick_7">
     <g id="line2d_31">
      <path d="M 454.673046 288.06 
L 454.673046 65.359531 
" clip-path="url(#pafe62ee87f)" style="fill: none; stroke-dasharray: 2.22,0.96; stroke-dashoffset: 0; stroke: #b0b0b0; stroke-opacity: 0.4; stroke-width: 0.6"/>
     </g>
     <g id="line2d_32">
      <g>
       <use xlink:href="#m6f4fe0b942" x="454.673046" y="288.06" style="stroke: #000000; stroke-width: 0.8"/>
      </g>
     </g>
     <g id="text_21">
      <!-- 1000 -->
      <g transform="translate(440.675546 303.917422) scale(0.11 -0.11)">
       <use xlink:href="#DejaVuSans-14"/>
       <use xlink:href="#DejaVuSans-13" transform="translate(63.625 0)"/>
       <use xlink:href="#DejaVuSans-13" transform="translate(127.25 0)"/>
       <use xlink:href="#DejaVuSans-13" transform="translate(190.875 0)"/>
      </g>
     </g>
    </g>
    <g id="xtick_8">
     <g id="line2d_33">
      <path d="M 495.344813 288.06 
L 495.344813 65.359531 
" clip-path="url(#pafe62ee87f)" style="fill: none; stroke-dasharray: 2.22,0.96; stroke-dashoffset: 0; stroke: #b0b0b0; stroke-opacity: 0.4; stroke-width: 0.6"/>
     </g>
     <g id="line2d_34">
      <g>
       <use xlink:href="#m6f4fe0b942" x="495.344813" y="288.06" style="stroke: #000000; stroke-width: 0.8"/>
      </g>
     </g>
     <g id="text_22">
      <!-- 2000 -->
      <g transform="translate(481.347313 303.917422) scale(0.11 -0.11)">
       <use xlink:href="#DejaVuSans-15"/>
       <use xlink:href="#DejaVuSans-13" transform="translate(63.625 0)"/>
       <use xlink:href="#DejaVuSans-13" transform="translate(127.25 0)"/>
       <use xlink:href="#DejaVuSans-13" transform="translate(190.875 0)"/>
      </g>
     </g>
    </g>
    <g id="xtick_9">
     <g id="line2d_35">
      <path d="M 536.01658 288.06 
L 536.01658 65.359531 
" clip-path="url(#pafe62ee87f)" style="fill: none; stroke-dasharray: 2.22,0.96; stroke-dashoffset: 0; stroke: #b0b0b0; stroke-opacity: 0.4; stroke-width: 0.6"/>
     </g>
     <g id="line2d_36">
      <g>
       <use xlink:href="#m6f4fe0b942" x="536.01658" y="288.06" style="stroke: #000000; stroke-width: 0.8"/>
      </g>
     </g>
     <g id="text_23">
      <!-- 3000 -->
      <g transform="translate(522.01908 303.917422) scale(0.11 -0.11)">
       <use xlink:href="#DejaVuSans-16"/>
       <use xlink:href="#DejaVuSans-13" transform="translate(63.625 0)"/>
       <use xlink:href="#DejaVuSans-13" transform="translate(127.25 0)"/>
       <use xlink:href="#DejaVuSans-13" transform="translate(190.875 0)"/>
      </g>
     </g>
    </g>
    <g id="xtick_10">
     <g id="line2d_37">
      <path d="M 576.688347 288.06 
L 576.688347 65.359531 
" clip-path="url(#pafe62ee87f)" style="fill: none; stroke-dasharray: 2.22,0.96; stroke-dashoffset: 0; stroke: #b0b0b0; stroke-opacity: 0.4; stroke-width: 0.6"/>
     </g>
     <g id="line2d_38">
      <g>
       <use xlink:href="#m6f4fe0b942" x="576.688347" y="288.06" style="stroke: #000000; stroke-width: 0.8"/>
      </g>
     </g>
     <g id="text_24">
      <!-- 4000 -->
      <g transform="translate(562.690847 303.917422) scale(0.11 -0.11)">
       <use xlink:href="#DejaVuSans-17"/>
       <use xlink:href="#DejaVuSans-13" transform="translate(63.625 0)"/>
       <use xlink:href="#DejaVuSans-13" transform="translate(127.25 0)"/>
       <use xlink:href="#DejaVuSans-13" transform="translate(190.875 0)"/>
      </g>
     </g>
    </g>
    <g id="xtick_11">
     <g id="line2d_39">
      <path d="M 617.360115 288.06 
L 617.360115 65.359531 
" clip-path="url(#pafe62ee87f)" style="fill: none; stroke-dasharray: 2.22,0.96; stroke-dashoffset: 0; stroke: #b0b0b0; stroke-opacity: 0.4; stroke-width: 0.6"/>
     </g>
     <g id="line2d_40">
      <g>
       <use xlink:href="#m6f4fe0b942" x="617.360115" y="288.06" style="stroke: #000000; stroke-width: 0.8"/>
      </g>
     </g>
     <g id="text_25">
      <!-- 5000 -->
      <g transform="translate(603.362615 303.917422) scale(0.11 -0.11)">
       <use xlink:href="#DejaVuSans-18"/>
       <use xlink:href="#DejaVuSans-13" transform="translate(63.625 0)"/>
       <use xlink:href="#DejaVuSans-13" transform="translate(127.25 0)"/>
       <use xlink:href="#DejaVuSans-13" transform="translate(190.875 0)"/>
      </g>
     </g>
    </g>
    <g id="xtick_12">
     <g id="line2d_41">
      <path d="M 658.031882 288.06 
L 658.031882 65.359531 
" clip-path="url(#pafe62ee87f)" style="fill: none; stroke-dasharray: 2.22,0.96; stroke-dashoffset: 0; stroke: #b0b0b0; stroke-opacity: 0.4; stroke-width: 0.6"/>
     </g>
     <g id="line2d_42">
      <g>
       <use xlink:href="#m6f4fe0b942" x="658.031882" y="288.06" style="stroke: #000000; stroke-width: 0.8"/>
      </g>
     </g>
     <g id="text_26">
      <!-- 6000 -->
      <g transform="translate(644.034382 303.917422) scale(0.11 -0.11)">
       <use xlink:href="#DejaVuSans-19"/>
       <use xlink:href="#DejaVuSans-13" transform="translate(63.625 0)"/>
       <use xlink:href="#DejaVuSans-13" transform="translate(127.25 0)"/>
       <use xlink:href="#DejaVuSans-13" transform="translate(190.875 0)"/>
      </g>
     </g>
    </g>
    <g id="xtick_13">
     <g id="line2d_43">
      <path d="M 698.703649 288.06 
L 698.703649 65.359531 
" clip-path="url(#pafe62ee87f)" style="fill: none; stroke-dasharray: 2.22,0.96; stroke-dashoffset: 0; stroke: #b0b0b0; stroke-opacity: 0.4; stroke-width: 0.6"/>
     </g>
     <g id="line2d_44">
      <g>
       <use xlink:href="#m6f4fe0b942" x="698.703649" y="288.06" style="stroke: #000000; stroke-width: 0.8"/>
      </g>
     </g>
     <g id="text_27">
      <!-- 7000 -->
      <g transform="translate(684.706149 303.917422) scale(0.11 -0.11)">
       <use xlink:href="#DejaVuSans-1a"/>
       <use xlink:href="#DejaVuSans-13" transform="translate(63.625 0)"/>
       <use xlink:href="#DejaVuSans-13" transform="translate(127.25 0)"/>
       <use xlink:href="#DejaVuSans-13" transform="translate(190.875 0)"/>
      </g>
     </g>
    </g>
    <g id="text_28">
     <!-- Decode step -->
     <g transform="translate(513.823437 319.678125) scale(0.12 -0.12)">
      <defs>
       <path id="DejaVuSans-53" d="M 1159 525 
L 1159 -1331 
L 581 -1331 
L 581 3500 
L 1159 3500 
L 1159 2969 
Q 1341 3281 1617 3432 
Q 1894 3584 2278 3584 
Q 2916 3584 3314 3078 
Q 3713 2572 3713 1747 
Q 3713 922 3314 415 
Q 2916 -91 2278 -91 
Q 1894 -91 1617 61 
Q 1341 213 1159 525 
z
M 3116 1747 
Q 3116 2381 2855 2742 
Q 2594 3103 2138 3103 
Q 1681 3103 1420 2742 
Q 1159 2381 1159 1747 
Q 1159 1113 1420 752 
Q 1681 391 2138 391 
Q 2594 391 2855 752 
Q 3116 1113 3116 1747 
z
" transform="scale(0.015625)"/>
      </defs>
      <use xlink:href="#DejaVuSans-27"/>
      <use xlink:href="#DejaVuSans-48" transform="translate(77 0)"/>
      <use xlink:href="#DejaVuSans-46" transform="translate(138.53125 0)"/>
      <use xlink:href="#DejaVuSans-52" transform="translate(193.515625 0)"/>
      <use xlink:href="#DejaVuSans-47" transform="translate(254.703125 0)"/>
      <use xlink:href="#DejaVuSans-48" transform="translate(318.1875 0)"/>
      <use xlink:href="#DejaVuSans-3" transform="translate(379.71875 0)"/>
      <use xlink:href="#DejaVuSans-56" transform="translate(411.5 0)"/>
      <use xlink:href="#DejaVuSans-57" transform="translate(463.59375 0)"/>
      <use xlink:href="#DejaVuSans-48" transform="translate(502.796875 0)"/>
      <use xlink:href="#DejaVuSans-53" transform="translate(564.328125 0)"/>
     </g>
    </g>
   </g>
   <g id="matplotlib.axis_4">
    <g id="ytick_10">
     <g id="line2d_45">
      <path d="M 400.252187 288.06 
L 702.732188 288.06 
" clip-path="url(#pafe62ee87f)" style="fill: none; stroke-dasharray: 2.22,0.96; stroke-dashoffset: 0; stroke: #b0b0b0; stroke-opacity: 0.4; stroke-width: 0.6"/>
     </g>
     <g id="line2d_46">
      <g>
       <use xlink:href="#m0ab62b1ed0" x="400.252187" y="288.06" style="stroke: #000000; stroke-width: 0.8"/>
      </g>
     </g>
     <g id="text_29">
      <!-- 0 -->
      <g transform="translate(385.753437 292.238711) scale(0.11 -0.11)">
       <use xlink:href="#DejaVuSans-13"/>
      </g>
     </g>
    </g>
    <g id="ytick_11">
     <g id="line2d_47">
      <path d="M 400.252187 263.315503 
L 702.732188 263.315503 
" clip-path="url(#pafe62ee87f)" style="fill: none; stroke-dasharray: 2.22,0.96; stroke-dashoffset: 0; stroke: #b0b0b0; stroke-opacity: 0.4; stroke-width: 0.6"/>
     </g>
     <g id="line2d_48">
      <g>
       <use xlink:href="#m0ab62b1ed0" x="400.252187" y="263.315503" style="stroke: #000000; stroke-width: 0.8"/>
      </g>
     </g>
     <g id="text_30">
      <!-- 1 -->
      <g transform="translate(385.753437 267.494214) scale(0.11 -0.11)">
       <use xlink:href="#DejaVuSans-14"/>
      </g>
     </g>
    </g>
    <g id="ytick_12">
     <g id="line2d_49">
      <path d="M 400.252187 238.571007 
L 702.732188 238.571007 
" clip-path="url(#pafe62ee87f)" style="fill: none; stroke-dasharray: 2.22,0.96; stroke-dashoffset: 0; stroke: #b0b0b0; stroke-opacity: 0.4; stroke-width: 0.6"/>
     </g>
     <g id="line2d_50">
      <g>
       <use xlink:href="#m0ab62b1ed0" x="400.252187" y="238.571007" style="stroke: #000000; stroke-width: 0.8"/>
      </g>
     </g>
     <g id="text_31">
      <!-- 2 -->
      <g transform="translate(385.753437 242.749718) scale(0.11 -0.11)">
       <use xlink:href="#DejaVuSans-15"/>
      </g>
     </g>
    </g>
    <g id="ytick_13">
     <g id="line2d_51">
      <path d="M 400.252187 213.82651 
L 702.732188 213.82651 
" clip-path="url(#pafe62ee87f)" style="fill: none; stroke-dasharray: 2.22,0.96; stroke-dashoffset: 0; stroke: #b0b0b0; stroke-opacity: 0.4; stroke-width: 0.6"/>
     </g>
     <g id="line2d_52">
      <g>
       <use xlink:href="#m0ab62b1ed0" x="400.252187" y="213.82651" style="stroke: #000000; stroke-width: 0.8"/>
      </g>
     </g>
     <g id="text_32">
      <!-- 3 -->
      <g transform="translate(385.753437 218.005221) scale(0.11 -0.11)">
       <use xlink:href="#DejaVuSans-16"/>
      </g>
     </g>
    </g>
    <g id="ytick_14">
     <g id="line2d_53">
      <path d="M 400.252187 189.082014 
L 702.732188 189.082014 
" clip-path="url(#pafe62ee87f)" style="fill: none; stroke-dasharray: 2.22,0.96; stroke-dashoffset: 0; stroke: #b0b0b0; stroke-opacity: 0.4; stroke-width: 0.6"/>
     </g>
     <g id="line2d_54">
      <g>
       <use xlink:href="#m0ab62b1ed0" x="400.252187" y="189.082014" style="stroke: #000000; stroke-width: 0.8"/>
      </g>
     </g>
     <g id="text_33">
      <!-- 4 -->
      <g transform="translate(385.753437 193.260725) scale(0.11 -0.11)">
       <use xlink:href="#DejaVuSans-17"/>
      </g>
     </g>
    </g>
    <g id="ytick_15">
     <g id="line2d_55">
      <path d="M 400.252187 164.337517 
L 702.732188 164.337517 
" clip-path="url(#pafe62ee87f)" style="fill: none; stroke-dasharray: 2.22,0.96; stroke-dashoffset: 0; stroke: #b0b0b0; stroke-opacity: 0.4; stroke-width: 0.6"/>
     </g>
     <g id="line2d_56">
      <g>
       <use xlink:href="#m0ab62b1ed0" x="400.252187" y="164.337517" style="stroke: #000000; stroke-width: 0.8"/>
      </g>
     </g>
     <g id="text_34">
      <!-- 5 -->
      <g transform="translate(385.753437 168.516228) scale(0.11 -0.11)">
       <use xlink:href="#DejaVuSans-18"/>
      </g>
     </g>
    </g>
    <g id="ytick_16">
     <g id="line2d_57">
      <path d="M 400.252187 139.593021 
L 702.732188 139.593021 
" clip-path="url(#pafe62ee87f)" style="fill: none; stroke-dasharray: 2.22,0.96; stroke-dashoffset: 0; stroke: #b0b0b0; stroke-opacity: 0.4; stroke-width: 0.6"/>
     </g>
     <g id="line2d_58">
      <g>
       <use xlink:href="#m0ab62b1ed0" x="400.252187" y="139.593021" style="stroke: #000000; stroke-width: 0.8"/>
      </g>
     </g>
     <g id="text_35">
      <!-- 6 -->
      <g transform="translate(385.753437 143.771732) scale(0.11 -0.11)">
       <use xlink:href="#DejaVuSans-19"/>
      </g>
     </g>
    </g>
    <g id="ytick_17">
     <g id="line2d_59">
      <path d="M 400.252187 114.848524 
L 702.732188 114.848524 
" clip-path="url(#pafe62ee87f)" style="fill: none; stroke-dasharray: 2.22,0.96; stroke-dashoffset: 0; stroke: #b0b0b0; stroke-opacity: 0.4; stroke-width: 0.6"/>
     </g>
     <g id="line2d_60">
      <g>
       <use xlink:href="#m0ab62b1ed0" x="400.252187" y="114.848524" style="stroke: #000000; stroke-width: 0.8"/>
      </g>
     </g>
     <g id="text_36">
      <!-- 7 -->
      <g transform="translate(385.753437 119.027235) scale(0.11 -0.11)">
       <use xlink:href="#DejaVuSans-1a"/>
      </g>
     </g>
    </g>
    <g id="ytick_18">
     <g id="line2d_61">
      <path d="M 400.252187 90.104028 
L 702.732188 90.104028 
" clip-path="url(#pafe62ee87f)" style="fill: none; stroke-dasharray: 2.22,0.96; stroke-dashoffset: 0; stroke: #b0b0b0; stroke-opacity: 0.4; stroke-width: 0.6"/>
     </g>
     <g id="line2d_62">
      <g>
       <use xlink:href="#m0ab62b1ed0" x="400.252187" y="90.104028" style="stroke: #000000; stroke-width: 0.8"/>
      </g>
     </g>
     <g id="text_37">
      <!-- 8 -->
      <g transform="translate(385.753437 94.282739) scale(0.11 -0.11)">
       <use xlink:href="#DejaVuSans-1b"/>
      </g>
     </g>
    </g>
    <g id="ytick_19">
     <g id="line2d_63">
      <path d="M 400.252187 65.359531 
L 702.732188 65.359531 
" clip-path="url(#pafe62ee87f)" style="fill: none; stroke-dasharray: 2.22,0.96; stroke-dashoffset: 0; stroke: #b0b0b0; stroke-opacity: 0.4; stroke-width: 0.6"/>
     </g>
     <g id="line2d_64">
      <g>
       <use xlink:href="#m0ab62b1ed0" x="400.252187" y="65.359531" style="stroke: #000000; stroke-width: 0.8"/>
      </g>
     </g>
     <g id="text_38">
      <!-- 9 -->
      <g transform="translate(385.753437 69.538242) scale(0.11 -0.11)">
       <defs>
        <path id="DejaVuSans-1c" d="M 703 97 
L 703 672 
Q 941 559 1184 500 
Q 1428 441 1663 441 
Q 2288 441 2617 861 
Q 2947 1281 2994 2138 
Q 2813 1869 2534 1725 
Q 2256 1581 1919 1581 
Q 1219 1581 811 2004 
Q 403 2428 403 3163 
Q 403 3881 828 4315 
Q 1253 4750 1959 4750 
Q 2769 4750 3195 4129 
Q 3622 3509 3622 2328 
Q 3622 1225 3098 567 
Q 2575 -91 1691 -91 
Q 1453 -91 1209 -44 
Q 966 3 703 97 
z
M 1959 2075 
Q 2384 2075 2632 2365 
Q 2881 2656 2881 3163 
Q 2881 3666 2632 3958 
Q 2384 4250 1959 4250 
Q 1534 4250 1286 3958 
Q 1038 3666 1038 3163 
Q 1038 2656 1286 2365 
Q 1534 2075 1959 2075 
z
" transform="scale(0.015625)"/>
       </defs>
       <use xlink:href="#DejaVuSans-1c"/>
      </g>
     </g>
    </g>
    <g id="text_39">
     <!-- Active sequences (utilization proxy) -->
     <g transform="translate(378.870625 283.919453) rotate(-90) scale(0.12 -0.12)">
      <defs>
       <path id="DejaVuSans-24" d="M 2188 4044 
L 1331 1722 
L 3047 1722 
L 2188 4044 
z
M 1831 4666 
L 2547 4666 
L 4325 0 
L 3669 0 
L 3244 1197 
L 1141 1197 
L 716 0 
L 50 0 
L 1831 4666 
z
" transform="scale(0.015625)"/>
       <path id="DejaVuSans-59" d="M 191 3500 
L 800 3500 
L 1894 563 
L 2988 3500 
L 3597 3500 
L 2284 0 
L 1503 0 
L 191 3500 
z
" transform="scale(0.015625)"/>
       <path id="DejaVuSans-4f" d="M 603 4863 
L 1178 4863 
L 1178 0 
L 603 0 
L 603 4863 
z
" transform="scale(0.015625)"/>
       <path id="DejaVuSans-5d" d="M 353 3500 
L 3084 3500 
L 3084 2975 
L 922 459 
L 3084 459 
L 3084 0 
L 275 0 
L 275 525 
L 2438 3041 
L 353 3041 
L 353 3500 
z
" transform="scale(0.015625)"/>
       <path id="DejaVuSans-5b" d="M 3513 3500 
L 2247 1797 
L 3578 0 
L 2900 0 
L 1881 1375 
L 863 0 
L 184 0 
L 1544 1831 
L 300 3500 
L 978 3500 
L 1906 2253 
L 2834 3500 
L 3513 3500 
z
" transform="scale(0.015625)"/>
       <path id="DejaVuSans-5c" d="M 2059 -325 
Q 1816 -950 1584 -1140 
Q 1353 -1331 966 -1331 
L 506 -1331 
L 506 -850 
L 844 -850 
Q 1081 -850 1212 -737 
Q 1344 -625 1503 -206 
L 1606 56 
L 191 3500 
L 800 3500 
L 1894 763 
L 2988 3500 
L 3597 3500 
L 2059 -325 
z
" transform="scale(0.015625)"/>
      </defs>
      <use xlink:href="#DejaVuSans-24"/>
      <use xlink:href="#DejaVuSans-46" transform="translate(66.65625 0)"/>
      <use xlink:href="#DejaVuSans-57" transform="translate(121.640625 0)"/>
      <use xlink:href="#DejaVuSans-4c" transform="translate(160.84375 0)"/>
      <use xlink:href="#DejaVuSans-59" transform="translate(188.625 0)"/>
      <use xlink:href="#DejaVuSans-48" transform="translate(247.8125 0)"/>
      <use xlink:href="#DejaVuSans-3" transform="translate(309.34375 0)"/>
      <use xlink:href="#DejaVuSans-56" transform="translate(341.125 0)"/>
      <use xlink:href="#DejaVuSans-48" transform="translate(393.21875 0)"/>
      <use xlink:href="#DejaVuSans-54" transform="translate(454.75 0)"/>
      <use xlink:href="#DejaVuSans-58" transform="translate(518.234375 0)"/>
      <use xlink:href="#DejaVuSans-48" transform="translate(581.609375 0)"/>
      <use xlink:href="#DejaVuSans-51" transform="translate(643.140625 0)"/>
      <use xlink:href="#DejaVuSans-46" transform="translate(706.515625 0)"/>
      <use xlink:href="#DejaVuSans-48" transform="translate(761.5 0)"/>
      <use xlink:href="#DejaVuSans-56" transform="translate(823.03125 0)"/>
      <use xlink:href="#DejaVuSans-3" transform="translate(875.125 0)"/>
      <use xlink:href="#DejaVuSans-b" transform="translate(906.90625 0)"/>
      <use xlink:href="#DejaVuSans-58" transform="translate(945.921875 0)"/>
      <use xlink:href="#DejaVuSans-57" transform="translate(1009.296875 0)"/>
      <use xlink:href="#DejaVuSans-4c" transform="translate(1048.5 0)"/>
      <use xlink:href="#DejaVuSans-4f" transform="translate(1076.28125 0)"/>
      <use xlink:href="#DejaVuSans-4c" transform="translate(1104.0625 0)"/>
      <use xlink:href="#DejaVuSans-5d" transform="translate(1131.84375 0)"/>
      <use xlink:href="#DejaVuSans-44" transform="translate(1184.328125 0)"/>
      <use xlink:href="#DejaVuSans-57" transform="translate(1245.609375 0)"/>
      <use xlink:href="#DejaVuSans-4c" transform="translate(1284.8125 0)"/>
      <use xlink:href="#DejaVuSans-52" transform="translate(1312.59375 0)"/>
      <use xlink:href="#DejaVuSans-51" transform="translate(1373.78125 0)"/>
      <use xlink:href="#DejaVuSans-3" transform="translate(1437.15625 0)"/>
      <use xlink:href="#DejaVuSans-53" transform="translate(1468.9375 0)"/>
      <use xlink:href="#DejaVuSans-55" transform="translate(1532.421875 0)"/>
      <use xlink:href="#DejaVuSans-52" transform="translate(1571.328125 0)"/>
      <use xlink:href="#DejaVuSans-5b" transform="translate(1629.4375 0)"/>
      <use xlink:href="#DejaVuSans-5c" transform="translate(1688.625 0)"/>
      <use xlink:href="#DejaVuSans-c" transform="translate(1747.8125 0)"/>
     </g>
    </g>
   </g>
   <g id="line2d_65">
    <path d="M 414.001278 90.104028 
L 414.774042 90.104028 
L 415.058744 114.848524 
L 415.668821 114.848524 
L 415.831508 144.54192 
L 416.075539 179.184215 
L 416.360241 223.724309 
L 416.522928 238.571007 
L 416.685615 238.571007 
L 416.970317 263.315503 
L 428.683786 263.315503 
L 428.968489 90.104028 
L 430.83939 90.104028 
L 431.246108 164.337517 
L 437.468888 164.337517 
L 437.75359 189.082014 
L 439.136431 189.082014 
L 439.421133 213.82651 
L 439.868522 213.82651 
L 440.153225 238.571007 
L 444.830478 238.571007 
L 445.11518 263.315503 
L 447.555486 263.315503 
L 447.840189 90.104028 
L 448.409593 90.104028 
L 448.694296 114.848524 
L 448.856983 114.848524 
L 449.345044 164.337517 
L 449.426388 164.337517 
L 449.71109 189.082014 
L 449.833105 189.082014 
L 450.117808 213.82651 
L 450.727884 213.82651 
L 451.012587 238.571007 
L 458.536864 238.571007 
L 458.821566 263.315503 
L 470.738394 263.315503 
L 471.023096 90.104028 
L 471.673844 90.104028 
L 471.958547 114.848524 
L 472.121234 114.848524 
L 472.283921 144.54192 
L 472.446608 164.337517 
L 473.626089 164.337517 
L 473.910792 189.082014 
L 486.112322 189.082014 
L 486.397024 213.82651 
L 488.308597 213.82651 
L 488.593299 238.571007 
L 488.796658 238.571007 
L 489.081361 263.315503 
L 494.938095 263.315503 
L 495.222798 90.104028 
L 496.442951 90.104028 
L 496.727653 114.848524 
L 496.808996 114.848524 
L 497.297058 164.337517 
L 497.337729 164.337517 
L 497.622432 189.082014 
L 497.663104 189.082014 
L 497.947806 213.82651 
L 505.512755 213.82651 
L 505.797457 238.571007 
L 510.637397 238.571007 
L 510.9221 263.315503 
L 515.802712 263.315503 
L 516.087414 90.104028 
L 517.022865 90.104028 
L 517.307567 114.848524 
L 517.59227 114.848524 
L 517.876972 164.337517 
L 518.202346 164.337517 
L 518.487048 189.082014 
L 518.568392 189.082014 
L 518.853094 213.82651 
L 519.015781 213.82651 
L 519.300484 238.571007 
L 526.540058 238.571007 
L 526.824761 263.315503 
L 531.095296 263.315503 
L 531.379999 90.104028 
L 532.11209 90.104028 
L 532.396793 114.848524 
L 532.722167 114.848524 
L 533.210228 164.337517 
L 533.576274 164.337517 
L 533.738961 194.030913 
L 534.023663 238.571007 
L 546.916614 238.571007 
L 547.201316 263.315503 
L 552.36663 263.315503 
L 552.651333 90.104028 
L 553.546112 90.104028 
L 553.830814 139.593021 
L 554.847608 139.593021 
L 555.010295 169.286417 
L 555.172982 189.082014 
L 555.457685 189.082014 
L 555.742387 213.82651 
L 560.622999 213.82651 
L 561.11106 263.315503 
L 565.096894 263.315503 
L 565.381596 90.104028 
L 566.276375 90.104028 
L 566.967795 184.133115 
L 567.293169 238.571007 
L 567.415184 238.571007 
L 567.577871 258.366604 
L 567.903246 90.104028 
L 568.594666 90.104028 
L 568.879368 114.848524 
L 569.204742 114.848524 
L 569.489444 139.593021 
L 569.85549 139.593021 
L 570.140193 164.337517 
L 570.709598 164.337517 
L 570.9943 189.082014 
L 579.657386 189.082014 
L 579.942089 213.82651 
L 580.267463 213.82651 
L 580.552165 238.571007 
L 587.507037 238.571007 
L 587.79174 263.315503 
L 590.964138 263.315503 
L 591.24884 90.104028 
L 592.875711 90.104028 
L 593.038398 119.797424 
L 593.201085 139.593021 
L 593.973848 139.593021 
L 594.258551 164.337517 
L 599.667896 164.337517 
L 599.952598 189.082014 
L 602.840294 189.082014 
L 603.002981 218.77541 
L 603.165668 238.571007 
L 604.304477 238.571007 
L 604.58918 263.315503 
L 613.984358 263.315503 
L 614.26906 90.104028 
L 615.448541 90.104028 
L 615.733244 114.848524 
L 615.855259 114.848524 
L 616.139961 139.593021 
L 616.587351 139.593021 
L 616.872053 164.337517 
L 624.39633 164.337517 
L 624.681033 189.082014 
L 627.121339 189.082014 
L 627.406041 213.82651 
L 628.138133 213.82651 
L 628.422835 238.571007 
L 630.985157 238.571007 
L 631.107172 253.417705 
L 631.432546 90.104028 
L 632.083294 90.104028 
L 632.20531 114.848524 
L 632.408668 139.593021 
L 632.978073 139.593021 
L 633.262775 164.337517 
L 634.116883 164.337517 
L 634.401585 189.082014 
L 643.95945 189.082014 
L 644.244153 213.82651 
L 647.619909 213.82651 
L 647.904612 238.571007 
L 649.328124 238.571007 
L 649.531482 263.315503 
L 649.816185 90.104028 
L 651.07701 90.104028 
L 651.361712 114.848524 
L 651.443055 114.848524 
L 651.809101 169.286417 
L 651.971788 189.082014 
L 652.093804 189.082014 
L 652.378506 213.82651 
L 658.357256 213.82651 
L 658.641958 238.571007 
L 660.309501 238.571007 
L 660.594203 263.315503 
L 673.771856 263.315503 
L 674.056558 90.104028 
L 674.625963 90.104028 
L 674.910665 114.848524 
L 675.317383 114.848524 
L 676.008803 189.082014 
L 676.090146 189.082014 
L 676.252833 218.77541 
L 676.537536 263.315503 
L 688.983097 263.315503 
L 688.983097 263.315503 
" clip-path="url(#pafe62ee87f)" style="fill: none; stroke: #e69f00; stroke-width: 1.2; stroke-linecap: round"/>
   </g>
   <g id="line2d_66">
    <path d="M 414.001278 90.104028 
L 512.711657 90.104028 
L 513.037032 139.593021 
L 513.443749 213.82651 
L 514.745246 213.82651 
L 515.029948 238.571007 
L 521.171385 238.571007 
L 521.456087 263.315503 
L 524.303111 263.315503 
L 524.303111 263.315503 
" clip-path="url(#pafe62ee87f)" style="fill: none; stroke: #009e73; stroke-width: 1.2; stroke-linecap: round"/>
   </g>
   <g id="line2d_67">
    <path d="M 400.252187 90.104028 
L 702.732188 90.104028 
" clip-path="url(#pafe62ee87f)" style="fill: none; stroke-dasharray: 2.96,1.28; stroke-dashoffset: 0; stroke: #555555; stroke-width: 0.8"/>
   </g>
   <g id="patch_67">
    <path d="M 400.252187 288.06 
L 400.252187 65.359531 
" style="fill: none; stroke: #000000; stroke-width: 0.8; stroke-linejoin: miter; stroke-linecap: square"/>
   </g>
   <g id="patch_68">
    <path d="M 400.252187 288.06 
L 702.732188 288.06 
" style="fill: none; stroke: #000000; stroke-width: 0.8; stroke-linejoin: miter; stroke-linecap: square"/>
   </g>
   <g id="patch_69">
    <path d="M 524.042545 207.854066 
Q 515.460525 228.474231 507.308103 248.062193 
" style="fill: none; stroke: #e69f00; stroke-linecap: round"/>
    <path d="M 509.845684 245.868866 
L 507.308103 248.062193 
L 507.07599 244.716132 
" style="fill: none; stroke: #e69f00; stroke-linecap: round"/>
   </g>
   <g id="text_40">
    <!-- idle slots -->
    <g style="fill: #e69f00" transform="translate(508.142606 183.450161) scale(0.075 -0.075)">
     <use xlink:href="#DejaVuSans-4c"/>
     <use xlink:href="#DejaVuSans-47" transform="translate(27.78125 0)"/>
     <use xlink:href="#DejaVuSans-4f" transform="translate(91.265625 0)"/>
     <use xlink:href="#DejaVuSans-48" transform="translate(119.046875 0)"/>
     <use xlink:href="#DejaVuSans-3" transform="translate(180.578125 0)"/>
     <use xlink:href="#DejaVuSans-56" transform="translate(212.359375 0)"/>
     <use xlink:href="#DejaVuSans-4f" transform="translate(264.453125 0)"/>
     <use xlink:href="#DejaVuSans-52" transform="translate(292.234375 0)"/>
     <use xlink:href="#DejaVuSans-57" transform="translate(353.421875 0)"/>
     <use xlink:href="#DejaVuSans-56" transform="translate(392.625 0)"/>
    </g>
    <!-- (waiting for -->
    <g style="fill: #e69f00" transform="translate(508.142606 192.452211) scale(0.075 -0.075)">
     <defs>
      <path id="DejaVuSans-5a" d="M 269 3500 
L 844 3500 
L 1563 769 
L 2278 3500 
L 2956 3500 
L 3675 769 
L 4391 3500 
L 4966 3500 
L 4050 0 
L 3372 0 
L 2619 2869 
L 1863 0 
L 1184 0 
L 269 3500 
z
" transform="scale(0.015625)"/>
      <path id="DejaVuSans-4a" d="M 2906 1791 
Q 2906 2416 2648 2759 
Q 2391 3103 1925 3103 
Q 1463 3103 1205 2759 
Q 947 2416 947 1791 
Q 947 1169 1205 825 
Q 1463 481 1925 481 
Q 2391 481 2648 825 
Q 2906 1169 2906 1791 
z
M 3481 434 
Q 3481 -459 3084 -895 
Q 2688 -1331 1869 -1331 
Q 1566 -1331 1297 -1286 
Q 1028 -1241 775 -1147 
L 775 -588 
Q 1028 -725 1275 -790 
Q 1522 -856 1778 -856 
Q 2344 -856 2625 -561 
Q 2906 -266 2906 331 
L 2906 616 
Q 2728 306 2450 153 
Q 2172 0 1784 0 
Q 1141 0 747 490 
Q 353 981 353 1791 
Q 353 2603 747 3093 
Q 1141 3584 1784 3584 
Q 2172 3584 2450 3431 
Q 2728 3278 2906 2969 
L 2906 3500 
L 3481 3500 
L 3481 434 
z
" transform="scale(0.015625)"/>
      <path id="DejaVuSans-49" d="M 2375 4863 
L 2375 4384 
L 1825 4384 
Q 1516 4384 1395 4259 
Q 1275 4134 1275 3809 
L 1275 3500 
L 2222 3500 
L 2222 3053 
L 1275 3053 
L 1275 0 
L 697 0 
L 697 3053 
L 147 3053 
L 147 3500 
L 697 3500 
L 697 3744 
Q 697 4328 969 4595 
Q 1241 4863 1831 4863 
L 2375 4863 
z
" transform="scale(0.015625)"/>
     </defs>
     <use xlink:href="#DejaVuSans-b"/>
     <use xlink:href="#DejaVuSans-5a" transform="translate(39.015625 0)"/>
     <use xlink:href="#DejaVuSans-44" transform="translate(120.796875 0)"/>
     <use xlink:href="#DejaVuSans-4c" transform="translate(182.078125 0)"/>
     <use xlink:href="#DejaVuSans-57" transform="translate(209.859375 0)"/>
     <use xlink:href="#DejaVuSans-4c" transform="translate(249.0625 0)"/>
     <use xlink:href="#DejaVuSans-51" transform="translate(276.84375 0)"/>
     <use xlink:href="#DejaVuSans-4a" transform="translate(340.21875 0)"/>
     <use xlink:href="#DejaVuSans-3" transform="translate(403.703125 0)"/>
     <use xlink:href="#DejaVuSans-49" transform="translate(435.484375 0)"/>
     <use xlink:href="#DejaVuSans-52" transform="translate(470.6875 0)"/>
     <use xlink:href="#DejaVuSans-55" transform="translate(531.875 0)"/>
    </g>
    <!-- longest seq) -->
    <g style="fill: #e69f00" transform="translate(508.142606 201.454262) scale(0.075 -0.075)">
     <use xlink:href="#DejaVuSans-4f"/>
     <use xlink:href="#DejaVuSans-52" transform="translate(27.78125 0)"/>
     <use xlink:href="#DejaVuSans-51" transform="translate(88.96875 0)"/>
     <use xlink:href="#DejaVuSans-4a" transform="translate(152.34375 0)"/>
     <use xlink:href="#DejaVuSans-48" transform="translate(215.828125 0)"/>
     <use xlink:href="#DejaVuSans-56" transform="translate(277.359375 0)"/>
     <use xlink:href="#DejaVuSans-57" transform="translate(329.453125 0)"/>
     <use xlink:href="#DejaVuSans-3" transform="translate(368.65625 0)"/>
     <use xlink:href="#DejaVuSans-56" transform="translate(400.4375 0)"/>
     <use xlink:href="#DejaVuSans-48" transform="translate(452.53125 0)"/>
     <use xlink:href="#DejaVuSans-54" transform="translate(514.0625 0)"/>
     <use xlink:href="#DejaVuSans-c" transform="translate(577.546875 0)"/>
    </g>
   </g>
   <g id="text_41">
    <!-- Batch Utilization Over Time -->
    <g transform="translate(462.500078 55.359531) scale(0.13 -0.13)">
     <defs>
      <path id="DejaVuSans-25" d="M 1259 2228 
L 1259 519 
L 2272 519 
Q 2781 519 3026 730 
Q 3272 941 3272 1375 
Q 3272 1813 3026 2020 
Q 2781 2228 2272 2228 
L 1259 2228 
z
M 1259 4147 
L 1259 2741 
L 2194 2741 
Q 2656 2741 2882 2914 
Q 3109 3088 3109 3444 
Q 3109 3797 2882 3972 
Q 2656 4147 2194 4147 
L 1259 4147 
z
M 628 4666 
L 2241 4666 
Q 2963 4666 3353 4366 
Q 3744 4066 3744 3513 
Q 3744 3084 3544 2831 
Q 3344 2578 2956 2516 
Q 3422 2416 3680 2098 
Q 3938 1781 3938 1306 
Q 3938 681 3513 340 
Q 3088 0 2303 0 
L 628 0 
L 628 4666 
z
" transform="scale(0.015625)"/>
      <path id="DejaVuSans-4b" d="M 3513 2113 
L 3513 0 
L 2938 0 
L 2938 2094 
Q 2938 2591 2744 2837 
Q 2550 3084 2163 3084 
Q 1697 3084 1428 2787 
Q 1159 2491 1159 1978 
L 1159 0 
L 581 0 
L 581 4863 
L 1159 4863 
L 1159 2956 
Q 1366 3272 1645 3428 
Q 1925 3584 2291 3584 
Q 2894 3584 3203 3211 
Q 3513 2838 3513 2113 
z
" transform="scale(0.015625)"/>
      <path id="DejaVuSans-38" d="M 556 4666 
L 1191 4666 
L 1191 1831 
Q 1191 1081 1462 751 
Q 1734 422 2344 422 
Q 2950 422 3222 751 
Q 3494 1081 3494 1831 
L 3494 4666 
L 4128 4666 
L 4128 1753 
Q 4128 841 3676 375 
Q 3225 -91 2344 -91 
Q 1459 -91 1007 375 
Q 556 841 556 1753 
L 556 4666 
z
" transform="scale(0.015625)"/>
      <path id="DejaVuSans-32" d="M 2522 4238 
Q 1834 4238 1429 3725 
Q 1025 3213 1025 2328 
Q 1025 1447 1429 934 
Q 1834 422 2522 422 
Q 3209 422 3611 934 
Q 4013 1447 4013 2328 
Q 4013 3213 3611 3725 
Q 3209 4238 2522 4238 
z
M 2522 4750 
Q 3503 4750 4090 4092 
Q 4678 3434 4678 2328 
Q 4678 1225 4090 567 
Q 3503 -91 2522 -91 
Q 1538 -91 948 565 
Q 359 1222 359 2328 
Q 359 3434 948 4092 
Q 1538 4750 2522 4750 
z
" transform="scale(0.015625)"/>
     </defs>
     <use xlink:href="#DejaVuSans-25"/>
     <use xlink:href="#DejaVuSans-44" transform="translate(68.609375 0)"/>
     <use xlink:href="#DejaVuSans-57" transform="translate(129.890625 0)"/>
     <use xlink:href="#DejaVuSans-46" transform="translate(169.09375 0)"/>
     <use xlink:href="#DejaVuSans-4b" transform="translate(224.078125 0)"/>
     <use xlink:href="#DejaVuSans-3" transform="translate(287.453125 0)"/>
     <use xlink:href="#DejaVuSans-38" transform="translate(319.234375 0)"/>
     <use xlink:href="#DejaVuSans-57" transform="translate(392.421875 0)"/>
     <use xlink:href="#DejaVuSans-4c" transform="translate(431.625 0)"/>
     <use xlink:href="#DejaVuSans-4f" transform="translate(459.40625 0)"/>
     <use xlink:href="#DejaVuSans-4c" transform="translate(487.1875 0)"/>
     <use xlink:href="#DejaVuSans-5d" transform="translate(514.96875 0)"/>
     <use xlink:href="#DejaVuSans-44" transform="translate(567.453125 0)"/>
     <use xlink:href="#DejaVuSans-57" transform="translate(628.734375 0)"/>
     <use xlink:href="#DejaVuSans-4c" transform="translate(667.9375 0)"/>
     <use xlink:href="#DejaVuSans-52" transform="translate(695.71875 0)"/>
     <use xlink:href="#DejaVuSans-51" transform="translate(756.90625 0)"/>
     <use xlink:href="#DejaVuSans-3" transform="translate(820.28125 0)"/>
     <use xlink:href="#DejaVuSans-32" transform="translate(852.0625 0)"/>
     <use xlink:href="#DejaVuSans-59" transform="translate(930.78125 0)"/>
     <use xlink:href="#DejaVuSans-48" transform="translate(989.96875 0)"/>
     <use xlink:href="#DejaVuSans-55" transform="translate(1051.5 0)"/>
     <use xlink:href="#DejaVuSans-3" transform="translate(1092.609375 0)"/>
     <use xlink:href="#DejaVuSans-37" transform="translate(1124.390625 0)"/>
     <use xlink:href="#DejaVuSans-4c" transform="translate(1182.390625 0)"/>
     <use xlink:href="#DejaVuSans-50" transform="translate(1210.171875 0)"/>
     <use xlink:href="#DejaVuSans-48" transform="translate(1307.578125 0)"/>
    </g>
   </g>
   <g id="legend_2">
    <g id="patch_70">
     <path d="M 588.849687 107.761406 
L 697.132187 107.761406 
Q 698.732188 107.761406 698.732188 106.161406 
L 698.732188 70.959531 
Q 698.732188 69.359531 697.132187 69.359531 
L 588.849687 69.359531 
Q 587.249687 69.359531 587.249687 70.959531 
L 587.249687 106.161406 
Q 587.249687 107.761406 588.849687 107.761406 
z
" style="fill: #ffffff; opacity: 0.85; stroke: #cccccc; stroke-linejoin: miter"/>
    </g>
    <g id="line2d_68">
     <path d="M 590.449687 75.838281 
L 598.449687 75.838281 
L 606.449687 75.838281 
" style="fill: none; stroke: #e69f00; stroke-width: 1.2; stroke-linecap: round"/>
    </g>
    <g id="text_42">
     <!-- Static batching -->
     <g transform="translate(612.849687 78.638281) scale(0.08 -0.08)">
      <use xlink:href="#DejaVuSans-36"/>
      <use xlink:href="#DejaVuSans-57" transform="translate(63.484375 0)"/>
      <use xlink:href="#DejaVuSans-44" transform="translate(102.6875 0)"/>
      <use xlink:href="#DejaVuSans-57" transform="translate(163.96875 0)"/>
      <use xlink:href="#DejaVuSans-4c" transform="translate(203.171875 0)"/>
      <use xlink:href="#DejaVuSans-46" transform="translate(230.953125 0)"/>
      <use xlink:href="#DejaVuSans-3" transform="translate(285.9375 0)"/>
      <use xlink:href="#DejaVuSans-45" transform="translate(317.71875 0)"/>
      <use xlink:href="#DejaVuSans-44" transform="translate(381.203125 0)"/>
      <use xlink:href="#DejaVuSans-57" transform="translate(442.484375 0)"/>
      <use xlink:href="#DejaVuSans-46" transform="translate(481.6875 0)"/>
      <use xlink:href="#DejaVuSans-4b" transform="translate(536.671875 0)"/>
      <use xlink:href="#DejaVuSans-4c" transform="translate(600.046875 0)"/>
      <use xlink:href="#DejaVuSans-51" transform="translate(627.828125 0)"/>
      <use xlink:href="#DejaVuSans-4a" transform="translate(691.203125 0)"/>
     </g>
    </g>
    <g id="line2d_69">
     <path d="M 590.449687 87.838906 
L 598.449687 87.838906 
L 606.449687 87.838906 
" style="fill: none; stroke: #009e73; stroke-width: 1.2; stroke-linecap: round"/>
    </g>
    <g id="text_43">
     <!-- Continuous batching -->
     <g transform="translate(612.849687 90.638906) scale(0.08 -0.08)">
      <use xlink:href="#DejaVuSans-26"/>
      <use xlink:href="#DejaVuSans-52" transform="translate(69.828125 0)"/>
      <use xlink:href="#DejaVuSans-51" transform="translate(131.015625 0)"/>
      <use xlink:href="#DejaVuSans-57" transform="translate(194.390625 0)"/>
      <use xlink:href="#DejaVuSans-4c" transform="translate(233.59375 0)"/>
      <use xlink:href="#DejaVuSans-51" transform="translate(261.375 0)"/>
      <use xlink:href="#DejaVuSans-58" transform="translate(324.75 0)"/>
      <use xlink:href="#DejaVuSans-52" transform="translate(388.125 0)"/>
      <use xlink:href="#DejaVuSans-58" transform="translate(449.3125 0)"/>
      <use xlink:href="#DejaVuSans-56" transform="translate(512.6875 0)"/>
      <use xlink:href="#DejaVuSans-3" transform="translate(564.78125 0)"/>
      <use xlink:href="#DejaVuSans-45" transform="translate(596.5625 0)"/>
      <use xlink:href="#DejaVuSans-44" transform="translate(660.046875 0)"/>
      <use xlink:href="#DejaVuSans-57" transform="translate(721.328125 0)"/>
      <use xlink:href="#DejaVuSans-46" transform="translate(760.53125 0)"/>
      <use xlink:href="#DejaVuSans-4b" transform="translate(815.515625 0)"/>
      <use xlink:href="#DejaVuSans-4c" transform="translate(878.890625 0)"/>
      <use xlink:href="#DejaVuSans-51" transform="translate(906.671875 0)"/>
      <use xlink:href="#DejaVuSans-4a" transform="translate(970.046875 0)"/>
     </g>
    </g>
    <g id="line2d_70">
     <path d="M 590.449687 99.839531 
L 598.449687 99.839531 
L 606.449687 99.839531 
" style="fill: none; stroke-dasharray: 2.96,1.28; stroke-dashoffset: 0; stroke: #555555; stroke-width: 0.8"/>
    </g>
    <g id="text_44">
     <!-- Max batch (8) -->
     <g transform="translate(612.849687 102.639531) scale(0.08 -0.08)">
      <defs>
       <path id="DejaVuSans-30" d="M 628 4666 
L 1569 4666 
L 2759 1491 
L 3956 4666 
L 4897 4666 
L 4897 0 
L 4281 0 
L 4281 4097 
L 3078 897 
L 2444 897 
L 1241 4097 
L 1241 0 
L 628 0 
L 628 4666 
z
" transform="scale(0.015625)"/>
      </defs>
      <use xlink:href="#DejaVuSans-30"/>
      <use xlink:href="#DejaVuSans-44" transform="translate(86.28125 0)"/>
      <use xlink:href="#DejaVuSans-5b" transform="translate(147.5625 0)"/>
      <use xlink:href="#DejaVuSans-3" transform="translate(206.75 0)"/>
      <use xlink:href="#DejaVuSans-45" transform="translate(238.53125 0)"/>
      <use xlink:href="#DejaVuSans-44" transform="translate(302.015625 0)"/>
      <use xlink:href="#DejaVuSans-57" transform="translate(363.296875 0)"/>
      <use xlink:href="#DejaVuSans-46" transform="translate(402.5 0)"/>
      <use xlink:href="#DejaVuSans-4b" transform="translate(457.484375 0)"/>
      <use xlink:href="#DejaVuSans-3" transform="translate(520.859375 0)"/>
      <use xlink:href="#DejaVuSans-b" transform="translate(552.640625 0)"/>
      <use xlink:href="#DejaVuSans-1b" transform="translate(591.65625 0)"/>
      <use xlink:href="#DejaVuSans-c" transform="translate(655.28125 0)"/>
     </g>
    </g>
   </g>
  </g>
  <g id="text_45">
   <!-- Continuous batching: lower TTFT, higher utilization -->
   <g transform="translate(214.436094 15.558281) scale(0.11 -0.11)">
    <defs>
     <path id="DejaVuSans-1d" d="M 750 794 
L 1409 794 
L 1409 0 
L 750 0 
L 750 794 
z
M 750 3309 
L 1409 3309 
L 1409 2516 
L 750 2516 
L 750 3309 
z
" transform="scale(0.015625)"/>
     <path id="DejaVuSans-f" d="M 750 794 
L 1409 794 
L 1409 256 
L 897 -744 
L 494 -744 
L 750 256 
L 750 794 
z
" transform="scale(0.015625)"/>
    </defs>
    <use xlink:href="#DejaVuSans-26"/>
    <use xlink:href="#DejaVuSans-52" transform="translate(69.828125 0)"/>
    <use xlink:href="#DejaVuSans-51" transform="translate(131.015625 0)"/>
    <use xlink:href="#DejaVuSans-57" transform="translate(194.390625 0)"/>
    <use xlink:href="#DejaVuSans-4c" transform="translate(233.59375 0)"/>
    <use xlink:href="#DejaVuSans-51" transform="translate(261.375 0)"/>
    <use xlink:href="#DejaVuSans-58" transform="translate(324.75 0)"/>
    <use xlink:href="#DejaVuSans-52" transform="translate(388.125 0)"/>
    <use xlink:href="#DejaVuSans-58" transform="translate(449.3125 0)"/>
    <use xlink:href="#DejaVuSans-56" transform="translate(512.6875 0)"/>
    <use xlink:href="#DejaVuSans-3" transform="translate(564.78125 0)"/>
    <use xlink:href="#DejaVuSans-45" transform="translate(596.5625 0)"/>
    <use xlink:href="#DejaVuSans-44" transform="translate(660.046875 0)"/>
    <use xlink:href="#DejaVuSans-57" transform="translate(721.328125 0)"/>
    <use xlink:href="#DejaVuSans-46" transform="translate(760.53125 0)"/>
    <use xlink:href="#DejaVuSans-4b" transform="translate(815.515625 0)"/>
    <use xlink:href="#DejaVuSans-4c" transform="translate(878.890625 0)"/>
    <use xlink:href="#DejaVuSans-51" transform="translate(906.671875 0)"/>
    <use xlink:href="#DejaVuSans-4a" transform="translate(970.046875 0)"/>
    <use xlink:href="#DejaVuSans-1d" transform="translate(1033.53125 0)"/>
    <use xlink:href="#DejaVuSans-3" transform="translate(1067.21875 0)"/>
    <use xlink:href="#DejaVuSans-4f" transform="translate(1099 0)"/>
    <use xlink:href="#DejaVuSans-52" transform="translate(1126.78125 0)"/>
    <use xlink:href="#DejaVuSans-5a" transform="translate(1187.96875 0)"/>
    <use xlink:href="#DejaVuSans-48" transform="translate(1269.75 0)"/>
    <use xlink:href="#DejaVuSans-55" transform="translate(1331.28125 0)"/>
    <use xlink:href="#DejaVuSans-3" transform="translate(1372.390625 0)"/>
    <use xlink:href="#DejaVuSans-37" transform="translate(1404.171875 0)"/>
    <use xlink:href="#DejaVuSans-37" transform="translate(1463.5 0)"/>
    <use xlink:href="#DejaVuSans-29" transform="translate(1524.578125 0)"/>
    <use xlink:href="#DejaVuSans-37" transform="translate(1580.34375 0)"/>
    <use xlink:href="#DejaVuSans-f" transform="translate(1641.421875 0)"/>
    <use xlink:href="#DejaVuSans-3" transform="translate(1673.203125 0)"/>
    <use xlink:href="#DejaVuSans-4b" transform="translate(1704.984375 0)"/>
    <use xlink:href="#DejaVuSans-4c" transform="translate(1768.359375 0)"/>
    <use xlink:href="#DejaVuSans-4a" transform="translate(1796.140625 0)"/>
    <use xlink:href="#DejaVuSans-4b" transform="translate(1859.625 0)"/>
    <use xlink:href="#DejaVuSans-48" transform="translate(1923 0)"/>
    <use xlink:href="#DejaVuSans-55" transform="translate(1984.53125 0)"/>
    <use xlink:href="#DejaVuSans-3" transform="translate(2025.640625 0)"/>
    <use xlink:href="#DejaVuSans-58" transform="translate(2057.421875 0)"/>
    <use xlink:href="#DejaVuSans-57" transform="translate(2120.796875 0)"/>
    <use xlink:href="#DejaVuSans-4c" transform="translate(2160 0)"/>
    <use xlink:href="#DejaVuSans-4f" transform="translate(2187.78125 0)"/>
    <use xlink:href="#DejaVuSans-4c" transform="translate(2215.5625 0)"/>
    <use xlink:href="#DejaVuSans-5d" transform="translate(2243.34375 0)"/>
    <use xlink:href="#DejaVuSans-44" transform="translate(2295.828125 0)"/>
    <use xlink:href="#DejaVuSans-57" transform="translate(2357.109375 0)"/>
    <use xlink:href="#DejaVuSans-4c" transform="translate(2396.3125 0)"/>
    <use xlink:href="#DejaVuSans-52" transform="translate(2424.09375 0)"/>
    <use xlink:href="#DejaVuSans-51" transform="translate(2485.28125 0)"/>
   </g>
  </g>
 </g>
 <defs>
  <clipPath id="p21d0da39f5">
   <rect x="55.192188" y="65.359531" width="302.48" height="222.700469"/>
  </clipPath>
  <clipPath id="pafe62ee87f">
   <rect x="400.252187" y="65.359531" width="302.48" height="222.700469"/>
  </clipPath>
 </defs>
</svg>
