<?xml version="1.0" encoding="utf-8" standalone="no"?>
<!DOCTYPE svg PUBLIC "-//W3C//DTD SVG 1.1//EN"
  "http://www.w3.org/Graphics/SVG/1.1/DTD/svg11.dtd">
<svg xmlns:xlink="http://www.w3.org/1999/xlink" width="493.881094pt" height="314.641953pt" viewBox="0 0 493.881094 314.641953" xmlns="http://www.w3.org/2000/svg" version="1.1">
 <metadata>
  <rdf:RDF xmlns:dc="http://purl.org/dc/elements/1.1/" xmlns:cc="http://creativecommons.org/ns#" xmlns:rdf="http://www.w3.org/1999/02/22-rdf-syntax-ns#">
   <cc:Work>
    <dc:type rdf:resource="http://purl.org/dc/dcmitype/StillImage"/>
    <dc:date>2026-07-03T09:00:54.779772</dc:date>
    <dc:format>image/svg+xml</dc:format>
    <dc:creator>
     <cc:Agent>
      <dc:title>Matplotlib v3.11.0, https://matplotlib.org/</dc:title>
     </cc:Agent>
    </dc:creator>
   </cc:Work>
  </rdf:RDF>
 </metadata>
 <defs>
  <style type="text/css">*{stroke-linejoin: round; stroke-linecap: butt}</style>
 </defs>
 <g id="figure_1">
  <g id="patch_1">
   <path d="M 0 314.641953 
L 493.881094 314.641953 
L 493.881094 0 
L 0 0 
z
" style="fill: #ffffff"/>
  </g>
  <g id="axes_1">
   <g id="patch_2">
    <path d="M 48.194375 272.941016 
L 477.934375 272.941016 
L 477.934375 27.077969 
L 48.194375 27.077969 
z
" style="fill: #ffffff"/>
   </g>
   <g id="patch_3">
    <path d="M 286.938819 272.941016 
L 477.934375 272.941016 
L 477.934375 27.077969 
L 286.938819 27.077969 
z
" clip-path="url(#p9b06f57d6c)" style="fill: #cc79a7; opacity: 0.05; stroke: #cc79a7; stroke-linejoin: miter"/>
   </g>
   <g id="matplotlib.axis_1">
    <g id="xtick_1">
     <g id="line2d_1">
      <path d="M 48.194375 272.941016 
L 48.194375 27.077969 
" clip-path="url(#p9b06f57d6c)" style="fill: none; stroke-dasharray: 2.22,0.96; stroke-dashoffset: 0; stroke: #b0b0b0; stroke-opacity: 0.25; stroke-width: 0.6"/>
     </g>
     <g id="line2d_2">
      <defs>
       <path id="m5f1a3e042e" d="M 0 0 
L 0 4 
" style="stroke: #000000; stroke-width: 0.8"/>
      </defs>
      <g>
       <use xlink:href="#m5f1a3e042e" x="48.194375" y="272.941016" style="stroke: #000000; stroke-width: 0.8"/>
      </g>
     </g>
     <g id="text_1">
      <!-- 0.0 -->
      <g transform="translate(39.447656 288.798437) scale(0.11 -0.11)">
       <defs>
        <path id="DejaVuSans-13" d="M 2034 4250 
Q 1547 4250 1301 3770 
Q 1056 3291 1056 2328 
Q 1056 1369 1301 889 
Q 1547 409 2034 409 
Q 2525 409 2770 889 
Q 3016 1369 3016 2328 
Q 3016 3291 2770 3770 
Q 2525 4250 2034 4250 
z
M 2034 4750 
Q 2819 4750 3233 4129 
Q 3647 3509 3647 2328 
Q 3647 1150 3233 529 
Q 2819 -91 2034 -91 
Q 1250 -91 836 529 
Q 422 1150 422 2328 
Q 422 3509 836 4129 
Q 1250 4750 2034 4750 
z
" transform="scale(0.015625)"/>
        <path id="DejaVuSans-11" d="M 684 794 
L 1344 794 
L 1344 0 
L 684 0 
L 684 794 
z
" transform="scale(0.015625)"/>
       </defs>
       <use xlink:href="#DejaVuSans-13"/>
       <use xlink:href="#DejaVuSans-11" transform="translate(63.625 0)"/>
       <use xlink:href="#DejaVuSans-13" transform="translate(95.40625 0)"/>
      </g>
     </g>
    </g>
    <g id="xtick_2">
     <g id="line2d_3">
      <path d="M 95.943264 272.941016 
L 95.943264 27.077969 
" clip-path="url(#p9b06f57d6c)" style="fill: none; stroke-dasharray: 2.22,0.96; stroke-dashoffset: 0; stroke: #b0b0b0; stroke-opacity: 0.25; stroke-width: 0.6"/>
     </g>
     <g id="line2d_4">
      <g>
       <use xlink:href="#m5f1a3e042e" x="95.943264" y="272.941016" style="stroke: #000000; stroke-width: 0.8"/>
      </g>
     </g>
     <g id="text_2">
      <!-- 0.2 -->
      <g transform="translate(87.196545 288.798437) scale(0.11 -0.11)">
       <defs>
        <path id="DejaVuSans-15" d="M 1228 531 
L 3431 531 
L 3431 0 
L 469 0 
L 469 531 
Q 828 903 1448 1529 
Q 2069 2156 2228 2338 
Q 2531 2678 2651 2914 
Q 2772 3150 2772 3378 
Q 2772 3750 2511 3984 
Q 2250 4219 1831 4219 
Q 1534 4219 1204 4116 
Q 875 4013 500 3803 
L 500 4441 
Q 881 4594 1212 4672 
Q 1544 4750 1819 4750 
Q 2544 4750 2975 4387 
Q 3406 4025 3406 3419 
Q 3406 3131 3298 2873 
Q 3191 2616 2906 2266 
Q 2828 2175 2409 1742 
Q 1991 1309 1228 531 
z
" transform="scale(0.015625)"/>
       </defs>
       <use xlink:href="#DejaVuSans-13"/>
       <use xlink:href="#DejaVuSans-11" transform="translate(63.625 0)"/>
       <use xlink:href="#DejaVuSans-15" transform="translate(95.40625 0)"/>
      </g>
     </g>
    </g>
    <g id="xtick_3">
     <g id="line2d_5">
      <path d="M 143.692153 272.941016 
L 143.692153 27.077969 
" clip-path="url(#p9b06f57d6c)" style="fill: none; stroke-dasharray: 2.22,0.96; stroke-dashoffset: 0; stroke: #b0b0b0; stroke-opacity: 0.25; stroke-width: 0.6"/>
     </g>
     <g id="line2d_6">
      <g>
       <use xlink:href="#m5f1a3e042e" x="143.692153" y="272.941016" style="stroke: #000000; stroke-width: 0.8"/>
      </g>
     </g>
     <g id="text_3">
      <!-- 0.4 -->
      <g transform="translate(134.945434 288.798437) scale(0.11 -0.11)">
       <defs>
        <path id="DejaVuSans-17" d="M 2419 4116 
L 825 1625 
L 2419 1625 
L 2419 4116 
z
M 2253 4666 
L 3047 4666 
L 3047 1625 
L 3713 1625 
L 3713 1100 
L 3047 1100 
L 3047 0 
L 2419 0 
L 2419 1100 
L 313 1100 
L 313 1709 
L 2253 4666 
z
" transform="scale(0.015625)"/>
       </defs>
       <use xlink:href="#DejaVuSans-13"/>
       <use xlink:href="#DejaVuSans-11" transform="translate(63.625 0)"/>
       <use xlink:href="#DejaVuSans-17" transform="translate(95.40625 0)"/>
      </g>
     </g>
    </g>
    <g id="xtick_4">
     <g id="line2d_7">
      <path d="M 191.441042 272.941016 
L 191.441042 27.077969 
" clip-path="url(#p9b06f57d6c)" style="fill: none; stroke-dasharray: 2.22,0.96; stroke-dashoffset: 0; stroke: #b0b0b0; stroke-opacity: 0.25; stroke-width: 0.6"/>
     </g>
     <g id="line2d_8">
      <g>
       <use xlink:href="#m5f1a3e042e" x="191.441042" y="272.941016" style="stroke: #000000; stroke-width: 0.8"/>
      </g>
     </g>
     <g id="text_4">
      <!-- 0.6 -->
      <g transform="translate(182.694323 288.798437) scale(0.11 -0.11)">
       <defs>
        <path id="DejaVuSans-19" d="M 2113 2584 
Q 1688 2584 1439 2293 
Q 1191 2003 1191 1497 
Q 1191 994 1439 701 
Q 1688 409 2113 409 
Q 2538 409 2786 701 
Q 3034 994 3034 1497 
Q 3034 2003 2786 2293 
Q 2538 2584 2113 2584 
z
M 3366 4563 
L 3366 3988 
Q 3128 4100 2886 4159 
Q 2644 4219 2406 4219 
Q 1781 4219 1451 3797 
Q 1122 3375 1075 2522 
Q 1259 2794 1537 2939 
Q 1816 3084 2150 3084 
Q 2853 3084 3261 2657 
Q 3669 2231 3669 1497 
Q 3669 778 3244 343 
Q 2819 -91 2113 -91 
Q 1303 -91 875 529 
Q 447 1150 447 2328 
Q 447 3434 972 4092 
Q 1497 4750 2381 4750 
Q 2619 4750 2861 4703 
Q 3103 4656 3366 4563 
z
" transform="scale(0.015625)"/>
       </defs>
       <use xlink:href="#DejaVuSans-13"/>
       <use xlink:href="#DejaVuSans-11" transform="translate(63.625 0)"/>
       <use xlink:href="#DejaVuSans-19" transform="translate(95.40625 0)"/>
      </g>
     </g>
    </g>
    <g id="xtick_5">
     <g id="line2d_9">
      <path d="M 239.189931 272.941016 
L 239.189931 27.077969 
" clip-path="url(#p9b06f57d6c)" style="fill: none; stroke-dasharray: 2.22,0.96; stroke-dashoffset: 0; stroke: #b0b0b0; stroke-opacity: 0.25; stroke-width: 0.6"/>
     </g>
     <g id="line2d_10">
      <g>
       <use xlink:href="#m5f1a3e042e" x="239.189931" y="272.941016" style="stroke: #000000; stroke-width: 0.8"/>
      </g>
     </g>
     <g id="text_5">
      <!-- 0.8 -->
      <g transform="translate(230.443212 288.798437) scale(0.11 -0.11)">
       <defs>
        <path id="DejaVuSans-1b" d="M 2034 2216 
Q 1584 2216 1326 1975 
Q 1069 1734 1069 1313 
Q 1069 891 1326 650 
Q 1584 409 2034 409 
Q 2484 409 2743 651 
Q 3003 894 3003 1313 
Q 3003 1734 2745 1975 
Q 2488 2216 2034 2216 
z
M 1403 2484 
Q 997 2584 770 2862 
Q 544 3141 544 3541 
Q 544 4100 942 4425 
Q 1341 4750 2034 4750 
Q 2731 4750 3128 4425 
Q 3525 4100 3525 3541 
Q 3525 3141 3298 2862 
Q 3072 2584 2669 2484 
Q 3125 2378 3379 2068 
Q 3634 1759 3634 1313 
Q 3634 634 3220 271 
Q 2806 -91 2034 -91 
Q 1263 -91 848 271 
Q 434 634 434 1313 
Q 434 1759 690 2068 
Q 947 2378 1403 2484 
z
M 1172 3481 
Q 1172 3119 1398 2916 
Q 1625 2713 2034 2713 
Q 2441 2713 2670 2916 
Q 2900 3119 2900 3481 
Q 2900 3844 2670 4047 
Q 2441 4250 2034 4250 
Q 1625 4250 1398 4047 
Q 1172 3844 1172 3481 
z
" transform="scale(0.015625)"/>
       </defs>
       <use xlink:href="#DejaVuSans-13"/>
       <use xlink:href="#DejaVuSans-11" transform="translate(63.625 0)"/>
       <use xlink:href="#DejaVuSans-1b" transform="translate(95.40625 0)"/>
      </g>
     </g>
    </g>
    <g id="xtick_6">
     <g id="line2d_11">
      <path d="M 286.938819 272.941016 
L 286.938819 27.077969 
" clip-path="url(#p9b06f57d6c)" style="fill: none; stroke-dasharray: 2.22,0.96; stroke-dashoffset: 0; stroke: #b0b0b0; stroke-opacity: 0.25; stroke-width: 0.6"/>
     </g>
     <g id="line2d_12">
      <g>
       <use xlink:href="#m5f1a3e042e" x="286.938819" y="272.941016" style="stroke: #000000; stroke-width: 0.8"/>
      </g>
     </g>
     <g id="text_6">
      <!-- 1.0 -->
      <g transform="translate(278.192101 288.798437) scale(0.11 -0.11)">
       <defs>
        <path id="DejaVuSans-14" d="M 794 531 
L 1825 531 
L 1825 4091 
L 703 3866 
L 703 4441 
L 1819 4666 
L 2450 4666 
L 2450 531 
L 3481 531 
L 3481 0 
L 794 0 
L 794 531 
z
" transform="scale(0.015625)"/>
       </defs>
       <use xlink:href="#DejaVuSans-14"/>
       <use xlink:href="#DejaVuSans-11" transform="translate(63.625 0)"/>
       <use xlink:href="#DejaVuSans-13" transform="translate(95.40625 0)"/>
      </g>
     </g>
    </g>
    <g id="xtick_7">
     <g id="line2d_13">
      <path d="M 334.687708 272.941016 
L 334.687708 27.077969 
" clip-path="url(#p9b06f57d6c)" style="fill: none; stroke-dasharray: 2.22,0.96; stroke-dashoffset: 0; stroke: #b0b0b0; stroke-opacity: 0.25; stroke-width: 0.6"/>
     </g>
     <g id="line2d_14">
      <g>
       <use xlink:href="#m5f1a3e042e" x="334.687708" y="272.941016" style="stroke: #000000; stroke-width: 0.8"/>
      </g>
     </g>
     <g id="text_7">
      <!-- 1.2 -->
      <g transform="translate(325.94099 288.798437) scale(0.11 -0.11)">
       <use xlink:href="#DejaVuSans-14"/>
       <use xlink:href="#DejaVuSans-11" transform="translate(63.625 0)"/>
       <use xlink:href="#DejaVuSans-15" transform="translate(95.40625 0)"/>
      </g>
     </g>
    </g>
    <g id="xtick_8">
     <g id="line2d_15">
      <path d="M 382.436597 272.941016 
L 382.436597 27.077969 
" clip-path="url(#p9b06f57d6c)" style="fill: none; stroke-dasharray: 2.22,0.96; stroke-dashoffset: 0; stroke: #b0b0b0; stroke-opacity: 0.25; stroke-width: 0.6"/>
     </g>
     <g id="line2d_16">
      <g>
       <use xlink:href="#m5f1a3e042e" x="382.436597" y="272.941016" style="stroke: #000000; stroke-width: 0.8"/>
      </g>
     </g>
     <g id="text_8">
      <!-- 1.4 -->
      <g transform="translate(373.689878 288.798437) scale(0.11 -0.11)">
       <use xlink:href="#DejaVuSans-14"/>
       <use xlink:href="#DejaVuSans-11" transform="translate(63.625 0)"/>
       <use xlink:href="#DejaVuSans-17" transform="translate(95.40625 0)"/>
      </g>
     </g>
    </g>
    <g id="xtick_9">
     <g id="line2d_17">
      <path d="M 430.185486 272.941016 
L 430.185486 27.077969 
" clip-path="url(#p9b06f57d6c)" style="fill: none; stroke-dasharray: 2.22,0.96; stroke-dashoffset: 0; stroke: #b0b0b0; stroke-opacity: 0.25; stroke-width: 0.6"/>
     </g>
     <g id="line2d_18">
      <g>
       <use xlink:href="#m5f1a3e042e" x="430.185486" y="272.941016" style="stroke: #000000; stroke-width: 0.8"/>
      </g>
     </g>
     <g id="text_9">
      <!-- 1.6 -->
      <g transform="translate(421.438767 288.798437) scale(0.11 -0.11)">
       <use xlink:href="#DejaVuSans-14"/>
       <use xlink:href="#DejaVuSans-11" transform="translate(63.625 0)"/>
       <use xlink:href="#DejaVuSans-19" transform="translate(95.40625 0)"/>
      </g>
     </g>
    </g>
    <g id="xtick_10">
     <g id="line2d_19">
      <path d="M 477.934375 272.941016 
L 477.934375 27.077969 
" clip-path="url(#p9b06f57d6c)" style="fill: none; stroke-dasharray: 2.22,0.96; stroke-dashoffset: 0; stroke: #b0b0b0; stroke-opacity: 0.25; stroke-width: 0.6"/>
     </g>
     <g id="line2d_20">
      <g>
       <use xlink:href="#m5f1a3e042e" x="477.934375" y="272.941016" style="stroke: #000000; stroke-width: 0.8"/>
      </g>
     </g>
     <g id="text_10">
      <!-- 1.8 -->
      <g transform="translate(469.187656 288.798437) scale(0.11 -0.11)">
       <use xlink:href="#DejaVuSans-14"/>
       <use xlink:href="#DejaVuSans-11" transform="translate(63.625 0)"/>
       <use xlink:href="#DejaVuSans-1b" transform="translate(95.40625 0)"/>
      </g>
     </g>
    </g>
    <g id="text_11">
     <!-- Offered Load  ρ = λ / (c · μ) -->
     <g transform="translate(181.00875 304.559141) scale(0.12 -0.12)">
      <defs>
       <path id="DejaVuSans-32" d="M 2522 4238 
Q 1834 4238 1429 3725 
Q 1025 3213 1025 2328 
Q 1025 1447 1429 934 
Q 1834 422 2522 422 
Q 3209 422 3611 934 
Q 4013 1447 4013 2328 
Q 4013 3213 3611 3725 
Q 3209 4238 2522 4238 
z
M 2522 4750 
Q 3503 4750 4090 4092 
Q 4678 3434 4678 2328 
Q 4678 1225 4090 567 
Q 3503 -91 2522 -91 
Q 1538 -91 948 565 
Q 359 1222 359 2328 
Q 359 3434 948 4092 
Q 1538 4750 2522 4750 
z
" transform="scale(0.015625)"/>
       <path id="DejaVuSans-13ae" d="M 4531 4863 
L 4531 4384 
L 3981 4384 
Q 3672 4384 3551 4259 
Q 3431 4134 3431 3809 
L 3431 3500 
L 4378 3500 
L 4378 3053 
L 3431 3053 
L 3431 0 
L 2853 0 
L 2853 3053 
L 1275 3053 
L 1275 0 
L 697 0 
L 697 3053 
L 147 3053 
L 147 3500 
L 697 3500 
L 697 3744 
Q 697 4328 969 4595 
Q 1241 4863 1831 4863 
L 2375 4863 
L 2375 4384 
L 1825 4384 
Q 1516 4384 1394 4259 
Q 1275 4134 1275 3809 
L 1275 3500 
L 2853 3500 
L 2853 3744 
Q 2853 4328 3125 4595 
Q 3397 4863 3988 4863 
L 4531 4863 
z
" transform="scale(0.015625)"/>
       <path id="DejaVuSans-48" d="M 3597 1894 
L 3597 1613 
L 953 1613 
Q 991 1019 1311 708 
Q 1631 397 2203 397 
Q 2534 397 2845 478 
Q 3156 559 3463 722 
L 3463 178 
Q 3153 47 2828 -22 
Q 2503 -91 2169 -91 
Q 1331 -91 842 396 
Q 353 884 353 1716 
Q 353 2575 817 3079 
Q 1281 3584 2069 3584 
Q 2775 3584 3186 3129 
Q 3597 2675 3597 1894 
z
M 3022 2063 
Q 3016 2534 2758 2815 
Q 2500 3097 2075 3097 
Q 1594 3097 1305 2825 
Q 1016 2553 972 2059 
L 3022 2063 
z
" transform="scale(0.015625)"/>
       <path id="DejaVuSans-55" d="M 2631 2963 
Q 2534 3019 2420 3045 
Q 2306 3072 2169 3072 
Q 1681 3072 1420 2755 
Q 1159 2438 1159 1844 
L 1159 0 
L 581 0 
L 581 3500 
L 1159 3500 
L 1159 2956 
Q 1341 3275 1631 3429 
Q 1922 3584 2338 3584 
Q 2397 3584 2469 3576 
Q 2541 3569 2628 3553 
L 2631 2963 
z
" transform="scale(0.015625)"/>
       <path id="DejaVuSans-47" d="M 2906 2969 
L 2906 4863 
L 3481 4863 
L 3481 0 
L 2906 0 
L 2906 525 
Q 2725 213 2448 61 
Q 2172 -91 1784 -91 
Q 1150 -91 751 415 
Q 353 922 353 1747 
Q 353 2572 751 3078 
Q 1150 3584 1784 3584 
Q 2172 3584 2448 3432 
Q 2725 3281 2906 2969 
z
M 947 1747 
Q 947 1113 1208 752 
Q 1469 391 1925 391 
Q 2381 391 2643 752 
Q 2906 1113 2906 1747 
Q 2906 2381 2643 2742 
Q 2381 3103 1925 3103 
Q 1469 3103 1208 2742 
Q 947 2381 947 1747 
z
" transform="scale(0.015625)"/>
       <path id="DejaVuSans-3" transform="scale(0.015625)"/>
       <path id="DejaVuSans-2f" d="M 628 4666 
L 1259 4666 
L 1259 531 
L 3531 531 
L 3531 0 
L 628 0 
L 628 4666 
z
" transform="scale(0.015625)"/>
       <path id="DejaVuSans-52" d="M 1959 3097 
Q 1497 3097 1228 2736 
Q 959 2375 959 1747 
Q 959 1119 1226 758 
Q 1494 397 1959 397 
Q 2419 397 2687 759 
Q 2956 1122 2956 1747 
Q 2956 2369 2687 2733 
Q 2419 3097 1959 3097 
z
M 1959 3584 
Q 2709 3584 3137 3096 
Q 3566 2609 3566 1747 
Q 3566 888 3137 398 
Q 2709 -91 1959 -91 
Q 1206 -91 779 398 
Q 353 888 353 1747 
Q 353 2609 779 3096 
Q 1206 3584 1959 3584 
z
" transform="scale(0.015625)"/>
       <path id="DejaVuSans-44" d="M 2194 1759 
Q 1497 1759 1228 1600 
Q 959 1441 959 1056 
Q 959 750 1161 570 
Q 1363 391 1709 391 
Q 2188 391 2477 730 
Q 2766 1069 2766 1631 
L 2766 1759 
L 2194 1759 
z
M 3341 1997 
L 3341 0 
L 2766 0 
L 2766 531 
Q 2569 213 2275 61 
Q 1981 -91 1556 -91 
Q 1019 -91 701 211 
Q 384 513 384 1019 
Q 384 1609 779 1909 
Q 1175 2209 1959 2209 
L 2766 2209 
L 2766 2266 
Q 2766 2663 2505 2880 
Q 2244 3097 1772 3097 
Q 1472 3097 1187 3025 
Q 903 2953 641 2809 
L 641 3341 
Q 956 3463 1253 3523 
Q 1550 3584 1831 3584 
Q 2591 3584 2966 3190 
Q 3341 2797 3341 1997 
z
" transform="scale(0.015625)"/>
       <path id="DejaVuSans-355" d="M 863 2875 
Q 1053 3194 1525 3475 
Q 1709 3584 2278 3584 
Q 2916 3584 3314 3078 
Q 3713 2572 3713 1747 
Q 3713 922 3314 415 
Q 2916 -91 2278 -91 
Q 1894 -91 1617 61 
Q 1341 213 1159 525 
L 1159 -1331 
L 581 -1331 
L 581 1716 
Q 581 2438 863 2875 
z
M 3116 1747 
Q 3116 2381 2855 2742 
Q 2594 3103 2138 3103 
Q 1681 3103 1420 2742 
Q 1159 2381 1159 1747 
Q 1159 1113 1420 752 
Q 1681 391 2138 391 
Q 2594 391 2855 752 
Q 3116 1113 3116 1747 
z
" transform="scale(0.015625)"/>
       <path id="DejaVuSans-20" d="M 678 2906 
L 4684 2906 
L 4684 2381 
L 678 2381 
L 678 2906 
z
M 678 1631 
L 4684 1631 
L 4684 1100 
L 678 1100 
L 678 1631 
z
" transform="scale(0.015625)"/>
       <path id="DejaVuSans-34f" d="M 1981 4316 
L 3597 0 
L 2988 0 
L 2006 2588 
L 800 0 
L 191 0 
L 1725 3356 
L 1494 3975 
Q 1347 4369 1013 4369 
L 713 4369 
L 713 4863 
L 1078 4856 
Q 1784 4847 1981 4316 
z
" transform="scale(0.015625)"/>
       <path id="DejaVuSans-12" d="M 1625 4666 
L 2156 4666 
L 531 -594 
L 0 -594 
L 1625 4666 
z
" transform="scale(0.015625)"/>
       <path id="DejaVuSans-b" d="M 1984 4856 
Q 1566 4138 1362 3434 
Q 1159 2731 1159 2009 
Q 1159 1288 1364 580 
Q 1569 -128 1984 -844 
L 1484 -844 
Q 1016 -109 783 600 
Q 550 1309 550 2009 
Q 550 2706 781 3412 
Q 1013 4119 1484 4856 
L 1984 4856 
z
" transform="scale(0.015625)"/>
       <path id="DejaVuSans-46" d="M 3122 3366 
L 3122 2828 
Q 2878 2963 2633 3030 
Q 2388 3097 2138 3097 
Q 1578 3097 1268 2742 
Q 959 2388 959 1747 
Q 959 1106 1268 751 
Q 1578 397 2138 397 
Q 2388 397 2633 464 
Q 2878 531 3122 666 
L 3122 134 
Q 2881 22 2623 -34 
Q 2366 -91 2075 -91 
Q 1284 -91 818 406 
Q 353 903 353 1747 
Q 353 2603 823 3093 
Q 1294 3584 2113 3584 
Q 2378 3584 2631 3529 
Q 2884 3475 3122 3366 
z
" transform="scale(0.015625)"/>
       <path id="DejaVuSans-79" d="M 684 2619 
L 1344 2619 
L 1344 1825 
L 684 1825 
L 684 2619 
z
" transform="scale(0.015625)"/>
       <path id="DejaVuSans-350" d="M 544 -1331 
L 544 3500 
L 1119 3500 
L 1119 1325 
Q 1119 872 1334 640 
Q 1550 409 1972 409 
Q 2434 409 2667 671 
Q 2900 934 2900 1459 
L 2900 3500 
L 3475 3500 
L 3475 806 
Q 3475 619 3529 530 
Q 3584 441 3700 441 
Q 3728 441 3778 458 
Q 3828 475 3916 513 
L 3916 50 
Q 3788 -22 3673 -56 
Q 3559 -91 3450 -91 
Q 3234 -91 3106 31 
Q 2978 153 2931 403 
Q 2775 156 2548 32 
Q 2322 -91 2016 -91 
Q 1697 -91 1473 31 
Q 1250 153 1119 397 
L 1119 -1331 
L 544 -1331 
z
" transform="scale(0.015625)"/>
       <path id="DejaVuSans-c" d="M 513 4856 
L 1013 4856 
Q 1481 4119 1714 3412 
Q 1947 2706 1947 2009 
Q 1947 1309 1714 600 
Q 1481 -109 1013 -844 
L 513 -844 
Q 928 -128 1133 580 
Q 1338 1288 1338 2009 
Q 1338 2731 1133 3434 
Q 928 4138 513 4856 
z
" transform="scale(0.015625)"/>
      </defs>
      <use xlink:href="#DejaVuSans-32"/>
      <use xlink:href="#DejaVuSans-13ae" transform="translate(78.71875 0)"/>
      <use xlink:href="#DejaVuSans-48" transform="translate(147.609375 0)"/>
      <use xlink:href="#DejaVuSans-55" transform="translate(209.140625 0)"/>
      <use xlink:href="#DejaVuSans-48" transform="translate(248.046875 0)"/>
      <use xlink:href="#DejaVuSans-47" transform="translate(309.578125 0)"/>
      <use xlink:href="#DejaVuSans-3" transform="translate(373.0625 0)"/>
      <use xlink:href="#DejaVuSans-2f" transform="translate(404.84375 0)"/>
      <use xlink:href="#DejaVuSans-52" transform="translate(458.8125 0)"/>
      <use xlink:href="#DejaVuSans-44" transform="translate(520 0)"/>
      <use xlink:href="#DejaVuSans-47" transform="translate(581.28125 0)"/>
      <use xlink:href="#DejaVuSans-3" transform="translate(644.765625 0)"/>
      <use xlink:href="#DejaVuSans-3" transform="translate(676.546875 0)"/>
      <use xlink:href="#DejaVuSans-355" transform="translate(708.328125 0)"/>
      <use xlink:href="#DejaVuSans-3" transform="translate(771.8125 0)"/>
      <use xlink:href="#DejaVuSans-20" transform="translate(803.59375 0)"/>
      <use xlink:href="#DejaVuSans-3" transform="translate(887.390625 0)"/>
      <use xlink:href="#DejaVuSans-34f" transform="translate(919.171875 0)"/>
      <use xlink:href="#DejaVuSans-3" transform="translate(978.359375 0)"/>
      <use xlink:href="#DejaVuSans-12" transform="translate(1010.140625 0)"/>
      <use xlink:href="#DejaVuSans-3" transform="translate(1043.828125 0)"/>
      <use xlink:href="#DejaVuSans-b" transform="translate(1075.609375 0)"/>
      <use xlink:href="#DejaVuSans-46" transform="translate(1114.625 0)"/>
      <use xlink:href="#DejaVuSans-3" transform="translate(1169.609375 0)"/>
      <use xlink:href="#DejaVuSans-79" transform="translate(1201.390625 0)"/>
      <use xlink:href="#DejaVuSans-3" transform="translate(1233.171875 0)"/>
      <use xlink:href="#DejaVuSans-350" transform="translate(1264.953125 0)"/>
      <use xlink:href="#DejaVuSans-c" transform="translate(1328.578125 0)"/>
     </g>
    </g>
   </g>
   <g id="matplotlib.axis_2">
    <g id="ytick_1">
     <g id="line2d_21">
      <path d="M 48.194375 272.941016 
L 477.934375 272.941016 
" clip-path="url(#p9b06f57d6c)" style="fill: none; stroke-dasharray: 2.22,0.96; stroke-dashoffset: 0; stroke: #b0b0b0; stroke-opacity: 0.25; stroke-width: 0.6"/>
     </g>
     <g id="line2d_22">
      <defs>
       <path id="mc093a3b7d6" d="M 0 0 
L -4 0 
" style="stroke: #000000; stroke-width: 0.8"/>
      </defs>
      <g>
       <use xlink:href="#mc093a3b7d6" x="48.194375" y="272.941016" style="stroke: #000000; stroke-width: 0.8"/>
      </g>
     </g>
     <g id="text_12">
      <!-- 0.0 -->
      <g transform="translate(23.200938 277.119727) scale(0.11 -0.11)">
       <use xlink:href="#DejaVuSans-13"/>
       <use xlink:href="#DejaVuSans-11" transform="translate(63.625 0)"/>
       <use xlink:href="#DejaVuSans-13" transform="translate(95.40625 0)"/>
      </g>
     </g>
    </g>
    <g id="ytick_2">
     <g id="line2d_23">
      <path d="M 48.194375 230.182225 
L 477.934375 230.182225 
" clip-path="url(#p9b06f57d6c)" style="fill: none; stroke-dasharray: 2.22,0.96; stroke-dashoffset: 0; stroke: #b0b0b0; stroke-opacity: 0.25; stroke-width: 0.6"/>
     </g>
     <g id="line2d_24">
      <g>
       <use xlink:href="#mc093a3b7d6" x="48.194375" y="230.182225" style="stroke: #000000; stroke-width: 0.8"/>
      </g>
     </g>
     <g id="text_13">
      <!-- 0.2 -->
      <g transform="translate(23.200938 234.360936) scale(0.11 -0.11)">
       <use xlink:href="#DejaVuSans-13"/>
       <use xlink:href="#DejaVuSans-11" transform="translate(63.625 0)"/>
       <use xlink:href="#DejaVuSans-15" transform="translate(95.40625 0)"/>
      </g>
     </g>
    </g>
    <g id="ytick_3">
     <g id="line2d_25">
      <path d="M 48.194375 187.423434 
L 477.934375 187.423434 
" clip-path="url(#p9b06f57d6c)" style="fill: none; stroke-dasharray: 2.22,0.96; stroke-dashoffset: 0; stroke: #b0b0b0; stroke-opacity: 0.25; stroke-width: 0.6"/>
     </g>
     <g id="line2d_26">
      <g>
       <use xlink:href="#mc093a3b7d6" x="48.194375" y="187.423434" style="stroke: #000000; stroke-width: 0.8"/>
      </g>
     </g>
     <g id="text_14">
      <!-- 0.4 -->
      <g transform="translate(23.200938 191.602145) scale(0.11 -0.11)">
       <use xlink:href="#DejaVuSans-13"/>
       <use xlink:href="#DejaVuSans-11" transform="translate(63.625 0)"/>
       <use xlink:href="#DejaVuSans-17" transform="translate(95.40625 0)"/>
      </g>
     </g>
    </g>
    <g id="ytick_4">
     <g id="line2d_27">
      <path d="M 48.194375 144.664643 
L 477.934375 144.664643 
" clip-path="url(#p9b06f57d6c)" style="fill: none; stroke-dasharray: 2.22,0.96; stroke-dashoffset: 0; stroke: #b0b0b0; stroke-opacity: 0.25; stroke-width: 0.6"/>
     </g>
     <g id="line2d_28">
      <g>
       <use xlink:href="#mc093a3b7d6" x="48.194375" y="144.664643" style="stroke: #000000; stroke-width: 0.8"/>
      </g>
     </g>
     <g id="text_15">
      <!-- 0.6 -->
      <g transform="translate(23.200938 148.843354) scale(0.11 -0.11)">
       <use xlink:href="#DejaVuSans-13"/>
       <use xlink:href="#DejaVuSans-11" transform="translate(63.625 0)"/>
       <use xlink:href="#DejaVuSans-19" transform="translate(95.40625 0)"/>
      </g>
     </g>
    </g>
    <g id="ytick_5">
     <g id="line2d_29">
      <path d="M 48.194375 101.905853 
L 477.934375 101.905853 
" clip-path="url(#p9b06f57d6c)" style="fill: none; stroke-dasharray: 2.22,0.96; stroke-dashoffset: 0; stroke: #b0b0b0; stroke-opacity: 0.25; stroke-width: 0.6"/>
     </g>
     <g id="line2d_30">
      <g>
       <use xlink:href="#mc093a3b7d6" x="48.194375" y="101.905853" style="stroke: #000000; stroke-width: 0.8"/>
      </g>
     </g>
     <g id="text_16">
      <!-- 0.8 -->
      <g transform="translate(23.200938 106.084564) scale(0.11 -0.11)">
       <use xlink:href="#DejaVuSans-13"/>
       <use xlink:href="#DejaVuSans-11" transform="translate(63.625 0)"/>
       <use xlink:href="#DejaVuSans-1b" transform="translate(95.40625 0)"/>
      </g>
     </g>
    </g>
    <g id="ytick_6">
     <g id="line2d_31">
      <path d="M 48.194375 59.147062 
L 477.934375 59.147062 
" clip-path="url(#p9b06f57d6c)" style="fill: none; stroke-dasharray: 2.22,0.96; stroke-dashoffset: 0; stroke: #b0b0b0; stroke-opacity: 0.25; stroke-width: 0.6"/>
     </g>
     <g id="line2d_32">
      <g>
       <use xlink:href="#mc093a3b7d6" x="48.194375" y="59.147062" style="stroke: #000000; stroke-width: 0.8"/>
      </g>
     </g>
     <g id="text_17">
      <!-- 1.0 -->
      <g transform="translate(23.200938 63.325773) scale(0.11 -0.11)">
       <use xlink:href="#DejaVuSans-14"/>
       <use xlink:href="#DejaVuSans-11" transform="translate(63.625 0)"/>
       <use xlink:href="#DejaVuSans-13" transform="translate(95.40625 0)"/>
      </g>
     </g>
    </g>
    <g id="text_18">
     <!-- Goodput  (normalized to capacity) -->
     <g transform="translate(16.318125 252.778242) rotate(-90) scale(0.12 -0.12)">
      <defs>
       <path id="DejaVuSans-2a" d="M 3809 666 
L 3809 1919 
L 2778 1919 
L 2778 2438 
L 4434 2438 
L 4434 434 
Q 4069 175 3628 42 
Q 3188 -91 2688 -91 
Q 1594 -91 976 548 
Q 359 1188 359 2328 
Q 359 3472 976 4111 
Q 1594 4750 2688 4750 
Q 3144 4750 3555 4637 
Q 3966 4525 4313 4306 
L 4313 3634 
Q 3963 3931 3569 4081 
Q 3175 4231 2741 4231 
Q 1884 4231 1454 3753 
Q 1025 3275 1025 2328 
Q 1025 1384 1454 906 
Q 1884 428 2741 428 
Q 3075 428 3337 486 
Q 3600 544 3809 666 
z
" transform="scale(0.015625)"/>
       <path id="DejaVuSans-53" d="M 1159 525 
L 1159 -1331 
L 581 -1331 
L 581 3500 
L 1159 3500 
L 1159 2969 
Q 1341 3281 1617 3432 
Q 1894 3584 2278 3584 
Q 2916 3584 3314 3078 
Q 3713 2572 3713 1747 
Q 3713 922 3314 415 
Q 2916 -91 2278 -91 
Q 1894 -91 1617 61 
Q 1341 213 1159 525 
z
M 3116 1747 
Q 3116 2381 2855 2742 
Q 2594 3103 2138 3103 
Q 1681 3103 1420 2742 
Q 1159 2381 1159 1747 
Q 1159 1113 1420 752 
Q 1681 391 2138 391 
Q 2594 391 2855 752 
Q 3116 1113 3116 1747 
z
" transform="scale(0.015625)"/>
       <path id="DejaVuSans-58" d="M 544 1381 
L 544 3500 
L 1119 3500 
L 1119 1403 
Q 1119 906 1312 657 
Q 1506 409 1894 409 
Q 2359 409 2629 706 
Q 2900 1003 2900 1516 
L 2900 3500 
L 3475 3500 
L 3475 0 
L 2900 0 
L 2900 538 
Q 2691 219 2414 64 
Q 2138 -91 1772 -91 
Q 1169 -91 856 284 
Q 544 659 544 1381 
z
M 1991 3584 
L 1991 3584 
z
" transform="scale(0.015625)"/>
       <path id="DejaVuSans-57" d="M 1172 4494 
L 1172 3500 
L 2356 3500 
L 2356 3053 
L 1172 3053 
L 1172 1153 
Q 1172 725 1289 603 
Q 1406 481 1766 481 
L 2356 481 
L 2356 0 
L 1766 0 
Q 1100 0 847 248 
Q 594 497 594 1153 
L 594 3053 
L 172 3053 
L 172 3500 
L 594 3500 
L 594 4494 
L 1172 4494 
z
" transform="scale(0.015625)"/>
       <path id="DejaVuSans-51" d="M 3513 2113 
L 3513 0 
L 2938 0 
L 2938 2094 
Q 2938 2591 2744 2837 
Q 2550 3084 2163 3084 
Q 1697 3084 1428 2787 
Q 1159 2491 1159 1978 
L 1159 0 
L 581 0 
L 581 3500 
L 1159 3500 
L 1159 2956 
Q 1366 3272 1645 3428 
Q 1925 3584 2291 3584 
Q 2894 3584 3203 3211 
Q 3513 2838 3513 2113 
z
" transform="scale(0.015625)"/>
       <path id="DejaVuSans-50" d="M 3328 2828 
Q 3544 3216 3844 3400 
Q 4144 3584 4550 3584 
Q 5097 3584 5394 3201 
Q 5691 2819 5691 2113 
L 5691 0 
L 5113 0 
L 5113 2094 
Q 5113 2597 4934 2840 
Q 4756 3084 4391 3084 
Q 3944 3084 3684 2787 
Q 3425 2491 3425 1978 
L 3425 0 
L 2847 0 
L 2847 2094 
Q 2847 2600 2669 2842 
Q 2491 3084 2119 3084 
Q 1678 3084 1418 2786 
Q 1159 2488 1159 1978 
L 1159 0 
L 581 0 
L 581 3500 
L 1159 3500 
L 1159 2956 
Q 1356 3278 1631 3431 
Q 1906 3584 2284 3584 
Q 2666 3584 2933 3390 
Q 3200 3197 3328 2828 
z
" transform="scale(0.015625)"/>
       <path id="DejaVuSans-4f" d="M 603 4863 
L 1178 4863 
L 1178 0 
L 603 0 
L 603 4863 
z
" transform="scale(0.015625)"/>
       <path id="DejaVuSans-4c" d="M 603 3500 
L 1178 3500 
L 1178 0 
L 603 0 
L 603 3500 
z
M 603 4863 
L 1178 4863 
L 1178 4134 
L 603 4134 
L 603 4863 
z
" transform="scale(0.015625)"/>
       <path id="DejaVuSans-5d" d="M 353 3500 
L 3084 3500 
L 3084 2975 
L 922 459 
L 3084 459 
L 3084 0 
L 275 0 
L 275 525 
L 2438 3041 
L 353 3041 
L 353 3500 
z
" transform="scale(0.015625)"/>
       <path id="DejaVuSans-5c" d="M 2059 -325 
Q 1816 -950 1584 -1140 
Q 1353 -1331 966 -1331 
L 506 -1331 
L 506 -850 
L 844 -850 
Q 1081 -850 1212 -737 
Q 1344 -625 1503 -206 
L 1606 56 
L 191 3500 
L 800 3500 
L 1894 763 
L 2988 3500 
L 3597 3500 
L 2059 -325 
z
" transform="scale(0.015625)"/>
      </defs>
      <use xlink:href="#DejaVuSans-2a"/>
      <use xlink:href="#DejaVuSans-52" transform="translate(77.484375 0)"/>
      <use xlink:href="#DejaVuSans-52" transform="translate(138.671875 0)"/>
      <use xlink:href="#DejaVuSans-47" transform="translate(199.859375 0)"/>
      <use xlink:href="#DejaVuSans-53" transform="translate(263.34375 0)"/>
      <use xlink:href="#DejaVuSans-58" transform="translate(326.828125 0)"/>
      <use xlink:href="#DejaVuSans-57" transform="translate(390.203125 0)"/>
      <use xlink:href="#DejaVuSans-3" transform="translate(429.40625 0)"/>
      <use xlink:href="#DejaVuSans-3" transform="translate(461.1875 0)"/>
      <use xlink:href="#DejaVuSans-b" transform="translate(492.96875 0)"/>
      <use xlink:href="#DejaVuSans-51" transform="translate(531.984375 0)"/>
      <use xlink:href="#DejaVuSans-52" transform="translate(595.359375 0)"/>
      <use xlink:href="#DejaVuSans-55" transform="translate(656.546875 0)"/>
      <use xlink:href="#DejaVuSans-50" transform="translate(695.90625 0)"/>
      <use xlink:href="#DejaVuSans-44" transform="translate(793.3125 0)"/>
      <use xlink:href="#DejaVuSans-4f" transform="translate(854.59375 0)"/>
      <use xlink:href="#DejaVuSans-4c" transform="translate(882.375 0)"/>
      <use xlink:href="#DejaVuSans-5d" transform="translate(910.15625 0)"/>
      <use xlink:href="#DejaVuSans-48" transform="translate(962.640625 0)"/>
      <use xlink:href="#DejaVuSans-47" transform="translate(1024.171875 0)"/>
      <use xlink:href="#DejaVuSans-3" transform="translate(1087.65625 0)"/>
      <use xlink:href="#DejaVuSans-57" transform="translate(1119.4375 0)"/>
      <use xlink:href="#DejaVuSans-52" transform="translate(1158.640625 0)"/>
      <use xlink:href="#DejaVuSans-3" transform="translate(1219.828125 0)"/>
      <use xlink:href="#DejaVuSans-46" transform="translate(1251.609375 0)"/>
      <use xlink:href="#DejaVuSans-44" transform="translate(1306.59375 0)"/>
      <use xlink:href="#DejaVuSans-53" transform="translate(1367.875 0)"/>
      <use xlink:href="#DejaVuSans-44" transform="translate(1431.359375 0)"/>
      <use xlink:href="#DejaVuSans-46" transform="translate(1492.640625 0)"/>
      <use xlink:href="#DejaVuSans-4c" transform="translate(1547.625 0)"/>
      <use xlink:href="#DejaVuSans-57" transform="translate(1575.40625 0)"/>
      <use xlink:href="#DejaVuSans-5c" transform="translate(1614.609375 0)"/>
      <use xlink:href="#DejaVuSans-c" transform="translate(1673.796875 0)"/>
     </g>
    </g>
   </g>
   <g id="line2d_33">
    <path d="M 60.131597 262.251318 
L 67.213 255.909972 
L 74.294403 249.568626 
L 81.375806 243.22728 
L 88.457209 236.885934 
L 95.538612 230.544587 
L 102.620015 224.203241 
L 109.701418 217.861895 
L 116.782821 211.520549 
L 123.864224 205.179203 
L 130.945627 198.837857 
L 138.02703 192.496511 
L 145.108433 186.155165 
L 152.189836 179.813819 
L 159.271239 173.472473 
L 166.352642 167.131127 
L 173.434045 160.789781 
L 180.515448 154.448434 
L 187.596851 148.107088 
L 194.678254 141.765742 
L 201.759657 135.424396 
L 208.84106 129.08305 
L 215.922464 122.741704 
L 223.003867 116.400358 
L 230.08527 110.059012 
L 237.166673 103.717666 
L 244.248076 97.37632 
L 251.329479 91.034974 
L 258.410882 84.693627 
L 265.492285 78.352281 
L 272.573688 72.010935 
L 279.655091 65.669589 
L 286.736494 59.328243 
L 293.817897 59.147062 
L 300.8993 59.147062 
L 307.980703 59.147062 
L 315.062106 59.147062 
L 322.143509 59.147062 
L 329.224912 59.147062 
L 336.306315 59.147062 
L 343.387718 59.147062 
L 350.469121 59.147062 
L 357.550524 59.147062 
L 364.631927 59.147062 
L 371.71333 59.147062 
L 378.794733 59.147062 
L 385.876136 59.147062 
L 392.957539 59.147062 
L 400.038942 59.147062 
L 407.120345 59.147062 
L 414.201748 59.147062 
L 421.283151 59.147062 
L 428.364554 59.147062 
L 435.445957 59.147062 
L 442.52736 59.147062 
L 449.608763 59.147062 
L 456.690166 59.147062 
L 463.771569 59.147062 
L 470.852972 59.147062 
L 477.934375 59.147062 
" clip-path="url(#p9b06f57d6c)" style="fill: none; stroke-dasharray: 4.44,1.92; stroke-dashoffset: 0; stroke: #999999; stroke-width: 1.2"/>
   </g>
   <g id="line2d_34">
    <path d="M 60.131597 263.720617 
L 67.213 258.250889 
L 74.294403 252.781161 
L 81.375806 247.311433 
L 88.457209 241.841705 
L 95.538612 236.371977 
L 102.620015 230.902248 
L 109.701418 225.43252 
L 116.782821 219.962792 
L 123.864224 214.489676 
L 130.945627 209.041862 
L 138.02703 203.589808 
L 145.108433 198.131612 
L 152.189836 192.716592 
L 159.271239 187.219025 
L 166.352642 181.738182 
L 173.434045 176.474131 
L 180.515448 171.084793 
L 187.596851 165.88344 
L 194.678254 160.668099 
L 201.759657 155.268044 
L 208.84106 150.323679 
L 215.922464 145.023772 
L 223.003867 143.270562 
L 230.08527 138.449345 
L 237.166673 135.015524 
L 244.248076 128.644392 
L 251.329479 130.217535 
L 258.410882 129.524743 
L 265.492285 125.063307 
L 272.573688 130.150054 
L 279.655091 141.862566 
L 286.736494 145.649164 
L 293.817897 151.867271 
L 300.8993 170.825187 
L 307.980703 174.303008 
L 315.062106 179.512505 
L 322.143509 193.420699 
L 329.224912 193.995007 
L 336.306315 202.816019 
L 343.387718 209.577869 
L 350.469121 213.769299 
L 357.550524 219.55806 
L 364.631927 222.827459 
L 371.71333 227.224947 
L 378.794733 230.265369 
L 385.876136 231.074896 
L 392.957539 232.188264 
L 400.038942 235.258128 
L 407.120345 233.969367 
L 414.201748 236.838582 
L 421.283151 241.468951 
L 428.364554 241.688652 
L 435.445957 242.146859 
L 442.52736 242.466554 
L 449.608763 246.340699 
L 456.690166 246.127503 
L 463.771569 247.4862 
L 470.852972 248.471781 
L 477.934375 247.369121 
" clip-path="url(#p9b06f57d6c)" style="fill: none; stroke: #0072b2; stroke-width: 2; stroke-linecap: round"/>
   </g>
   <g id="line2d_35">
    <path d="M 60.131597 262.321335 
L 67.213 256.021525 
L 74.294403 249.721715 
L 81.375806 243.421905 
L 88.457209 237.122094 
L 95.538612 230.822284 
L 102.620015 224.522474 
L 109.701418 218.222664 
L 116.782821 211.922853 
L 123.864224 205.623043 
L 130.945627 199.323233 
L 138.02703 193.027445 
L 145.108433 186.719273 
L 152.189836 180.409833 
L 159.271239 174.119018 
L 166.352642 167.818891 
L 173.434045 161.535586 
L 180.515448 155.23641 
L 187.596851 148.937234 
L 194.678254 142.631499 
L 201.759657 136.380137 
L 208.84106 130.032513 
L 215.922464 123.868199 
L 223.003867 117.87184 
L 230.08527 111.378356 
L 237.166673 105.257598 
L 244.248076 99.526987 
L 251.329479 92.908606 
L 258.410882 88.891544 
L 265.492285 81.524078 
L 272.573688 80.500231 
L 279.655091 90.39707 
L 286.736494 106.419179 
L 293.817897 119.918935 
L 300.8993 136.473536 
L 307.980703 170.685505 
L 315.062106 186.084405 
L 322.143509 180.492361 
L 329.224912 197.9335 
L 336.306315 207.782561 
L 343.387718 210.053687 
L 350.469121 216.043052 
L 357.550524 216.870906 
L 364.631927 220.37633 
L 371.71333 226.066111 
L 378.794733 230.013726 
L 385.876136 230.772505 
L 392.957539 232.358068 
L 400.038942 232.942332 
L 407.120345 233.985438 
L 414.201748 237.330217 
L 421.283151 242.087033 
L 428.364554 242.369531 
L 435.445957 243.828747 
L 442.52736 242.696083 
L 449.608763 247.329225 
L 456.690166 246.383567 
L 463.771569 247.411771 
L 470.852972 247.374167 
L 477.934375 249.139335 
" clip-path="url(#p9b06f57d6c)" style="fill: none; stroke: #009e73; stroke-width: 2; stroke-linecap: round"/>
   </g>
   <g id="line2d_36">
    <path d="M 286.938819 272.941016 
L 286.938819 27.077969 
" clip-path="url(#p9b06f57d6c)" style="fill: none; stroke-dasharray: 1.4,2.31; stroke-dashoffset: 0; stroke: #cc79a7; stroke-opacity: 0.9; stroke-width: 1.4"/>
   </g>
   <g id="patch_4">
    <path d="M 48.194375 272.941016 
L 48.194375 27.077969 
" style="fill: none; stroke: #000000; stroke-width: 0.8; stroke-linejoin: miter; stroke-linecap: square"/>
   </g>
   <g id="patch_5">
    <path d="M 48.194375 272.941016 
L 477.934375 272.941016 
" style="fill: none; stroke: #000000; stroke-width: 0.8; stroke-linejoin: miter; stroke-linecap: square"/>
   </g>
   <g id="text_19">
    <!-- saturation -->
    <g style="fill: #cc79a7" transform="translate(297.792458 260.647863) rotate(-90) scale(0.08 -0.08)">
     <defs>
      <path id="DejaVuSans-56" d="M 2834 3397 
L 2834 2853 
Q 2591 2978 2328 3040 
Q 2066 3103 1784 3103 
Q 1356 3103 1142 2972 
Q 928 2841 928 2578 
Q 928 2378 1081 2264 
Q 1234 2150 1697 2047 
L 1894 2003 
Q 2506 1872 2764 1633 
Q 3022 1394 3022 966 
Q 3022 478 2636 193 
Q 2250 -91 1575 -91 
Q 1294 -91 989 -36 
Q 684 19 347 128 
L 347 722 
Q 666 556 975 473 
Q 1284 391 1588 391 
Q 1994 391 2212 530 
Q 2431 669 2431 922 
Q 2431 1156 2273 1281 
Q 2116 1406 1581 1522 
L 1381 1569 
Q 847 1681 609 1914 
Q 372 2147 372 2553 
Q 372 3047 722 3315 
Q 1072 3584 1716 3584 
Q 2034 3584 2315 3537 
Q 2597 3491 2834 3397 
z
" transform="scale(0.015625)"/>
     </defs>
     <use xlink:href="#DejaVuSans-56"/>
     <use xlink:href="#DejaVuSans-44" transform="translate(52.09375 0)"/>
     <use xlink:href="#DejaVuSans-57" transform="translate(113.375 0)"/>
     <use xlink:href="#DejaVuSans-58" transform="translate(152.578125 0)"/>
     <use xlink:href="#DejaVuSans-55" transform="translate(215.953125 0)"/>
     <use xlink:href="#DejaVuSans-44" transform="translate(257.0625 0)"/>
     <use xlink:href="#DejaVuSans-57" transform="translate(318.34375 0)"/>
     <use xlink:href="#DejaVuSans-4c" transform="translate(357.546875 0)"/>
     <use xlink:href="#DejaVuSans-52" transform="translate(385.328125 0)"/>
     <use xlink:href="#DejaVuSans-51" transform="translate(446.515625 0)"/>
    </g>
   </g>
   <g id="patch_6">
    <path d="M 349.124289 129.599039 
Q 359.551232 168.2353 369.745129 206.008027 
" style="fill: none; stroke: #555555; stroke-width: 0.8; stroke-linecap: round"/>
    <path d="M 370.367224 202.939966 
L 369.745129 206.008027 
L 367.663937 203.669514 
" style="fill: none; stroke: #555555; stroke-width: 0.8; stroke-linecap: round"/>
   </g>
   <g id="text_20">
    <!-- Goodput collapse: -->
    <g style="fill: #555555" transform="translate(310.813264 106.48142) scale(0.07 -0.07)">
     <defs>
      <path id="DejaVuSans-1d" d="M 750 794 
L 1409 794 
L 1409 0 
L 750 0 
L 750 794 
z
M 750 3309 
L 1409 3309 
L 1409 2516 
L 750 2516 
L 750 3309 
z
" transform="scale(0.015625)"/>
     </defs>
     <use xlink:href="#DejaVuSans-2a"/>
     <use xlink:href="#DejaVuSans-52" transform="translate(77.484375 0)"/>
     <use xlink:href="#DejaVuSans-52" transform="translate(138.671875 0)"/>
     <use xlink:href="#DejaVuSans-47" transform="translate(199.859375 0)"/>
     <use xlink:href="#DejaVuSans-53" transform="translate(263.34375 0)"/>
     <use xlink:href="#DejaVuSans-58" transform="translate(326.828125 0)"/>
     <use xlink:href="#DejaVuSans-57" transform="translate(390.203125 0)"/>
     <use xlink:href="#DejaVuSans-3" transform="translate(429.40625 0)"/>
     <use xlink:href="#DejaVuSans-46" transform="translate(461.1875 0)"/>
     <use xlink:href="#DejaVuSans-52" transform="translate(516.171875 0)"/>
     <use xlink:href="#DejaVuSans-4f" transform="translate(577.359375 0)"/>
     <use xlink:href="#DejaVuSans-4f" transform="translate(605.140625 0)"/>
     <use xlink:href="#DejaVuSans-44" transform="translate(632.921875 0)"/>
     <use xlink:href="#DejaVuSans-53" transform="translate(694.203125 0)"/>
     <use xlink:href="#DejaVuSans-56" transform="translate(757.6875 0)"/>
     <use xlink:href="#DejaVuSans-48" transform="translate(809.78125 0)"/>
     <use xlink:href="#DejaVuSans-1d" transform="translate(871.3125 0)"/>
    </g>
    <!-- high accepted RPS, -->
    <g style="fill: #555555" transform="translate(310.813264 114.883334) scale(0.07 -0.07)">
     <defs>
      <path id="DejaVuSans-4b" d="M 3513 2113 
L 3513 0 
L 2938 0 
L 2938 2094 
Q 2938 2591 2744 2837 
Q 2550 3084 2163 3084 
Q 1697 3084 1428 2787 
Q 1159 2491 1159 1978 
L 1159 0 
L 581 0 
L 581 4863 
L 1159 4863 
L 1159 2956 
Q 1366 3272 1645 3428 
Q 1925 3584 2291 3584 
Q 2894 3584 3203 3211 
Q 3513 2838 3513 2113 
z
" transform="scale(0.015625)"/>
      <path id="DejaVuSans-4a" d="M 2906 1791 
Q 2906 2416 2648 2759 
Q 2391 3103 1925 3103 
Q 1463 3103 1205 2759 
Q 947 2416 947 1791 
Q 947 1169 1205 825 
Q 1463 481 1925 481 
Q 2391 481 2648 825 
Q 2906 1169 2906 1791 
z
M 3481 434 
Q 3481 -459 3084 -895 
Q 2688 -1331 1869 -1331 
Q 1566 -1331 1297 -1286 
Q 1028 -1241 775 -1147 
L 775 -588 
Q 1028 -725 1275 -790 
Q 1522 -856 1778 -856 
Q 2344 -856 2625 -561 
Q 2906 -266 2906 331 
L 2906 616 
Q 2728 306 2450 153 
Q 2172 0 1784 0 
Q 1141 0 747 490 
Q 353 981 353 1791 
Q 353 2603 747 3093 
Q 1141 3584 1784 3584 
Q 2172 3584 2450 3431 
Q 2728 3278 2906 2969 
L 2906 3500 
L 3481 3500 
L 3481 434 
z
" transform="scale(0.015625)"/>
      <path id="DejaVuSans-35" d="M 2841 2188 
Q 3044 2119 3236 1894 
Q 3428 1669 3622 1275 
L 4263 0 
L 3584 0 
L 2988 1197 
Q 2756 1666 2539 1819 
Q 2322 1972 1947 1972 
L 1259 1972 
L 1259 0 
L 628 0 
L 628 4666 
L 2053 4666 
Q 2853 4666 3247 4331 
Q 3641 3997 3641 3322 
Q 3641 2881 3436 2590 
Q 3231 2300 2841 2188 
z
M 1259 4147 
L 1259 2491 
L 2053 2491 
Q 2509 2491 2742 2702 
Q 2975 2913 2975 3322 
Q 2975 3731 2742 3939 
Q 2509 4147 2053 4147 
L 1259 4147 
z
" transform="scale(0.015625)"/>
      <path id="DejaVuSans-33" d="M 1259 4147 
L 1259 2394 
L 2053 2394 
Q 2494 2394 2734 2622 
Q 2975 2850 2975 3272 
Q 2975 3691 2734 3919 
Q 2494 4147 2053 4147 
L 1259 4147 
z
M 628 4666 
L 2053 4666 
Q 2838 4666 3239 4311 
Q 3641 3956 3641 3272 
Q 3641 2581 3239 2228 
Q 2838 1875 2053 1875 
L 1259 1875 
L 1259 0 
L 628 0 
L 628 4666 
z
" transform="scale(0.015625)"/>
      <path id="DejaVuSans-36" d="M 3425 4513 
L 3425 3897 
Q 3066 4069 2747 4153 
Q 2428 4238 2131 4238 
Q 1616 4238 1336 4038 
Q 1056 3838 1056 3469 
Q 1056 3159 1242 3001 
Q 1428 2844 1947 2747 
L 2328 2669 
Q 3034 2534 3370 2195 
Q 3706 1856 3706 1288 
Q 3706 609 3251 259 
Q 2797 -91 1919 -91 
Q 1588 -91 1214 -16 
Q 841 59 441 206 
L 441 856 
Q 825 641 1194 531 
Q 1563 422 1919 422 
Q 2459 422 2753 634 
Q 3047 847 3047 1241 
Q 3047 1584 2836 1778 
Q 2625 1972 2144 2069 
L 1759 2144 
Q 1053 2284 737 2584 
Q 422 2884 422 3419 
Q 422 4038 858 4394 
Q 1294 4750 2059 4750 
Q 2388 4750 2728 4690 
Q 3069 4631 3425 4513 
z
" transform="scale(0.015625)"/>
      <path id="DejaVuSans-f" d="M 750 794 
L 1409 794 
L 1409 256 
L 897 -744 
L 494 -744 
L 750 256 
L 750 794 
z
" transform="scale(0.015625)"/>
     </defs>
     <use xlink:href="#DejaVuSans-4b"/>
     <use xlink:href="#DejaVuSans-4c" transform="translate(63.375 0)"/>
     <use xlink:href="#DejaVuSans-4a" transform="translate(91.15625 0)"/>
     <use xlink:href="#DejaVuSans-4b" transform="translate(154.640625 0)"/>
     <use xlink:href="#DejaVuSans-3" transform="translate(218.015625 0)"/>
     <use xlink:href="#DejaVuSans-44" transform="translate(249.796875 0)"/>
     <use xlink:href="#DejaVuSans-46" transform="translate(311.078125 0)"/>
     <use xlink:href="#DejaVuSans-46" transform="translate(366.0625 0)"/>
     <use xlink:href="#DejaVuSans-48" transform="translate(421.046875 0)"/>
     <use xlink:href="#DejaVuSans-53" transform="translate(482.578125 0)"/>
     <use xlink:href="#DejaVuSans-57" transform="translate(546.0625 0)"/>
     <use xlink:href="#DejaVuSans-48" transform="translate(585.265625 0)"/>
     <use xlink:href="#DejaVuSans-47" transform="translate(646.796875 0)"/>
     <use xlink:href="#DejaVuSans-3" transform="translate(710.28125 0)"/>
     <use xlink:href="#DejaVuSans-35" transform="translate(742.0625 0)"/>
     <use xlink:href="#DejaVuSans-33" transform="translate(811.546875 0)"/>
     <use xlink:href="#DejaVuSans-36" transform="translate(871.84375 0)"/>
     <use xlink:href="#DejaVuSans-f" transform="translate(935.328125 0)"/>
    </g>
    <!-- low completed RPS -->
    <g style="fill: #555555" transform="translate(310.813264 123.285248) scale(0.07 -0.07)">
     <defs>
      <path id="DejaVuSans-5a" d="M 269 3500 
L 844 3500 
L 1563 769 
L 2278 3500 
L 2956 3500 
L 3675 769 
L 4391 3500 
L 4966 3500 
L 4050 0 
L 3372 0 
L 2619 2869 
L 1863 0 
L 1184 0 
L 269 3500 
z
" transform="scale(0.015625)"/>
     </defs>
     <use xlink:href="#DejaVuSans-4f"/>
     <use xlink:href="#DejaVuSans-52" transform="translate(27.78125 0)"/>
     <use xlink:href="#DejaVuSans-5a" transform="translate(88.96875 0)"/>
     <use xlink:href="#DejaVuSans-3" transform="translate(170.75 0)"/>
     <use xlink:href="#DejaVuSans-46" transform="translate(202.53125 0)"/>
     <use xlink:href="#DejaVuSans-52" transform="translate(257.515625 0)"/>
     <use xlink:href="#DejaVuSans-50" transform="translate(318.703125 0)"/>
     <use xlink:href="#DejaVuSans-53" transform="translate(416.109375 0)"/>
     <use xlink:href="#DejaVuSans-4f" transform="translate(479.59375 0)"/>
     <use xlink:href="#DejaVuSans-48" transform="translate(507.375 0)"/>
     <use xlink:href="#DejaVuSans-57" transform="translate(568.90625 0)"/>
     <use xlink:href="#DejaVuSans-48" transform="translate(608.109375 0)"/>
     <use xlink:href="#DejaVuSans-47" transform="translate(669.640625 0)"/>
     <use xlink:href="#DejaVuSans-3" transform="translate(733.125 0)"/>
     <use xlink:href="#DejaVuSans-35" transform="translate(764.90625 0)"/>
     <use xlink:href="#DejaVuSans-33" transform="translate(834.390625 0)"/>
     <use xlink:href="#DejaVuSans-36" transform="translate(894.6875 0)"/>
    </g>
   </g>
   <g id="text_21">
    <!-- Goodput Collapse Past Saturation (M/M/c + deadline) -->
    <g transform="translate(90.051641 17.077969) scale(0.13 -0.13)">
     <defs>
      <path id="DejaVuSans-26" d="M 4122 4306 
L 4122 3641 
Q 3803 3938 3442 4084 
Q 3081 4231 2675 4231 
Q 1875 4231 1450 3742 
Q 1025 3253 1025 2328 
Q 1025 1406 1450 917 
Q 1875 428 2675 428 
Q 3081 428 3442 575 
Q 3803 722 4122 1019 
L 4122 359 
Q 3791 134 3420 21 
Q 3050 -91 2638 -91 
Q 1578 -91 968 557 
Q 359 1206 359 2328 
Q 359 3453 968 4101 
Q 1578 4750 2638 4750 
Q 3056 4750 3426 4639 
Q 3797 4528 4122 4306 
z
" transform="scale(0.015625)"/>
      <path id="DejaVuSans-30" d="M 628 4666 
L 1569 4666 
L 2759 1491 
L 3956 4666 
L 4897 4666 
L 4897 0 
L 4281 0 
L 4281 4097 
L 3078 897 
L 2444 897 
L 1241 4097 
L 1241 0 
L 628 0 
L 628 4666 
z
" transform="scale(0.015625)"/>
      <path id="DejaVuSans-e" d="M 2944 4013 
L 2944 2272 
L 4684 2272 
L 4684 1741 
L 2944 1741 
L 2944 0 
L 2419 0 
L 2419 1741 
L 678 1741 
L 678 2272 
L 2419 2272 
L 2419 4013 
L 2944 4013 
z
" transform="scale(0.015625)"/>
     </defs>
     <use xlink:href="#DejaVuSans-2a"/>
     <use xlink:href="#DejaVuSans-52" transform="translate(77.484375 0)"/>
     <use xlink:href="#DejaVuSans-52" transform="translate(138.671875 0)"/>
     <use xlink:href="#DejaVuSans-47" transform="translate(199.859375 0)"/>
     <use xlink:href="#DejaVuSans-53" transform="translate(263.34375 0)"/>
     <use xlink:href="#DejaVuSans-58" transform="translate(326.828125 0)"/>
     <use xlink:href="#DejaVuSans-57" transform="translate(390.203125 0)"/>
     <use xlink:href="#DejaVuSans-3" transform="translate(429.40625 0)"/>
     <use xlink:href="#DejaVuSans-26" transform="translate(461.1875 0)"/>
     <use xlink:href="#DejaVuSans-52" transform="translate(531.015625 0)"/>
     <use xlink:href="#DejaVuSans-4f" transform="translate(592.203125 0)"/>
     <use xlink:href="#DejaVuSans-4f" transform="translate(619.984375 0)"/>
     <use xlink:href="#DejaVuSans-44" transform="translate(647.765625 0)"/>
     <use xlink:href="#DejaVuSans-53" transform="translate(709.046875 0)"/>
     <use xlink:href="#DejaVuSans-56" transform="translate(772.53125 0)"/>
     <use xlink:href="#DejaVuSans-48" transform="translate(824.625 0)"/>
     <use xlink:href="#DejaVuSans-3" transform="translate(886.15625 0)"/>
     <use xlink:href="#DejaVuSans-33" transform="translate(917.9375 0)"/>
     <use xlink:href="#DejaVuSans-44" transform="translate(973.75 0)"/>
     <use xlink:href="#DejaVuSans-56" transform="translate(1035.03125 0)"/>
     <use xlink:href="#DejaVuSans-57" transform="translate(1087.125 0)"/>
     <use xlink:href="#DejaVuSans-3" transform="translate(1126.328125 0)"/>
     <use xlink:href="#DejaVuSans-36" transform="translate(1158.109375 0)"/>
     <use xlink:href="#DejaVuSans-44" transform="translate(1221.59375 0)"/>
     <use xlink:href="#DejaVuSans-57" transform="translate(1282.875 0)"/>
     <use xlink:href="#DejaVuSans-58" transform="translate(1322.078125 0)"/>
     <use xlink:href="#DejaVuSans-55" transform="translate(1385.453125 0)"/>
     <use xlink:href="#DejaVuSans-44" transform="translate(1426.5625 0)"/>
     <use xlink:href="#DejaVuSans-57" transform="translate(1487.84375 0)"/>
     <use xlink:href="#DejaVuSans-4c" transform="translate(1527.046875 0)"/>
     <use xlink:href="#DejaVuSans-52" transform="translate(1554.828125 0)"/>
     <use xlink:href="#DejaVuSans-51" transform="translate(1616.015625 0)"/>
     <use xlink:href="#DejaVuSans-3" transform="translate(1679.390625 0)"/>
     <use xlink:href="#DejaVuSans-b" transform="translate(1711.171875 0)"/>
     <use xlink:href="#DejaVuSans-30" transform="translate(1750.1875 0)"/>
     <use xlink:href="#DejaVuSans-12" transform="translate(1836.46875 0)"/>
     <use xlink:href="#DejaVuSans-30" transform="translate(1870.15625 0)"/>
     <use xlink:href="#DejaVuSans-12" transform="translate(1956.4375 0)"/>
     <use xlink:href="#DejaVuSans-46" transform="translate(1990.125 0)"/>
     <use xlink:href="#DejaVuSans-3" transform="translate(2045.109375 0)"/>
     <use xlink:href="#DejaVuSans-e" transform="translate(2076.890625 0)"/>
     <use xlink:href="#DejaVuSans-3" transform="translate(2160.6875 0)"/>
     <use xlink:href="#DejaVuSans-47" transform="translate(2192.46875 0)"/>
     <use xlink:href="#DejaVuSans-48" transform="translate(2255.953125 0)"/>
     <use xlink:href="#DejaVuSans-44" transform="translate(2317.484375 0)"/>
     <use xlink:href="#DejaVuSans-47" transform="translate(2378.765625 0)"/>
     <use xlink:href="#DejaVuSans-4f" transform="translate(2442.25 0)"/>
     <use xlink:href="#DejaVuSans-4c" transform="translate(2470.03125 0)"/>
     <use xlink:href="#DejaVuSans-51" transform="translate(2497.8125 0)"/>
     <use xlink:href="#DejaVuSans-48" transform="translate(2561.1875 0)"/>
     <use xlink:href="#DejaVuSans-c" transform="translate(2622.71875 0)"/>
    </g>
   </g>
   <g id="legend_1">
    <g id="patch_7">
     <path d="M 53.794375 69.479844 
L 190.294375 69.479844 
Q 191.894375 69.479844 191.894375 67.879844 
L 191.894375 32.677969 
Q 191.894375 31.077969 190.294375 31.077969 
L 53.794375 31.077969 
Q 52.194375 31.077969 52.194375 32.677969 
L 52.194375 67.879844 
Q 52.194375 69.479844 53.794375 69.479844 
z
" style="fill: #ffffff; opacity: 0.85; stroke: #cccccc; stroke-linejoin: miter"/>
    </g>
    <g id="line2d_37">
     <path d="M 55.394375 37.556719 
L 63.394375 37.556719 
L 71.394375 37.556719 
" style="fill: none; stroke-dasharray: 4.44,1.92; stroke-dashoffset: 0; stroke: #999999; stroke-width: 1.2"/>
    </g>
    <g id="text_22">
     <!-- Ideal (no deadline) -->
     <g transform="translate(77.794375 40.356719) scale(0.08 -0.08)">
      <defs>
       <path id="DejaVuSans-2c" d="M 628 4666 
L 1259 4666 
L 1259 0 
L 628 0 
L 628 4666 
z
" transform="scale(0.015625)"/>
      </defs>
      <use xlink:href="#DejaVuSans-2c"/>
      <use xlink:href="#DejaVuSans-47" transform="translate(29.5 0)"/>
      <use xlink:href="#DejaVuSans-48" transform="translate(92.984375 0)"/>
      <use xlink:href="#DejaVuSans-44" transform="translate(154.515625 0)"/>
      <use xlink:href="#DejaVuSans-4f" transform="translate(215.796875 0)"/>
      <use xlink:href="#DejaVuSans-3" transform="translate(243.578125 0)"/>
      <use xlink:href="#DejaVuSans-b" transform="translate(275.359375 0)"/>
      <use xlink:href="#DejaVuSans-51" transform="translate(314.375 0)"/>
      <use xlink:href="#DejaVuSans-52" transform="translate(377.75 0)"/>
      <use xlink:href="#DejaVuSans-3" transform="translate(438.9375 0)"/>
      <use xlink:href="#DejaVuSans-47" transform="translate(470.71875 0)"/>
      <use xlink:href="#DejaVuSans-48" transform="translate(534.203125 0)"/>
      <use xlink:href="#DejaVuSans-44" transform="translate(595.734375 0)"/>
      <use xlink:href="#DejaVuSans-47" transform="translate(657.015625 0)"/>
      <use xlink:href="#DejaVuSans-4f" transform="translate(720.5 0)"/>
      <use xlink:href="#DejaVuSans-4c" transform="translate(748.28125 0)"/>
      <use xlink:href="#DejaVuSans-51" transform="translate(776.0625 0)"/>
      <use xlink:href="#DejaVuSans-48" transform="translate(839.4375 0)"/>
      <use xlink:href="#DejaVuSans-c" transform="translate(900.96875 0)"/>
     </g>
    </g>
    <g id="line2d_38">
     <path d="M 55.394375 49.557344 
L 63.394375 49.557344 
L 71.394375 49.557344 
" style="fill: none; stroke: #0072b2; stroke-width: 2; stroke-linecap: round"/>
    </g>
    <g id="text_23">
     <!-- Deadline = 2× service time -->
     <g transform="translate(77.794375 52.357344) scale(0.08 -0.08)">
      <defs>
       <path id="DejaVuSans-27" d="M 1259 4147 
L 1259 519 
L 2022 519 
Q 2988 519 3436 956 
Q 3884 1394 3884 2338 
Q 3884 3275 3436 3711 
Q 2988 4147 2022 4147 
L 1259 4147 
z
M 628 4666 
L 1925 4666 
Q 3281 4666 3915 4102 
Q 4550 3538 4550 2338 
Q 4550 1131 3912 565 
Q 3275 0 1925 0 
L 628 0 
L 628 4666 
z
" transform="scale(0.015625)"/>
       <path id="DejaVuSans-99" d="M 4488 3438 
L 3059 2003 
L 4488 575 
L 4116 197 
L 2681 1631 
L 1247 197 
L 878 575 
L 2303 2003 
L 878 3438 
L 1247 3816 
L 2681 2381 
L 4116 3816 
L 4488 3438 
z
" transform="scale(0.015625)"/>
       <path id="DejaVuSans-59" d="M 191 3500 
L 800 3500 
L 1894 563 
L 2988 3500 
L 3597 3500 
L 2284 0 
L 1503 0 
L 191 3500 
z
" transform="scale(0.015625)"/>
      </defs>
      <use xlink:href="#DejaVuSans-27"/>
      <use xlink:href="#DejaVuSans-48" transform="translate(77 0)"/>
      <use xlink:href="#DejaVuSans-44" transform="translate(138.53125 0)"/>
      <use xlink:href="#DejaVuSans-47" transform="translate(199.8125 0)"/>
      <use xlink:href="#DejaVuSans-4f" transform="translate(263.296875 0)"/>
      <use xlink:href="#DejaVuSans-4c" transform="translate(291.078125 0)"/>
      <use xlink:href="#DejaVuSans-51" transform="translate(318.859375 0)"/>
      <use xlink:href="#DejaVuSans-48" transform="translate(382.234375 0)"/>
      <use xlink:href="#DejaVuSans-3" transform="translate(443.765625 0)"/>
      <use xlink:href="#DejaVuSans-20" transform="translate(475.546875 0)"/>
      <use xlink:href="#DejaVuSans-3" transform="translate(559.34375 0)"/>
      <use xlink:href="#DejaVuSans-15" transform="translate(591.125 0)"/>
      <use xlink:href="#DejaVuSans-99" transform="translate(654.75 0)"/>
      <use xlink:href="#DejaVuSans-3" transform="translate(738.546875 0)"/>
      <use xlink:href="#DejaVuSans-56" transform="translate(770.328125 0)"/>
      <use xlink:href="#DejaVuSans-48" transform="translate(822.421875 0)"/>
      <use xlink:href="#DejaVuSans-55" transform="translate(883.953125 0)"/>
      <use xlink:href="#DejaVuSans-59" transform="translate(925.0625 0)"/>
      <use xlink:href="#DejaVuSans-4c" transform="translate(984.25 0)"/>
      <use xlink:href="#DejaVuSans-46" transform="translate(1012.03125 0)"/>
      <use xlink:href="#DejaVuSans-48" transform="translate(1067.015625 0)"/>
      <use xlink:href="#DejaVuSans-3" transform="translate(1128.546875 0)"/>
      <use xlink:href="#DejaVuSans-57" transform="translate(1160.328125 0)"/>
      <use xlink:href="#DejaVuSans-4c" transform="translate(1199.53125 0)"/>
      <use xlink:href="#DejaVuSans-50" transform="translate(1227.3125 0)"/>
      <use xlink:href="#DejaVuSans-48" transform="translate(1324.71875 0)"/>
     </g>
    </g>
    <g id="line2d_39">
     <path d="M 55.394375 61.557969 
L 63.394375 61.557969 
L 71.394375 61.557969 
" style="fill: none; stroke: #009e73; stroke-width: 2; stroke-linecap: round"/>
    </g>
    <g id="text_24">
     <!-- Deadline = 5× service time -->
     <g transform="translate(77.794375 64.357969) scale(0.08 -0.08)">
      <defs>
       <path id="DejaVuSans-18" d="M 691 4666 
L 3169 4666 
L 3169 4134 
L 1269 4134 
L 1269 2991 
Q 1406 3038 1543 3061 
Q 1681 3084 1819 3084 
Q 2600 3084 3056 2656 
Q 3513 2228 3513 1497 
Q 3513 744 3044 326 
Q 2575 -91 1722 -91 
Q 1428 -91 1123 -41 
Q 819 9 494 109 
L 494 744 
Q 775 591 1075 516 
Q 1375 441 1709 441 
Q 2250 441 2565 725 
Q 2881 1009 2881 1497 
Q 2881 1984 2565 2268 
Q 2250 2553 1709 2553 
Q 1456 2553 1204 2497 
Q 953 2441 691 2322 
L 691 4666 
z
" transform="scale(0.015625)"/>
      </defs>
      <use xlink:href="#DejaVuSans-27"/>
      <use xlink:href="#DejaVuSans-48" transform="translate(77 0)"/>
      <use xlink:href="#DejaVuSans-44" transform="translate(138.53125 0)"/>
      <use xlink:href="#DejaVuSans-47" transform="translate(199.8125 0)"/>
      <use xlink:href="#DejaVuSans-4f" transform="translate(263.296875 0)"/>
      <use xlink:href="#DejaVuSans-4c" transform="translate(291.078125 0)"/>
      <use xlink:href="#DejaVuSans-51" transform="translate(318.859375 0)"/>
      <use xlink:href="#DejaVuSans-48" transform="translate(382.234375 0)"/>
      <use xlink:href="#DejaVuSans-3" transform="translate(443.765625 0)"/>
      <use xlink:href="#DejaVuSans-20" transform="translate(475.546875 0)"/>
      <use xlink:href="#DejaVuSans-3" transform="translate(559.34375 0)"/>
      <use xlink:href="#DejaVuSans-18" transform="translate(591.125 0)"/>
      <use xlink:href="#DejaVuSans-99" transform="translate(654.75 0)"/>
      <use xlink:href="#DejaVuSans-3" transform="translate(738.546875 0)"/>
      <use xlink:href="#DejaVuSans-56" transform="translate(770.328125 0)"/>
      <use xlink:href="#DejaVuSans-48" transform="translate(822.421875 0)"/>
      <use xlink:href="#DejaVuSans-55" transform="translate(883.953125 0)"/>
      <use xlink:href="#DejaVuSans-59" transform="translate(925.0625 0)"/>
      <use xlink:href="#DejaVuSans-4c" transform="translate(984.25 0)"/>
      <use xlink:href="#DejaVuSans-46" transform="translate(1012.03125 0)"/>
      <use xlink:href="#DejaVuSans-48" transform="translate(1067.015625 0)"/>
      <use xlink:href="#DejaVuSans-3" transform="translate(1128.546875 0)"/>
      <use xlink:href="#DejaVuSans-57" transform="translate(1160.328125 0)"/>
      <use xlink:href="#DejaVuSans-4c" transform="translate(1199.53125 0)"/>
      <use xlink:href="#DejaVuSans-50" transform="translate(1227.3125 0)"/>
      <use xlink:href="#DejaVuSans-48" transform="translate(1324.71875 0)"/>
     </g>
    </g>
   </g>
  </g>
 </g>
 <defs>
  <clipPath id="p9b06f57d6c">
   <rect x="48.194375" y="27.077969" width="429.74" height="245.863047"/>
  </clipPath>
 </defs>
</svg>
